<svg xmlns="http://www.w3.org/2000/svg" xmlns:xlink="http://www.w3.org/1999/xlink" viewBox="0 0 114 19.62">
	<g>
		<path
			d="M78.54 4.4l-4.8.04c.28.48.19.76.19.76-.42 5.2-1.81 11.25-1.81 11.25s.53-.09 1.09-.06 3.93.28 5.77-.55l.21-.08c3.49-1.7 3.79-5.36 3.79-5.36.66-6.04-4.44-6-4.44-6zm3.01 5.93l-.06.3c-1.01 4.89-4.47 4.95-5.28 5.02-.81.07-2.33-.07-2.33-.07l-.23-.06.1-.47s.82-6.05 1.54-9.67l.04-.11.36-.03c.61-.02 6.65-1.14 5.86 5.09zM11.44 1.84c-.21-.85.14-1.78.14-1.78C4.48.63.01.06.01.06c.1 1.15-.26 1.91-.26 1.91s2.53-.5 5.33-.31c-.15 1.45-1.42 13.18-2.63 18 0 0 1.06-.67 2.32 0 0 0 .21-6.75 2.3-17.98 2.1-.3 4.37.16 4.37.16z">
		</path>
		<path
			d="M13.98 4.37c-6.16-.5-7.23 5.48-7.23 5.48-1.1 6.66 4.31 6.96 4.31 6.96l.17.03c6.71.25 7.32-5.95 7.32-5.95.82-6.2-4.57-6.52-4.57-6.52zm3.04 6.84c-1.08 6-6.11 4.86-6.11 4.86s-3.69-.51-2.72-6.14c0 0 1.11-5.42 5.43-4.92 0 0 4.48.2 3.4 6.2zM42.1 4.37c-6.16-.5-7.23 5.48-7.23 5.48-1.1 6.66 4.31 6.96 4.31 6.96l.18.03c6.71.25 7.32-5.95 7.32-5.95.8-6.2-4.58-6.52-4.58-6.52zm3.04 6.84c-1.08 6-6.11 4.86-6.11 4.86s-3.69-.51-2.72-6.14c0 0 1.11-5.42 5.43-4.92 0 0 4.48.2 3.4 6.2z">
		</path>
		<path
			d="M35.42 4.29c-1.86 3.81-3.64 6.1-3.64 6.1-1.26-2.77-2.29-6.08-2.29-6.08-.79.16-1.1.02-1.32-.02-.07-.01-.11 0-.17.01l.02-.02c-.03.01-.06.01-.08.02-.04 0-.06 0-.08.01-.85.18-1.44 0-1.44 0-2.53 3.22-4.91 5.15-5.51 5.61C21.48 6.41 22 4.29 22 4.29c-.83.28-1.54-.01-1.54-.01-.52 6.51-1.89 12.14-1.89 12.14.97-.22 1.5-.03 1.5-.03.23-2.27.5-4.31.77-6.04 2.3 2.38 4.19 6.08 4.19 6.08 1.24-.28 1.83.03 1.83.03-2.07-2.93-4.56-6.59-4.56-6.59 1.86-2.01 4.8-4.76 5.54-5.44 2.25 4.67 3.01 7.01 3.01 7.01-.28 2.96-.93 4.96-.93 4.96 1.17-.22 1.5.01 1.5.01.05-1.79.8-5.33.8-5.33 3.43-5.51 4.62-6.81 4.62-6.81-.96.23-1.42.02-1.42.02zM49.17-.04c-1.27 12.28-3.01 19.6-3.01 19.6 1.52-.42 2.28 0 2.28 0C49 11.57 51.36-.02 51.36-.02c-1.07.37-2.19-.02-2.19-.02zM59.63 4.36C59.45 8.73 58.39 14 58.39 14c-2.25-2.71-6.43-9.64-6.43-9.64h-.21c-1.38 9.33-2.12 12.16-2.12 12.16.86-.19 1.18 0 1.18 0 .32-4.85 1.29-9.44 1.29-9.44 1.84 2.25 6.46 9.58 6.46 9.58h.28c.53-5.54 1.99-12.28 1.99-12.28-.44.23-1.2-.02-1.2-.02zM65.31 15.87c-2.18-.26-3.82-2.27-3.43-5.44.39-3.17 1.77-5.05 4.47-5.48 0 0 2.01-.3 3.38 1.21 0 0 .02-.57.49-1.2 0 0-3.39-2.03-7.1.43 0 0-2.35 1.47-2.71 4.87v.09c-.24 3.21 1.08 5.56 3.91 6.15 2.82.6 4.61-.61 4.61-.61l.26-1.26c-.01.02-1.7 1.49-3.88 1.24zM71.55 4.3c-.39 4.21-1.97 12.18-1.97 12.18 1.08-.2 1.57.02 1.57.02.54-5.96 1.93-12.19 1.93-12.19-.66.27-1.53-.01-1.53-.01zM85.08 9.68c.43-2.71.77-4.25.77-4.25 2.28-.29 3.75.03 3.75.03-.07-.55.19-1.13.19-1.13-1.68.43-5.37.08-5.37.08.18.53.04 1.38.04 1.38-.57 5.26-1.78 10.7-1.78 10.7 3.36-.28 5.82-.03 5.82-.03-.07-.53.13-1.11.13-1.11-1.92.4-4.34.24-4.34.24.21-1.91.43-3.59.65-5.01.43-.07 1.7-.22 3.86.06 0 0-.11-.58.11-1.08 0 .01-1.9.34-3.83.12zM99.11 4.25c-.21 3.95-1.26 9.67-1.26 9.67-2.68-3.56-6.43-9.62-6.43-9.62h-.25c-.64 5.01-2.04 12.18-2.04 12.18.47-.18 1.17-.06 1.17-.06.26-5.08 1.25-9.42 1.25-9.42 2.14 2.71 6.46 9.58 6.46 9.58h.28c.72-6.78 1.99-12.28 1.99-12.28-.63.11-1.17-.05-1.17-.05zM109.15 5.49c-.06-.69.12-1.09.12-1.09-4.44.29-8.21-.03-8.21-.03.03.98-.18 1.18-.18 1.18s2.35-.33 3.68-.2c-.2 4.55-1.81 11.16-1.81 11.16s.9-.29 1.64.02c0 0 .43-6.09 1.59-11.16 1.9-.18 3.09.11 3.16.13-.41.52-.68 1.14-.77 1.8-.32 2.27 1.89 3.24 1.89 3.24 2.22 1.08 1.88 2.7 1.88 2.7-.24 2.21-1.71 2.4-1.71 2.4-2.01.66-3.18-1.16-3.18-1.16-.17 1.02-.54 1.36-.54 1.36l.21.15s3.76 2.05 5.74-1.26c1.98-3.31-.75-4.83-1.14-5-.39-.17-.91-.51-.91-.51-2.14-1.64-.5-3.62-.5-3.62 2.21-1.91 3.6.55 3.6.55.13-1.05.54-1.37.54-1.37-2.23-1.2-4.09-.57-5.1.71z">
		</path>
	</g>
</svg>