<svg xmlns="http://www.w3.org/2000/svg" xmlns:xlink="http://www.w3.org/1999/xlink" viewBox="0 0 30 23">
  <g id="no_x5F_out">
    <path
      d="M18.6 14.25l.67 1.16c3.76-3.02 8.54-2.2 9.79-1.91-.31-1.01-.74-1.97-1.25-2.87-1.13-.13-5.74-.37-9.21 3.62z">
    </path>
    <path d="M17.85 12.95l.56.98c1.81-2.23 4.56-4.14 8.75-4.33-.56-.81-1.19-1.56-1.9-2.24-.92.27-4.7 1.59-7.41 5.59z">
    </path>
    <path
      d="M16.97 11.19l.01.26.61 1.05c1.4-2.28 3.56-4.58 6.89-5.84-.72-.6-1.5-1.14-2.33-1.59-.66.48-3.32 2.55-5.18 6.12zM16.92 10.37c.93-1.94 2.32-4.04 4.37-5.74-.74-.34-1.52-.63-2.33-.84-.33.45-1.29 1.87-2.18 4.04l.14 2.54zM19.51 15.84l.65 1.13c3.96-1.75 8.61.27 9.54.72-.01-.98-.11-1.93-.31-2.85-.86-.34-5.83-2.05-9.88 1zM16.71 6.59c.42-1.07.94-2.12 1.59-2.97-.58-.13-1.17-.22-1.77-.27l.18 3.24zM12.43 12.54l.63-1.09.01-.19c-1.86-3.62-4.55-5.71-5.22-6.19-.84.46-1.61.99-2.34 1.59 3.35 1.27 5.52 3.59 6.92 5.88zM9.23 18.11l.32-.56c-3.95-1.47-8.38.91-9.21 1.39.1 1.33.38 2.61.81 3.81l.14-.13c4.53-4.92 8.14-3.69 8.56-3.53l-.62-.98z">
    </path>
    <path
      d="M9.87 16.99l.65-1.12C6.46 12.79 1.48 14.51.6 14.84c-.19.92-.3 1.87-.31 2.85.94-.45 5.61-2.48 9.58-.7zM20.49 17.54l.33.58-.6.96c.61-.22 4.14-1.2 8.51 3.55l.14.13c.43-1.2.71-2.48.81-3.81-.85-.49-5.25-2.86-9.19-1.41zM13.11 10.45l.15-2.53c-.91-2.23-1.89-3.67-2.22-4.13-.81.21-1.59.5-2.33.85 2.08 1.71 3.47 3.86 4.4 5.81zM13.52 3.34c-.62.06-1.22.15-1.81.28.66.88 1.19 1.96 1.62 3.06l.19-3.34zM11.62 13.95l.56-.97C9.46 8.95 5.66 7.63 4.74 7.36c-.7.68-1.34 1.43-1.89 2.24 4.2.18 6.96 2.11 8.77 4.35z">
    </path>
    <path
      d="M10.77 15.43l.66-1.15c-3.47-4.02-8.11-3.78-9.23-3.65-.52.9-.94 1.86-1.25 2.87 1.25-.29 6.05-1.12 9.82 1.93zM15.02 1.23l1.24-.98-1.24 2.67L13.78.25l1.24.98zM9.88 18.1l3.2-5.56-.54 9.78-2.66-4.22zm7.62 4.22l-.54-9.78 3.2 5.56-2.66 4.22zm-2.48-2.21l-1.94 2.21 1.1-20.27.84 1.92.84-1.92 1.1 20.27-1.94-2.21z">
    </path>
  </g>
</svg>