<svg xmlns="http://www.w3.org/2000/svg" xmlns:xlink="http://www.w3.org/1999/xlink" id="link_st_apple"
  viewBox="0 0 95.48 27">
  <path
    d="M84.3 5.61h.55v.04h.07v.04c.06.01.12.03.18.04.01.02.02.05.04.07h.07c.02.04.05.07.07.11.15.14.32.27.33.55.07.08.04.49 0 .59h-.04v.07h-.04c-.01.05-.02.1-.04.15-.02.01-.05.03-.07.04v.07c-.05.04-.1.07-.15.11v.04h-.07v.04c-.04.01-.07.02-.11.04-.01.02-.02.05-.04.07-.07.04-.54.15-.66.11v-.04h-.15v-.04h-.07v-.04h-.15c-.02-.04-.05-.07-.07-.11h-.07c-.01-.02-.02-.05-.04-.07-.07-.06-.15-.12-.22-.18-.02-.07-.05-.15-.07-.22h-.04v-.07h-.04v-.66h.04c.01-.05.02-.1.04-.15h.04v-.07c.02-.01.05-.02.07-.04v-.07c.05-.04.1-.07.15-.11.01-.03.02-.05.04-.07h.07c.02-.04.05-.07.07-.11h.11V5.7c.06-.01.12-.02.18-.04.02-.03.02-.04.02-.05zM0 18.31c.01-.1.02-.2.04-.29.02-.01.05-.03.07-.04.01-.09.02-.17.04-.26.03-.01.05-.02.07-.04.01-.09.02-.17.04-.26H.3v-.07h.04c.01-.07.02-.15.04-.22h.04v-.07h.04v-.15H.5v-.07h.04c.01-.07.02-.15.04-.22h.04v-.07h.04v-.15H.7c.01-.05.02-.1.04-.15h.04c.01-.07.03-.15.04-.22h.04v-.07H.9v-.15h.04v-.07h.04v-.11h.04v-.15c.02-.01.05-.03.07-.04.01-.09.03-.17.04-.26.02-.01.05-.02.07-.04v-.18h.04v-.07h.04c.01-.07.02-.15.04-.22h.04c.01-.05.03-.1.04-.15h.04v-.15h.04v-.07h.04c.01-.07.03-.15.04-.22h.04v-.07h.04v-.15h.04c.01-.05.03-.1.04-.15h.04c.01-.07.02-.15.04-.22h.04v-.07h.04v-.18c.02-.01.05-.03.07-.04.01-.09.02-.17.04-.26.02-.01.05-.03.07-.04v-.15h.04v-.11h.04v-.07h.04v-.15h.04c.01-.05.02-.1.04-.15h.04v-.15h.04c.01-.05.02-.1.04-.15h.04v-.15h.04v-.07h.04c.01-.07.02-.15.04-.22h.04v-.07h.04v-.15h.04c.01-.05.02-.1.04-.15h.04v-.15h.04c.01-.05.02-.1.04-.15h.04v-.18c.02-.01.05-.02.07-.04.01-.09.02-.17.04-.26h.04v-.07h.04c.01-.07.03-.15.04-.22h.04v-.07h.04v-.15h.04c.01-.05.02-.1.04-.15h.04v-.15h.04c.01-.05.03-.1.04-.15h.04v-.15h.04V9.2h.04c-.22 0-.21-.08-.2-.15h.04v-.07h.04v-.15h.04c.01-.05.03-.1.04-.15h.04v-.15h.04v-.11h.04v-.07h.04V8.2h.04c.01-.05.02-.1.04-.15h.04V7.9h.04v-.07h.04c-.03-.06-.02-.13 0-.21h.04v-.07h.04V7.4h.04c.01-.05.02-.1.04-.15h.04V7.1h.04v-.07h.04c-.01-.07 0-.14.01-.21h.04v-.07h.04c0-.09.02-.17.03-.26.02-.01.05-.02.07-.04.01-.08.03-.17.04-.25.02-.01.05-.03.07-.04v-.15c.04-.1.09-.16.11-.29.61-.11 1.41-.04 2.09-.04.02.04.05.07.07.11h.04v.07h.04v.15h.04c.01.05.03.1.04.15h.04v.18c.02.01.05.02.07.04.01.08.03.17.04.26.01.01.03.02.06.03.01.09.02.17.04.26h.04V7h.04c.01.07.02.15.04.22h.04v.07h.04v.15h.04c.01.05.02.1.04.15h.04v.15h.04v.07h.04c.01.07.02.15.04.22h.04v.07h.04v.15h.04c.01.05.02.1.04.15h.04v.15h.04c.01.05.02.1.04.15h.04v.18h.04c.01.05.02.1.04.15h.04v.15h.04v.07h.04c.01.07.02.15.04.22h.04v.07h.04v.15h.04c.01.05.02.1.04.15h.04v.15h.04c.01.05.03.1.04.15h.04v.15h.04v.07h.04c.01.07.03.15.04.22h.04v.07h.04c.01.09.02.17.04.26.03.01.05.02.07.04-.12.05-.11.14-.1.22.02.01.05.02.07.04v.18h.04c.01.05.02.1.04.15h.04v.15h.04v.07h.04c.01.07.02.15.04.22h.04v.07h.04v.15h.04c.01.05.02.1.04.15h.04c.01.07.02.15.04.22h.04v.07h.04v.15h.04v.07h.04v.11h.04v.15c.02.01.05.02.07.04.01.09.02.17.04.26.02.01.05.02.07.04v.15h.04v.11h.04v.07h.04v.15h.04c.01.05.03.1.04.15h.04v.15h.04v.07h.04c.01.07.02.15.04.22h.04v.07h.04v.15h.04c.01.05.02.1.04.15h.04v.15h.04c.01.05.03.1.04.15h.04v.15h.04v.07h.04v.11h.04v.15c.02.01.05.02.07.04.01.08.02.17.04.26.25.49.39 1.1.62 1.61.02.11.05.22.07.33.03.01.05.02.07.04v.11h.04v.15c.02.01.05.02.07.04.02.07-.02.05-.04.07-.09.08-.39.04-.55.04H9.26a.487.487 0 00-.04-.11h-.04c-.01-.09-.02-.17-.04-.26H9.1v-.07h-.04v-.15h-.04v-.07h-.04v-.11h-.04v-.15H8.9v-.07h-.04v-.11h-.04v-.15h-.04v-.07h-.04v-.15H8.7c-.01-.05-.02-.1-.04-.15h-.04v-.18h-.04c-.01-.05-.02-.1-.04-.15H8.5v-.18c-.02-.01-.05-.02-.07-.04-.01-.08-.02-.17-.04-.26h-.04v-.07h-.04v-.15h-.04c-.02-.11-.05-.22-.07-.33h-.04v-.07h-.04v-.11h-.04c-.06-.16.04-.2-.15-.26-.06-.05-.21-.04-.33-.04H3.24c-.02.04-.05.07-.07.11h-.04v.07h-.04v.15h-.04v.07h-.04v.11h-.04v.15h-.04v.07h-.04v.15h-.04c-.01.05-.02.1-.04.15h-.04v.18h-.04c-.01.05-.02.1-.04.15h-.04v.18h-.04c-.01.05-.03.1-.04.15h-.04v.15h-.04v.07h-.04v.15h-.04v.11h-.04v.07h-.04c-.01.09-.02.17-.04.26h-.04v.07h-.04v.15h-.04v.07h-.04c-.01.09-.02.17-.04.26h-.04v.07h-.04v.11h-.04c.03.09.12.04.01.14v.04c-.66-.01-1.32-.01-1.98-.01zM32.76 5.72c.52-.09 1.21-.04 1.79-.04.12.24.07.74.07 1.1v11.49c-.15.05-.42.04-.62.04h-1.21c-.1-.27-.04-.86-.04-1.21v-2.6c.01-2.92.01-5.85.01-8.78zm29.98 0v12.59h-1.76c-.08-.22-.04-.63-.04-.92v-1.87-6.44h-.04v-.04h-.04v.04h-.04c-.01.06-.02.12-.04.18h-.04v.07h-.04v.11h-.04c-.01.05-.02.1-.04.15h-.04v.11h-.04v.07h-.04c.03.09.02.16 0 .23-.02.01-.05.02-.07.04v.11h-.04c-.01.05-.02.1-.04.15h-.04v.15h-.04c-.01.05-.02.1-.04.15h-.04v.11h-.04c-.01.05-.02.1-.04.15h-.04v.11h-.04v.07h-.04v.11h-.04c-.01.05-.02.1-.04.15h-.04v.11h-.04c-.01.05-.02.1-.04.15h-.04v.15c-.02.01-.05.02-.07.04v.07h-.04v.15c-.02.01-.05.02-.07.04-.01.07-.02.15-.04.22-.02.01-.05.02-.07.04v.15h-.04v.07c-.02.01-.05.03-.07.04v.15h-.04c-.01.05-.02.1-.04.15h-.04v.11h-.04c-.01.05-.02.1-.04.15h-.04v.11h-.04v.07h-.04v.11h-.04c-.01.05-.02.1-.04.15h-.04v.15c-.02.01-.05.02-.07.04v.07h-.04v.15c-.02.01-.05.03-.07.04-.01.07-.02.15-.04.22h-.04c-.01.05-.02.1-.04.15h-.04v.11h-.04v.07h-.04v.11h-.04c-.01.05-.02.1-.04.15h-.04v.11h-.04c-.01.05-.02.1-.04.15h-.04v.11h-.04v.07h-.04v.11h-.04v.11c-.02.01-.05.02-.07.04-.01.07-.02.15-.04.22-.02.01-.05.02-.07.04v.15h-.04c-.01.05-.02.1-.04.15h-.04v.11h-.04c-.01.05-.02.1-.04.15h-.04c-.04.12-.07.24-.11.37h-.04v.07h-.04v.11h-.04c-.01.05-.03.1-.04.15h-.04v.15c-.02.01-.05.02-.07.04v.07h-.04v.15c-.02.01-.05.02-.07.04-.01.07-.02.15-.04.22-.02.01-.05.02-.07.04v.15h-.04v.07h-.04c-.08.16-.04.26-.18.37v.04H55.5a.673.673 0 01-.07-.11h-.04c-.01-.06-.02-.12-.04-.18h-.04v-.07h-.04v-.11h-.04v-.11c-.02-.01-.05-.02-.07-.04v-.11h-.04c-.01-.05-.02-.1-.04-.15h-.04v-.15H55v-.07c-.02-.01-.05-.02-.07-.04v-.15h-.04c-.01-.05-.02-.1-.04-.15h-.04v-.11h-.04c-.01-.05-.02-.1-.04-.15h-.04v-.11h-.04v-.07h-.04v-.11h-.04c-.01-.05-.02-.1-.04-.15h-.04v-.11h-.04c-.01-.05-.02-.1-.04-.15h-.04v-.15c-.02-.01-.05-.02-.07-.04-.01-.07-.02-.15-.04-.22-.02-.01-.05-.02-.07-.04-.01-.07-.02-.15-.04-.22-.02-.01-.05-.02-.07-.04v-.15h-.04c-.01-.05-.02-.1-.04-.15h-.04v-.11h-.04c-.01-.05-.02-.1-.04-.15h-.04c-.04-.12-.07-.24-.11-.37h-.04v-.07h-.04v-.11h-.04c-.01-.05-.02-.1-.04-.15h-.04v-.15c-.02-.01-.05-.02-.07-.04v-.07h-.04v-.15c-.02-.01-.05-.03-.07-.04-.01-.07-.02-.15-.04-.22-.02-.01-.05-.03-.07-.04v-.15h-.04v-.07c-.02-.01-.05-.02-.07-.04v-.15h-.04c-.01-.05-.02-.1-.04-.15h-.04v-.11h-.04c-.01-.05-.02-.1-.04-.15h-.04v-.11h-.04v-.07h-.04v-.11h-.04c-.01-.05-.02-.1-.04-.15h-.04v-.11h-.04c-.01-.05-.02-.1-.04-.15h-.04v-.15c-.02-.01-.05-.02-.07-.04-.01-.07-.02-.15-.04-.22a.161.161 0 01-.07-.04c-.01-.07-.02-.15-.04-.22-.02-.01-.05-.02-.07-.04v-.15h-.04c-.01-.05-.02-.1-.04-.15h-.04v-.11h-.04c-.01-.05-.02-.1-.04-.15h-.04v-.11H52c-.01-.05-.02-.1-.04-.15h-.04v-.11h-.04v-.07h-.04v-.11h-.04v-.11c-.02-.01-.05-.02-.07-.04-.01-.07-.02-.15-.04-.22.33-.01.31-.02.29-.03v-.15h-.04v-.07h-.04c-.02-.07-.05-.15-.07-.22h-.11v9.19c-.14.05-.39.04-.58.04h-1.17c-.08-.43-.04-1.01-.04-1.5v-2.67-8.38c.18-.07.5-.04.73-.04h1.54c.02.05.06.05.07.07v.07h.04c.01.06.02.12.04.18h.04v.11h.04c.01.05.02.1.04.15h.04v.15c.02.01.05.02.07.04v.07h.04v.15h.04c.01.05.02.1.04.15h.04v.11h.04v.07h.04v.11h.04c.01.05.02.1.04.15h.04v.11h.04c.01.05.02.1.04.15h.04v.15c.02.01.05.02.07.04.01.07.02.15.04.22h.04c.01.05.02.1.04.15h.04v.11h.04v.07h.04v.11h.04c.01.05.02.1.04.15h.04v.15c.02.01.05.02.07.04v.07h.04v.15c.02.01.05.03.07.04.01.07.02.15.04.22h.04c.01.05.02.1.04.15h.04v.11h.04v.07h.04v.11h.04c.01.05.03.1.04.15h.04v.15c.02.01.05.03.07.04v.07h.04v.15c.02.01.05.02.07.04.01.07.02.15.04.22h.04c.01.06.02.12.04.18h.04c.01.05.02.1.04.15h.04v.11h.04c.01.05.02.1.04.15h.04v.15c.02.01.05.02.07.04.01.07.02.15.04.22.02.01.05.02.07.04.01.07.02.15.04.22.02.01.05.02.07.04v.15h.04c.01.05.02.1.04.15h.04v.11h.04c.01.05.02.1.04.15h.04v.15c.02.01.05.02.07.04.01.07.02.15.04.22.02.01.05.02.07.04v.15h.04c.01.05.02.1.04.15h.04v.11h.04c.01.05.02.1.04.15h.04v.15c.02.01.05.02.07.04.01.07.02.15.04.22.03.01.05.02.07.04.01.07.02.15.04.22.02.01.05.02.07.04v.15h.04c.01.05.02.1.04.15h.04v.11h.04c.01.05.02.1.04.15h.04v.15c.02.01.05.02.07.04.01.07.02.15.04.22.02.01.05.02.07.04v.15h.04v.07c.02.01.05.02.07.04v.15h.04v.07h.04c.02.07.05.15.07.22h.07c.02-.04.07-.06.07-.07v-.11h.04c.01-.05.02-.1.04-.15h.04v-.15c.02-.01.05-.02.07-.04v-.07h.04v-.15c.02-.01.05-.02.07-.04v-.11h.04v-.11h.04v-.07h.04v-.11h.04c.01-.05.02-.1.04-.15h.04v-.11h.04c.01-.05.02-.1.04-.15h.04v-.15c.02-.01.05-.02.07-.04.01-.07.02-.15.04-.22.02-.01.05-.03.07-.04.01-.07.02-.15.04-.22h.04v-.07h.04v-.11h.04c.01-.05.02-.1.04-.15h.04v-.15c.02-.01.05-.02.07-.04v-.07h.04v-.15c.03-.01.05-.03.07-.04.01-.07.02-.15.04-.22.02-.01.05-.02.07-.04v-.15h.04c.01-.05.02-.1.04-.15h.04v-.11h.04c.01-.05.02-.1.04-.15h.04v-.15c.02-.01.05-.03.07-.04.01-.07.02-.15.04-.22.02-.01.05-.02.07-.04.01-.07.02-.15.04-.22h.04v-.07h.04v-.11h.04c.01-.05.02-.1.04-.15h.04v-.15c.02-.01.05-.03.07-.04v-.07h.04v-.15c.02-.01.05-.02.07-.04.01-.07.03-.15.04-.22.02-.01.05-.02.07-.04v-.15h.04c.01-.05.03-.1.04-.15h.04v-.11h.04c.01-.05.02-.1.04-.15h.04v-.15c.02-.01.05-.03.07-.04-.28-.13-.27-.2-.26-.27.02-.01.05-.02.07-.04.01-.07.02-.15.04-.22h.04v-.07h.04v-.11h.04c.01-.05.02-.1.04-.15h.04v-.15c.02-.01.05-.03.07-.04v-.07h.04V8.2c.02-.01.05-.02.07-.04.01-.07.02-.15.04-.22.02-.01.05-.02.07-.04v-.15h.04c.01-.05.02-.1.04-.15h.04v-.11h.04c.01-.05.02-.1.04-.15h.04v-.15c.02-.01.05-.02.07-.04.01-.07.02-.15.04-.22.02-.01.05-.02.07-.04.01-.07.03-.15.04-.22h.04c.01-.06.02-.12.04-.18h.04c.01-.05.02-.1.04-.15h.04v-.11h.04c.01-.05.02-.1.04-.15h.04v-.15c.02-.01.05-.02.07-.04.05-.09-.01-.11.07-.18v-.04c.7.05 1.46.05 2.22.05zM5.6 7.84h.04l.03.19h.04v.15h.04c.02.1.05.21.07.32h.04v.07h.04v.11h.04v.15h.04v.07h.04c.01.08.02.17.04.26 0 .01.03.03.05.04v.15h.04v.11h.04v.07h.04v.18h.04c.01.05.03.1.04.15h.04v.15h.04v.07h.04v.11h.04v.15h.04v.07h.04c.01.08.02.17.04.26.02.01.05.02.07.04v.18h.04c.01.05.02.1.04.15h.04v.18h.04c.01.05.03.1.04.15h.04v.18c.02.01.05.02.07.04v.15h.04v.11h.04v.07h.04v.15h.04v.11h.04v.07h.04v.15h.04c.01.05.02.1.04.15h.04v.18h.04v.07h.04v.11h.04v.15c.03.01.05.03.07.04v.15h.04c-.01.04-.02.07-.04.11H3.79c.01-.18.02-.26.07-.4h.04v-.15h.04v-.07h.04c.01-.07.02-.15.04-.22h.04v-.07h.04v-.18h.04c.01-.05.02-.1.04-.15h.04v-.18h.04c.01-.05.02-.1.04-.15h.04v-.15h.04v-.07h.04v-.11h.04v-.15h.04v-.07h.04v-.15h.04c.01-.05.02-.1.04-.15h.04v-.18h.04c.01-.05.03-.1.04-.15h.04v-.18h.04c.01-.05.02-.1.04-.15h.04v-.15h.04v-.07h.04v-.15h.04V9.8h.04v-.07h.04v-.15h.04v-.07h.04V9.4h.04v-.15h.04c.01-.05.02-.1.04-.15h.04v-.18c-.19-.03-.17-.04-.14-.05v-.15h.04v-.11h.04v-.07h.04c.01-.09.02-.17.04-.26h.04v-.07h.04v-.15h.04c0-.08.02-.17.05-.25.07.02.03-.01.07.03zm36.71 8.46c.04-.16.12-.13.18-.22.01-.05.02-.1.04-.15.02-.01.05-.03.07-.04v-.07h.04v-.11c.04-.02.07-.05.11-.07v-.04h1.68c.03.07.04.14.04.26h-.04c-.01.06-.02.12-.04.18h-.04v.18h-.04v.07c-.02.01-.05.02-.07.04v.15c-.02.01-.05.02-.07.04-.01.05-.03.1-.04.15-.02.01-.05.02-.07.04v.07c-.04.02-.07.05-.11.07-.01.05-.02.1-.04.15-.08.07-.17.15-.26.22-.1.11-.2.22-.29.33h-.07c-.01.03-.02.05-.04.07h-.07c-.03.04-.05.07-.07.11h-.07c-.01.02-.03.05-.04.07h-.07l-.07.07h-.07v.04h-.07v.04h-.07c-.01.03-.02.05-.04.07-.07.01-.15.02-.22.04-.01.02-.02.05-.04.07h-.18v.04c-.05.01-.1.02-.15.04v.04h-.22v.04h-.07v.04c-.16.01-.32.02-.48.04-.59.17-1.53.07-2.01-.11h-.22v-.04c-.05-.01-.1-.03-.15-.04v-.04h-.15v-.04c-.05-.01-.1-.02-.15-.04v-.04h-.11a.161.161 0 00-.04-.07h-.07v-.04h-.11a.161.161 0 00-.04-.07.487.487 0 01-.11-.04v-.04c-.05-.01-.1-.03-.15-.04-.02-.04-.05-.07-.07-.11h-.07c-.02-.04-.05-.07-.07-.11h-.07c-.04-.05-.07-.1-.11-.15-.11-.1-.22-.2-.33-.29v-.07c-.04-.02-.07-.05-.11-.07v-.07c-.04-.02-.07-.05-.11-.07v-.07c-.02-.01-.05-.02-.07-.04v-.07c-.02-.01-.05-.02-.07-.04v-.07l-.07-.07v-.07h-.04v-.07h-.04v-.07a.161.161 0 01-.07-.04c-.01-.07-.02-.15-.04-.22-.02-.01-.05-.03-.07-.04v-.15h-.04v-.11h-.04v-.07h-.04v-.18h-.04v-.11h-.04v-.11h-.04v-.26c-.11-.38-.11-.85-.11-1.35v-.51h.04v-.29h.04v-.15h.04c.01-.13.02-.27.04-.4h.04v-.07h.04v-.22h.04c.01-.05.02-.1.04-.15h.04v-.15h.04c.01-.05.02-.1.04-.15h.04v-.11h.04c.02-.07.05-.15.07-.22h.04v-.07h.04c.01-.05.02-.1.04-.15.02-.01.05-.02.07-.04v-.07c.02-.01.05-.02.07-.04v-.07c.02-.01.05-.03.07-.04v-.07c.05-.04.1-.07.15-.11v-.07c.11-.1.22-.2.33-.29.06-.07.12-.15.18-.22h.07c.04-.05.07-.1.11-.15h.07c-.01-.04.01-.06.02-.09.04-.01.07-.02.11-.04v-.04c.05-.01.1-.03.15-.04.01-.03.02-.05.04-.07.11-.04.22-.07.33-.11v-.04c.05-.01.1-.02.15-.04v-.04h.15v-.04c.05-.01.1-.02.15-.04v-.04h.22v-.04h.07v-.04c.18-.01.37-.02.55-.04v-.04h.29v-.04c.24.06.5.07.76.09v.04c.17.01.34.02.51.04.29.1.59.2.88.29.01.03.02.05.04.07h.07v.04h.11v.04c.04.01.07.03.11.04.01.02.02.05.04.07h.07c.01.03.02.05.04.07h.07c.02.04.05.07.07.11h.07l.15.18h.07l.15.18c.02.01.05.02.07.04v.07c.05.04.1.07.15.11v.07c.04.03.07.05.11.07v.07c.02.01.05.03.07.04v.07c.02.01.05.02.07.04.01.05.02.1.04.15.02.01.05.03.07.04.01.06.02.12.04.18.02.01.05.02.07.04v.11h.04c.01.05.02.1.04.15h.04v.15h.04c.01.05.02.1.04.15h.04v.18h.04v.07h.04c.01.13.02.27.04.4h.04v.11h.04v.33c.1.35.04.9.04 1.32-.16.06-.44.04-.66.04h-5.79c-.06.12-.08.16-.07.37.1.11.02.31.07.48h.04v.15h.04v.07h.04v.15h.04c.01.05.02.1.04.15h.04v.11h.04v.07c.02.01.05.03.07.04.01.05.02.1.04.15.02.01.05.02.07.04v.07c.05.04.1.07.15.11.08.1.17.2.26.29h.07c.02.04.05.07.07.11h.07c.01.02.02.05.04.07.05.01.1.02.15.04v.04h.07v.04h.11v.04c.05.01.1.02.15.04v.04h.22v.04h.07v.04c.28.01.56.02.84.04v-.04h.29v-.04h.11v-.04h.18v-.04h.11v-.04h.07v-.04c.06-.01.12-.02.18-.04.01-.02.02-.05.04-.07.05-.01.1-.02.15-.04.01-.02.03-.05.04-.07h.07c.05-.1.01-.18.17-.22zm53.15-1.1c0 .18-.04.28-.07.4v.22h-.04v.07h-.04V16h-.04v.15c-.02.01-.05.02-.07.04v.11h-.04c-.01.05-.03.1-.04.15h-.04v.11c-.02.01-.05.03-.07.04-.01.05-.02.1-.04.15-.02.01-.05.02-.07.04v.07c-.04.03-.07.05-.11.07V17c-.05.04-.1.07-.15.11v.07c-.07.06-.15.12-.22.18-.01.02-.02.05-.04.07h-.07l-.15.18h-.07c-.02.04-.05.07-.07.11-.05.01-.1.02-.15.04v.04c-.04.01-.07.02-.11.04-.01.03-.02.05-.04.07-.06.01-.12.02-.18.04-.01.03-.02.05-.04.07h-.11v.04c-.05.01-.1.02-.15.04v.04h-.15v.04c-.05.01-.1.02-.15.04v.04h-.22v.04h-.07v.04h-.15v.04h-.33v.04h-.22v.04h-1.03v-.04h-.18v-.04h-.33v-.04h-.15v-.04h-.07v-.04h-.22v-.04c-.05-.01-.1-.03-.15-.04v-.04h-.15v-.04c-.05-.01-.1-.02-.15-.04v-.04h-.11a.161.161 0 00-.04-.07c-.06-.01-.12-.02-.18-.04v-.04c-.04-.01-.07-.03-.11-.04-.01-.02-.02-.05-.04-.07-.05-.01-.1-.03-.15-.04-.01-.02-.02-.05-.04-.07a.487.487 0 01-.11-.04l-.15-.18h-.07c-.08-.1-.17-.2-.26-.29-.04-.02-.07-.05-.11-.07V17c-.05-.04-.1-.07-.15-.11v-.07c-.04-.02-.07-.05-.11-.07v-.07c-.02-.01-.05-.02-.07-.04-.01-.05-.02-.1-.04-.15-.03-.01-.05-.03-.07-.04-.01-.05-.02-.1-.04-.15h-.04v-.07h-.04c-.02-.07-.05-.15-.07-.22h-.04v-.11h-.04v-.07h-.04c-.01-.08-.02-.17-.04-.26h-.04v-.07h-.04v-.15h-.04c-.01-.09-.02-.17-.04-.26h-.04v-.26c-.11-.38-.11-.81-.11-1.32V13h.04v-.18h.04v-.18h.04v-.29h.04c.01-.09.02-.17.04-.26h.04v-.15h.04v-.07h.04c.01-.08.02-.17.04-.26.02-.01.05-.02.07-.04v-.15h.04v-.07c.02-.01.05-.02.07-.04v-.11h.04v-.07c.02-.01.05-.02.07-.04.03-.07.05-.15.07-.22h.04c.01-.04.02-.07.04-.11.03-.01.05-.02.07-.04v-.07c.02-.01.05-.02.07-.04v-.07l.18-.15v-.07c.08-.07.17-.15.26-.22.02-.04.05-.07.07-.11h.07l.15-.18h.07c.01-.02.02-.05.04-.07.04-.01.07-.02.11-.04v-.04h.07c.01-.02.02-.05.04-.07.05-.01.1-.03.15-.04.01-.03.02-.05.04-.07.11-.04.22-.07.33-.11v-.04c.05-.01.1-.02.15-.04v-.04h.15v-.04h.07v-.04h.11v-.04h.18v-.04h.11v-.04c.18-.01.37-.02.55-.04.3-.08.71-.09 1.03 0h.33v.04h.22v.04h.11v.04c.1.01.2.02.29.04v.04h.07v.04h.15v.04c.05.01.1.02.15.04v.04h.15c.01.03.02.05.04.07h.07v.04h.07l.07.07h.07v.04c.04.01.07.02.11.04.01.03.02.05.04.07h.07c.01.02.02.05.04.07h.07c.03.04.05.07.07.11h.07c.18.2.37.39.55.58v.07c.02.01.05.02.07.04v.07c.04.02.07.05.11.07v.11c.02.01.05.02.07.04.01.05.02.1.04.15h.04c.01.05.02.1.04.15h.04v.11h.04v.07h.04v.11h.04v.15h.04v.07h.04v.26h.04v.18s.06.01.04.07c-.04.11-.29.07-.44.07h-1.32c-.01-.04-.03-.07-.04-.11h-.04v-.15h-.04v-.07h-.04v-.15c-.02-.01-.05-.02-.07-.04-.01-.06-.02-.12-.04-.18-.02-.01-.05-.02-.07-.04v-.07c-.04-.02-.07-.05-.11-.07v-.07c-.09-.07-.17-.15-.26-.22-.01-.02-.02-.05-.04-.07h-.07c-.02-.04-.05-.07-.07-.11-.05-.01-.1-.02-.15-.04-.01-.02-.02-.05-.04-.07h-.11v-.04c-.05-.01-.1-.02-.15-.04v-.04h-.15v-.04h-.11v-.04c-.11-.04-.91-.08-1.06-.04v.04h-.18v.04h-.07v.04h-.15v.04c-.05.01-.1.02-.15.04v.04h-.11c-.01.02-.02.05-.04.07-.05.01-.1.02-.15.04-.04.05-.07.1-.11.15h-.07c-.06.07-.12.15-.18.22-.02.01-.05.02-.07.04v.07c-.05.04-.1.07-.15.11-.01.05-.02.1-.04.15-.02.01-.05.02-.07.04-.01.05-.02.1-.04.15-.02.01-.05.02-.07.04v.07h-.04v.11h-.04v.07h-.04c-.01.07-.03.15-.04.22h-.04v.07h-.04v.22h-.04v.15h-.04v.15h-.04v.66h-.04c.01.31.03.61.04.92h.04v.15h.04v.15h.04v.22h.04v.07h.04c.01.07.02.15.04.22h.04v.07h.04v.11h.04v.07c.02.01.05.03.07.04v.11c.02.01.05.03.07.04v.07c.04.02.07.05.11.07v.07c.02.01.05.02.07.04v.07c.02.01.05.02.07.04.07.09.15.17.22.26h.07c.02.04.05.07.07.11h.07c.01.02.02.05.04.07.07.03.15.05.22.07.01.02.03.05.04.07h.15v.04h.07v.04h.11v.04h.29c.25.07.45.07.7 0h.33v-.04h.11v-.04h.07v-.04h.15c.01-.02.02-.05.04-.07h.07v-.04h.11c.01-.02.02-.05.04-.07h.07c.02-.04.05-.07.07-.11h.07c.06-.07.12-.15.18-.22.02-.01.05-.02.07-.04v-.07c.02-.01.05-.02.07-.04v-.07c.02-.01.05-.02.07-.04.02-.07.05-.15.07-.22h.04v-.07h.04v-.15h.04c.03-.07.05-.26.11-.29h1.85zm-75.7-5.12h.07v.07c.08.07.17.15.26.22v.07c.02.01.05.02.07.04v.07c.04.02.07.05.11.07v.07c.02.01.05.02.07.04.01.05.02.1.04.15.02.01.05.02.07.04.01.06.02.12.04.18.02.01.05.02.07.04v.11h.04c.01.05.02.1.04.15h.04v.15c.02.01.05.02.07.04.01.1.02.2.04.29.26.67.42 2 .18 2.82v.37h-.04v.11h-.04v.15h-.04v.18h-.04v.07h-.04c-.01.09-.02.17-.04.26h-.04v.07h-.04v.15h-.04c-.01.05-.02.1-.04.15h-.04v.11c-.02.01-.05.02-.07.04v.07h-.04v.11c-.02.01-.05.02-.07.04-.01.05-.02.1-.04.15h-.04c-.01.04-.02.07-.04.11-.02.01-.05.03-.07.04v.07c-.05.04-.1.07-.15.11v.07l-.18.15v.07c-.02.01-.05.02-.07.04-.04.05-.07.1-.11.15h-.07c-.06.07-.12.15-.18.22h-.07c-.01.02-.02.05-.04.07-.05.01-.1.02-.15.04-.01.03-.02.05-.04.07-.05.01-.1.02-.15.04-.01.03-.02.05-.04.07h-.07v.04c-.05.01-.1.02-.15.04v.04h-.15v.04c-.05.01-.1.02-.15.04v.04h-.18v.04h-.07v.04h-.15v.04h-.33c-.32.09-.67.09-.99 0-.16-.01-.32-.02-.48-.04v-.04h-.07v-.04h-.18v-.04c-.05-.01-.1-.03-.15-.04v-.04h-.15c-.01-.02-.02-.05-.04-.07h-.07v-.04h-.11c-.01-.03-.03-.05-.04-.07h-.07c-.01-.02-.02-.05-.04-.07h-.07a.161.161 0 00-.04-.07h-.07l-.15-.18h-.07c-.06-.07-.12-.15-.18-.22a.161.161 0 01-.07-.04v-.07c-.04-.02-.07-.05-.11-.07v-.07c-.04-.02-.07-.05-.11-.07-.08-.12 0-.17-.18-.22v4.47c-.05.03-.04.03-.07.07-.5-.09-1.32.01-1.76-.04-.1-.29-.04-.81-.04-1.17v-2.49-8.53c.14-.05.39-.04.59-.04h1.17c.1.28.04 1.06.04 1.43.04.03 0-.01.04.04.12-.07.14-.18.22-.29.02-.01.05-.02.07-.04v-.07c.11-.1.22-.2.33-.29.04-.05.07-.1.11-.15h.07c.01-.02.02-.05.04-.07h.07c.02-.04.05-.07.07-.11h.07c.01-.03.02-.05.04-.07.07-.02.15-.05.22-.07v-.04c.07-.02.15-.05.22-.07v-.04h.15c.01-.03.02-.05.04-.07.1-.01.2-.02.29-.04v-.04h.11v-.04h.22v-.04c.29-.01.59-.02.88-.04v.04c.21.01.42.02.62.04v.04h.07v.04h.18v.04h.11v.04h.07v.04h.15v.04h.07c.01.02.02.05.04.07.06.01.12.03.18.04.01.02.02.05.04.07h.11c.01.03.02.05.04.07h.07c.02.04.05.07.07.11.05.01.1.02.15.04.07.08.15.17.22.26.04.01.07.02.11.04.05-.06.05-.04.05-.01zm4.65 11.27h-.07v.04c-.06.01-.06-.04-.07-.04h-1.69c-.11-.29-.04-.81-.04-1.17v-2.49-8.53c.14-.05.39-.04.59-.04h1.17c.1.28.04 1.09.04 1.46h.07c.02-.04.05-.07.07-.11h.04v-.07c.02-.01.05-.03.07-.04v-.07c.04-.02.07-.05.11-.07v-.07c.08-.07.17-.15.26-.22.04-.05.07-.1.11-.15h.07c.02-.04.05-.07.07-.11h.07c.01-.02.02-.05.04-.07h.07c.02-.04.05-.07.07-.11h.11c.01-.02.02-.05.04-.07h.07v-.04h.11c.01-.02.02-.05.04-.07h.07v-.04h.15v-.04h.07v-.04h.11v-.04h.18v-.04h.07v-.04c.2-.01.39-.02.59-.04v-.04c.29.01.59.02.88.04v.04h.26v.04h.07v.04h.18v.04h.11v.04h.07v.04h.15v.04c.05.01.1.02.15.04v.04h.11c.01.03.02.05.04.07.05.01.1.02.15.04.01.03.02.05.04.07h.07v.04h.07c.02.04.05.07.07.11h.07c.02.04.05.07.07.11h.07c.04.05.07.1.11.15.1.09.2.17.29.26v.07c.05.04.1.07.15.11v.07c.02.01.05.03.07.04.01.04.02.07.04.11h.04v.07c.02.01.05.02.07.04.01.05.02.1.04.15.02.01.05.02.07.04.01.05.02.1.04.15h.04c.01.05.02.1.04.15h.04v.11h.04v.07h.04c.01.07.02.15.04.22.02.01.05.03.07.04v.18h.04v.11h.04v.07h.04v.26h.04v.11h.04v.15h.04V13h.04c.01.4.02.8.04 1.21h-.04v.26h-.04v.48h-.04v.15h-.04v.11h-.04v.26h-.04v.07h-.04c-.01.1-.02.2-.04.29-.02.01-.05.02-.07.04v.11h-.04v.11h-.04v.07h-.04v.11h-.04v.07c-.03.01-.05.02-.07.04v.11h-.04v.07c-.02.01-.05.02-.07.04v.11c-.04.02-.07.05-.11.07v.07c-.02.01-.05.03-.07.04-.01.05-.02.1-.04.15l-.18.15v.07c-.09.07-.17.15-.26.22-.02.04-.05.07-.07.11h-.07l-.15.18h-.07c-.01.02-.02.05-.04.07h-.07c-.02.04-.05.07-.07.11-.07.02-.15.05-.22.07v.04c-.07.02-.15.05-.22.07v.04h-.11v.04h-.07v.04h-.11v.04h-.15v.04h-.11v.04h-.15v.04h-.33c-.32.09-.67.09-.99 0h-.33v-.04h-.11v-.04c-.1-.01-.2-.02-.29-.04v-.04c-.05-.01-.1-.03-.15-.04v-.04h-.11v-.04c-.05-.01-.1-.02-.15-.04v-.04h-.07a.161.161 0 00-.04-.07c-.05-.01-.1-.02-.15-.04a.161.161 0 00-.04-.07h-.07c-.02-.04-.05-.07-.07-.11h-.07c-.02-.04-.05-.07-.07-.11h-.07l-.15-.18c-.02-.01-.05-.02-.07-.04v-.07a.673.673 0 00-.11-.07v-.07a.673.673 0 00-.11-.07v-.07h-.04v-.07h-.04a.487.487 0 00-.04-.11c-.07.02-.03 0-.07.04-.05.06-.04.21-.04.33v.84c.01 1.04.01 2.14.01 3.24zm56.66-11.24h.07c.02.08.1.2.15.26.02.01.05.02.07.04.02.07.05.15.07.22h.04v.07c.02.01.05.02.07.04.01.07.02.15.04.22h.04v.07h.04v.15c.06.18.1.3.11.55-.14.05-.39.04-.58.04h-1.1c-.04-.04 0-.01-.07-.04-.02-.05-.02-.09-.04-.15h-.04v-.18h-.04v-.07c-.02-.01-.05-.02-.07-.04v-.11c-.02-.01-.05-.02-.07-.04v-.07c-.02-.01-.05-.02-.07-.04-.06-.07-.12-.15-.18-.22h-.07c-.01-.02-.02-.05-.04-.07-.05-.01-.1-.02-.15-.04-.01-.03-.03-.05-.04-.07-.07-.01-.15-.02-.22-.04v-.04h-.07v-.04c-.15-.01-.29-.02-.44-.04v-.04c-.24-.07-.69.03-.84.07h-.22v.04h-.07v.04c-.07.01-.15.02-.22.04-.01.03-.03.05-.04.07-.05.01-.1.02-.15.04-.01.02-.02.05-.04.07h-.07c-.04.05-.07.1-.11.15h-.04v.07c-.02.01-.05.02-.07.04v.07h-.04v.07c-.02.01-.05.02-.07.04v.18c-.09.1-.01.42 0 .55.09.06.11.18.18.26.07.07.13.09.22.15.01.02.03.05.04.07h.07c.01.03.02.05.04.07.06.01.12.02.18.04.01.02.02.05.04.07h.15v.04h.07v.04h.11v.04h.18v.04h.07v.04h.22v.04h.15v.04h.11v.04h.22v.04h.11v.04c.12.01.24.02.37.04v.04h.11v.04c.12.01.24.02.37.04v.04h.07v.04h.18v.04h.15v.04h.07v.04c.08.01.17.02.26.04.01.02.02.05.04.07h.15v.04c.05.01.1.02.15.04v.04c.11.04.22.07.33.11.01.02.02.05.04.07.05.01.1.03.15.04.01.02.02.05.04.07.04.01.07.02.11.04v.04a.3.3 0 00.15.07v.07h.07c.01.04.02.07.04.11.05.04.1.07.15.11.01.05.02.1.04.15.02.01.05.03.07.04v.07h.04v.11c.03.01.05.02.07.04.01.1.02.2.04.29h.04v.11H82c.01.26.02.51.04.77H82v.22h-.04v.11h-.04v.22h-.04c-.01.05-.03.1-.04.15h-.04c-.01.06-.02.12-.04.18-.02.01-.05.02-.07.04v.11c-.04.02-.07.05-.11.07v.07c-.02.01-.05.02-.07.04v.07l-.18.15c-.08.1-.17.2-.26.29H81c-.01.02-.02.05-.04.07h-.07c-.01.02-.02.05-.04.07h-.07c-.01.02-.02.05-.04.07-.05.01-.1.02-.15.04-.01.03-.03.05-.04.07h-.07v.04c-.05.01-.1.03-.15.04v.04h-.11v.04c-.05.01-.1.02-.15.04v.04c-.09.01-.17.03-.26.04v.04h-.07v.04h-.22v.04h-.07v.04h-.15v.04h-.37v.04h-.22v.04c-.18.05-.93 0-1.06-.04h-.22v-.04h-.33v-.04h-.15v-.04h-.11v-.04h-.22v-.04c-.05-.01-.1-.03-.15-.04v-.04h-.15v-.04c-.05-.01-.1-.02-.15-.04v-.04h-.11a.161.161 0 00-.04-.07c-.06-.01-.12-.02-.18-.04v-.04c-.04-.01-.07-.03-.11-.04-.01-.02-.02-.05-.04-.07h-.07v-.04a.487.487 0 01-.11-.04c-.01-.02-.02-.05-.04-.07h-.07c-.06-.07-.12-.15-.18-.22-.09-.07-.17-.15-.26-.22-.3-.42-.48-.85-.58-1.46.04-.01.07-.02.11-.04.08-.07.33-.04.48-.04.42 0 .92-.03 1.28.04l.04.04V16c.02.01.05.02.07.04v.11h.04v.07h.04v.07c.02.01.05.02.07.04v.07c.13.12.27.24.4.37.05.01.1.03.15.04.01.02.03.05.04.07h.15v.04h.07v.04c.1.01.2.02.29.04v.04h.15v.04h.8c.15 0 .23-.04.33-.07h.18v-.04h.11v-.04h.07v-.04h.15c.01-.02.02-.05.04-.07.05-.01.1-.03.15-.04.01-.02.02-.05.04-.07h.07c.04-.05.07-.1.11-.15.04-.03.07-.05.11-.07.01-.05.02-.1.04-.15.02-.01.05-.02.07-.04v-.11c.03-.08.11-.29.07-.44h-.04v-.22h-.04c-.02-.07-.05-.15-.07-.22-.04-.02-.07-.05-.11-.07-.01-.02-.02-.05-.04-.07h-.07a.673.673 0 01-.07-.11h-.11c-.01-.02-.02-.05-.04-.07h-.07v-.04h-.11v-.04h-.07v-.04c-.09-.01-.17-.03-.26-.04v-.04h-.07v-.04c-.11-.01-.22-.02-.33-.04v-.04h-.07v-.04h-.22v-.04h-.11v-.04h-.11v-.04h-.26v-.04h-.07v-.04h-.15v-.04h-.22v-.04h-.07v-.04h-.18v-.04h-.15v-.04h-.11v-.04h-.18v-.04c-.05-.01-.1-.02-.15-.04v-.04h-.15v-.04c-.05-.01-.1-.02-.15-.04v-.04h-.11v-.04c-.05-.01-.1-.02-.15-.04v-.04h-.07c-.01-.02-.02-.05-.04-.07-.05-.01-.1-.02-.15-.04-.01-.02-.02-.05-.04-.07h-.07a.161.161 0 00-.04-.07h-.07c-.04-.05-.07-.1-.11-.15h-.07c-.01-.02-.02-.05-.04-.07-.05-.04-.1-.07-.15-.11v-.07l-.18-.15c-.01-.05-.02-.1-.04-.15-.02-.01-.05-.02-.07-.04v-.11h-.04c-.01-.05-.02-.1-.04-.15h-.04c-.11-.28-.11-.6-.11-.99v-.33c.21-.69.46-1.13.99-1.5.02-.04.05-.07.07-.11h.07c.01-.02.03-.05.04-.07.05-.01.1-.03.15-.04.01-.03.02-.05.04-.07.06-.01.12-.02.18-.04.01-.03.02-.05.04-.07h.15v-.04c.05-.01.1-.02.15-.04v-.04h.15V9.2h.07v-.04h.11v-.04h.22v-.04h.11v-.04h.26V9h.37v-.04c.19-.05.71 0 .84.04.21.01.42.02.62.04v.04h.11v.04c.1.01.19.02.29.04v.04h.07v.04h.15v.04c.05.01.1.02.15.04v.04c.11.04.22.07.33.11.01.03.02.05.04.07.05.01.1.02.15.04.01.02.02.05.04.07h.07c.03.04.05.07.07.11h.07c.03.04.05.07.07.11.1.1.18.09.21.24zM64.9 9.12h1.83c.05.14.04.39.04.59v5.27c.1.12.02.31.07.48h.04v.11h.04v.11h.04v.11c.02.01.05.02.07.04.01.06.02.12.04.18.02.01.05.02.07.04v.07h.04c.04.05.05.06.07.15.12.03.17.11.26.18v.04c.05.01.1.02.15.04.01.02.02.05.04.07h.11v.04c.05.01.1.02.15.04v.04h.18v.04h.11v.04h.22v.04c.26-.01.51-.02.77-.04v-.04h.11v-.04h.22v-.04c.05-.01.1-.02.15-.04v-.04h.11c.01-.02.02-.05.04-.07.05-.01.1-.02.15-.04.01-.03.02-.05.04-.07h.07v-.04c.06-.05.09-.08.18-.11v-.07h.07c.01-.04.02-.07.04-.11.04-.02.07-.05.11-.07v-.07c.02-.01.05-.03.07-.04.01-.05.02-.1.04-.15.02-.01.05-.02.07-.04v-.11h.04c.01-.05.02-.1.04-.15h.04v-.15h.04v-.07h.04v-.15h.04v-.29h.04v-1.83V9.2c.3-.15 1.4-.08 1.87-.07.08.46.04 1.09.04 1.61v5.96c0 .52.05 1.15-.04 1.61H71.1c-.08-.43-.04-1.01-.04-1.5h-.11c-.02.07-.05.15-.07.22h-.04v.07c-.04.03-.07.05-.11.07v.07c-.02.01-.05.03-.07.04v.07c-.07.06-.15.12-.22.18-.09.1-.17.2-.26.29h-.07c-.01.03-.02.05-.04.07H70c-.02.04-.05.07-.07.11h-.11v.04h-.07c-.01.02-.02.05-.04.07h-.11v.04c-.05.01-.1.02-.15.04v.04h-.18v.04h-.07v.04h-.11v.04h-.33c-.35.1-.82.1-1.17 0h-.29v-.04h-.11v-.04h-.11v-.04h-.18v-.04c-.05-.01-.1-.03-.15-.04v-.04h-.11c-.01-.02-.02-.05-.04-.07-.06-.01-.12-.03-.18-.04a.161.161 0 00-.04-.07h-.07c-.01-.02-.03-.05-.04-.07h-.07a.161.161 0 00-.04-.07h-.07c-.04-.05-.07-.1-.11-.15-.11-.1-.22-.2-.33-.29v-.07c-.04-.02-.07-.05-.11-.07v-.07c-.02-.01-.05-.02-.07-.04-.01-.05-.03-.1-.04-.15-.02-.01-.05-.02-.07-.04v-.11c-.02-.01-.05-.02-.07-.04-.01-.06-.02-.12-.04-.18h-.04v-.07h-.04c-.01-.09-.03-.17-.04-.26h-.04v-.07h-.04V16h-.04c-.01-.13-.03-.27-.04-.4h-.04v-2.12c-.03-1.45-.03-2.9-.03-4.36zm18.74 0h1.83c.08.22.04.63.04.91v8.24c-.15.05-.42.04-.62.04h-1.24c-.07-.2-.04-.55-.04-.81v-1.65-4.68-1.35c-.01-.23-.03-.53.03-.7zm-42.54 1.5h.15c.01.03.02.05.04.07.07.01.15.02.22.04.01.02.03.05.04.07h.11c.01.02.03.05.04.07.04.01.07.02.11.04.02.04.05.07.07.11h.07c.04.05.07.1.11.15.02.01.05.02.07.04v.07l.18.15c.01.05.02.1.04.15.02.01.05.02.07.04v.11c.02.01.05.02.07.04v.11h.04v.11h.04v.07h.04v.15h.04c.04.13-.01.24.07.33 0 .13-.01.25-.04.33h-3.15c-.37 0-1.15.07-1.43-.04.03-.2.05-.39.07-.59h.04v-.07h.04v-.15h.04c.01-.05.02-.1.04-.15h.04v-.11c.02-.01.05-.02.07-.04.01-.05.02-.1.04-.15.02-.01.05-.02.07-.04v-.07c.04-.02.07-.05.11-.07v-.07c.02-.01.05-.02.07-.04.07-.09.15-.17.22-.26h.07c.02-.04.05-.07.07-.11h.07c.01-.02.02-.05.04-.07.07-.03.15-.05.22-.07.01-.02.02-.05.04-.07h.15v-.04h.07v-.04c.15-.02.29-.05.44-.07v-.04c.41 0 .7.02.98.11zm-24.01 0v.04h.11v.04h.22v.04c.05.01.1.02.15.04v.04h.11c.01.02.02.05.04.07.07.02.15.05.22.07.01.02.02.05.04.07h.07l.15.18h.07l.07.07v.07l.18.15c.01.04.02.07.04.11.02.01.05.03.07.04v.11c.03.01.05.03.07.04.01.05.02.1.04.15h.04c.01.05.03.1.04.15h.04v.11h.04v.07h.04c.01.08.03.17.04.26h.04v.07h.04v.29c.12.39.17 1.07.04 1.5v.15h-.04v.29h-.04v.07h-.04c-.01.09-.02.17-.04.26h-.04v.07h-.04v.11h-.04c-.01.05-.02.1-.04.15h-.04c-.01.05-.02.1-.04.15-.03.01-.05.02-.07.04-.01.05-.02.1-.04.15-.02.01-.05.02-.07.04v.07l-.18.15v.07c-.04.02-.07.05-.11.07v.04h-.07c-.04.05-.07.1-.11.15h-.07c-.01.03-.02.05-.04.07-.05.01-.1.02-.15.04-.01.02-.02.05-.04.07h-.11v.04c-.05.01-.1.02-.15.04v.04h-.18v.04h-.07v.04h-.15v.04c-.13.04-.86 0-.95-.04v-.04h-.07v-.04h-.18v-.04c-.05-.01-.1-.02-.15-.04v-.04c-.05-.01-.1-.02-.15-.04-.01-.02-.03-.05-.04-.07h-.07c-.01-.03-.03-.05-.04-.07h-.07c-.02-.04-.05-.07-.07-.11h-.07c-.01-.02-.02-.05-.04-.07-.07-.06-.15-.12-.22-.18V16c-.04-.02-.07-.05-.11-.07v-.07c-.02-.01-.05-.02-.07-.04-.01-.05-.03-.1-.04-.15-.03-.01-.05-.03-.07-.04-.04-.11-.07-.22-.11-.33h-.04v-.07h-.04c-.01-.09-.03-.17-.04-.26h-.04v-.07h-.04v-.18c-.1-.32-.11-.66-.11-1.1 0-.36.03-.58.11-.84v-.18h.04v-.07h.04c.01-.09.02-.17.04-.26h.04v-.07h.04c.04-.11.07-.22.11-.33.03-.01.05-.03.07-.04.01-.05.02-.1.04-.15.02-.01.05-.02.07-.04v-.07c.05-.04.1-.07.15-.11v-.07c.02-.01.05-.02.07-.04l.15-.18h.07c.04-.05.07-.1.11-.15h.07c.01-.03.02-.05.04-.07.11-.04.22-.07.33-.11v-.04c.05-.01.1-.02.15-.04v-.04c.13-.05.23.01.33-.07.25-.03.51-.03.76-.03zm10.14 0v.04h.11v.04h.22v.04c.05.01.1.02.15.04v.04c.06.01.12.02.18.04.01.02.02.05.04.07h.11c.02.04.05.07.07.11h.07c.04.05.07.1.11.15h.07v.04c.05.04.1.07.15.11v.07l.18.15v.07c.02.01.05.03.07.04.01.05.02.1.04.15.02.01.05.02.07.04v.07h.04v.11c.02.01.05.03.07.04.01.07.02.15.04.22h.04v.07h.04v.18h.04v.07h.04v.15h.04v.29h.04c.04.14.09.96.04 1.13h-.04v.22h-.04v.29h-.04v.15h-.04v.07h-.04v.18h-.04v.07h-.04c-.01.07-.02.15-.04.22-.02.01-.05.02-.07.04-.01.06-.02.12-.04.18-.02.01-.05.02-.07.04-.01.05-.02.1-.04.15-.02.01-.05.02-.07.04v.07c-.05.04-.1.07-.15.11v.07l-.18.15c-.01.02-.02.05-.04.07h-.07c-.02.04-.05.07-.07.11h-.07c-.01.03-.02.05-.04.07-.05.01-.1.02-.15.04-.01.02-.02.05-.04.07-.06.01-.12.02-.18.04-.01.02-.02.05-.04.07h-.18v.04h-.11v.04h-.15v.04c-.14.04-.82 0-.91-.04v-.04h-.11v-.04h-.18c-.01-.02-.02-.05-.04-.07-.06-.01-.12-.03-.18-.04-.01-.02-.02-.05-.04-.07-.05-.01-.1-.02-.15-.04a.161.161 0 00-.04-.07h-.07c-.02-.04-.05-.07-.07-.11h-.07c-.01-.02-.02-.05-.04-.07l-.18-.15v-.07c-.04-.02-.07-.05-.11-.07v-.07c-.02-.01-.05-.02-.07-.04a.487.487 0 00-.04-.11h-.04c-.01-.05-.02-.1-.04-.15h-.04v-.07c-.02-.01-.05-.03-.07-.04v-.11h-.04c-.01-.05-.03-.1-.04-.15h-.04v-.15h-.04v-.11h-.04v-.11h-.04v-.22h-.04v-.15h-.04v-.33c-.04-.14-.09-.69-.04-.88h.04v-.33h.04v-.11h.04c.01-.11.02-.22.04-.33h.04v-.07h.04v-.18h.04c.01-.05.02-.1.04-.15h.04v-.11c.02-.01.05-.03.07-.04.02-.07.05-.15.07-.22.02-.01.05-.02.07-.04v-.07c.02-.01.05-.02.07-.04v-.07c.04-.02.07-.05.11-.07v-.07c.02-.01.05-.02.07-.04l.15-.18h.07c.02-.04.05-.07.07-.11h.07c.02-.04.05-.07.07-.11.11-.04.22-.07.33-.11v-.04c.05-.01.1-.02.15-.04v-.04c.15-.05.22.03.33-.07h.8z"
    fill-rule="evenodd" clip-rule="evenodd"></path>
</svg>