<svg xmlns="http://www.w3.org/2000/svg" xmlns:xlink="http://www.w3.org/1999/xlink" viewBox="0 0 80 23">
  <path
    d="M13.15 1.29v1.12h-.08c-.03.21-.05.43-.08.64-.58 1.47-1.84 2.9-3.92 2.88V4.89c.47-1.57 1.14-2.4 2.48-3.12v-.08h.16c.4-.21.81-.4 1.44-.4zm9.1 4.29h1.34c.24.37.34.11.49.61.27.23.25.58.24 1.1-.34.3-.18.58-.73.73-.23.24-.62.25-1.1.24-.22-.26-.53-.29-.72-.61-.26-.25-.25-.7-.24-1.22.24-.2.11-.31.24-.49.12-.16.3-.07.48-.36zm3.78.36h10.6c-.04.12-.08.24-.12.37l.12.12h-.12v.12h.12v.85c-.03.17-.12-.05-.12.12h.12v.37h-4.26v12.43h-2.19V7.89h-4.14c-.01-.65-.01-1.3-.01-1.95zm32.41 14.38h-2.31v-6.95c-.09-.3-.29-.63-.37-.97-.16-.12-.33-.24-.49-.37v-.12c-.2-.14-.28 0-.49-.24-.69-.01-1.29.07-1.83.12v.12c-.12.04-.24.08-.37.12l-.73.97v.37h-.12v6.95h-2.31v-9.14h-.12V9.96h2.07v1.58h.24c.06-.24.32-.73.49-.85h.24c.08-.12.16-.24.24-.37h.24v-.12c.16-.04.32-.08.49-.12v-.12h.37v-.12h.61v-.12c1.07-.3 2.96.75 3.29 1.22 1.29 1.81.9 6.3.86 9.38zm11.82-4.63h-7.07c.24 1.48.54 2.11 1.71 2.68v.12l.73.12c.37.13 1.52.28 2.07.12v-.12h.73v-.12l.73-.12v-.12c.17-.04 0 .03.12.12.18.19.35 1.07.37 1.46-.12.04-.24.08-.37.12-.61.62-3.92.6-4.87.24h-.37v-.12c-.24-.08-.49-.16-.73-.24v-.12h-.24c-.08-.12-.16-.24-.24-.37h-.24c-.12-.16-.24-.32-.37-.49h-.12v-.24l-.24-.12v-.24l-.24-.12-.12-.61h-.12v-.24h-.12v-.49c-.51-1.58-.1-3.76.61-4.87l.24-.12v-.24c.12-.08.24-.16.37-.24l.73-.85h.24v-.12c.24-.08.49-.16.73-.24v-.12c.38-.16 1.96-.42 2.56-.24v.12h.61v.12h.37v.12h.24v.12h.24l.12.24h.24c.12.16.24.32.37.49 1.15 1.14 1.36 2.38 1.33 4.73zm8.65-5.36c-.16.57-.32 1.14-.49 1.71h-.12c-.22-.33-1.88-.9-2.68-.61v.12l-.49.12c-.07.13-.21.2-.24.24v.24h-.12v.97c.3.16.41.47.61.61.24.08.49.16.73.24v.12l.73.12v.12c.24.08.49.16.73.24v.12c.12.04.24.08.37.12l.12.24h.24v.12c.12.08.24.16.37.24v.24l.24.12.12.49h.12c.1.22.24 1.34.12 1.71-.09.28-.29.59-.37.98l-.73.61-.12.24c-.24.08-.49.16-.73.24v.12c-1.25.54-4.44.3-5.12-.49.17-.18.43-1.25.49-1.58h.12c.6.72 3.43 1.12 4.02.12.13-.14.38-.72.24-1.1h-.12v-.24h-.12v-.24l-.24-.12v-.12h-.24l-.12-.24-.49-.12v-.12l-.73-.12v-.12c-.24-.08-.49-.16-.73-.24v-.12h-.24l-.12-.24h-.24c-.16-.2-.32-.41-.49-.61l-.24-.12v-.24l-.24-.12c-.1-.2-.24-1.59-.12-1.95.09-.27.29-.51.37-.85.48-.29.81-.86 1.34-1.1h.37c.39-.15 1.62-.56 2.32-.37v.12h.73c.35.14.75.4 1.19.5zm-57.14-.37h2.32v10.36h-2.32V9.96zm15.35 0h2.31v6.46h.12v.73h.12l.12.61.73.61v.12h.37c.56.21 1.13.06 1.71 0v-.12c.12-.04.24-.08.37-.12l.73-.97v-.37h.12V9.96h2.31c-.01 3.43-.04 7.13.12 10.36h-2.07l-.12-1.58h-.12v.12c-.32.37-.65.73-.97 1.1-.24.08-.49.16-.73.24v.12c-.2.08-1.66.33-1.95.24v-.12h-.73v-.12h-.24v-.12h-.37l-.12-.24h-.24c-.12-.16-.24-.33-.37-.49l-.24-.12c-1.27-1.8-.88-6.33-.86-9.39zm27.54 4.15c-.43 0-1.11.09-1.34-.12h-.12c.13-.29.1-.64.24-.98h.12c.04-.16.08-.32.12-.49h.12v-.24h.12c.16-.2.32-.41.49-.61.67-.16 1.11-.55 1.95-.24.35.13.38-.03.61.24.74.19 1.13 1.4 1.1 2.44h-3.41zM2.36 7.69h.16c.13-.16.27-.32.4-.48h.16c.02-.05.05-.11.08-.16h.16c.02-.05.05-.11.08-.16h.16v-.08c.11-.03.21-.05.32-.08v-.08c.13-.03.27-.05.4-.08v-.08h.24v-.08h.32v-.08h.48v-.08h1.04v.08h.4v.08H7v.08h.24v.08h.24v.08h.24v.08h.16v.08c.16.03.32.05.48.08v.08h.16v.08c.36.03.74.05 1.11.08v-.08c.16-.03.32-.05.48-.08v-.08h.16v-.08h.24v-.08h.16v-.08h.24v-.08h.24v-.08h.24v-.08h.24v-.08h.32c.19-.06.9-.25 1.2-.16v.08c.37.03.75.05 1.12.08v.08c.16.03.32.05.48.08v.08h.16v.08c.13.03.27.05.4.08.03.05.05.11.08.16.11.03.21.05.32.08.03.05.05.11.08.16h.16c.11.13.21.27.32.4.17.17.71.51.56.72-.09.11-.22.15-.32.24-.03.05-.05.11-.08.16h-.16c-.11.13-.21.27-.32.4-.05.03-.11.05-.16.08v.16c-.11.08-.21.16-.32.24v.16c-.05.03-.11.05-.16.08-.03.11-.05.21-.08.32h-.08c-.03.11-.05.21-.08.32h-.08v.24h-.08v.24h-.08v.32h-.08v.56h-.08v.64h.08v.64h.08v.32h.08v.24h.08v.24h.08v.16h.08c.05.16.11.32.16.48.05.03.11.05.16.08v.16c.11.08.21.16.32.24v.16h.08c.05.08.11.16.16.24h.16c.11.13.21.27.32.4h.16c.03.05.05.11.08.16h.16v.08h.16c.03.05.05.11.08.16h.24c.1.05-.03.04.08.08-.07.17-.18.41-.24.56v.24h-.08c-.03.11-.05.21-.08.32h-.08v.16h-.08c-.03.13-.05.27-.08.4-.05.03-.11.05-.16.08-.05.16-.11.32-.16.48-.05.03-.11.05-.16.08-.03.11-.05.21-.08.32-.08.05-.16.11-.24.16v.16c-.05.03-.11.05-.16.08v.16h-.08c-.03.08-.05.16-.08.24-.05.03-.11.05-.16.08v.16c-.11.08-.21.16-.32.24v.16c-.35.32-.69.64-1.04.96l-.72.24v.08h-.56v.08c-.35-.05-.69-.11-1.04-.16v-.08c-.16-.03-.32-.05-.48-.08v-.08h-.16v-.08h-.24v-.08h-.16v-.08c-.4-.17-.95-.16-1.52-.16h-.64v.08c-.27.05-.53.11-.8.16v.08h-.16v.08h-.24v.08h-.16v.08c-.16.03-.32.05-.48.08v.08h-.4c-.13.04-.55.16-.8.08v-.08c-.22-.08-.46-.05-.64-.16-.03-.05-.05-.11-.08-.16h-.16c-.03-.05-.05-.11-.08-.16h-.16c-.05-.08-.11-.16-.16-.24-.21-.19-.43-.37-.64-.56v-.16c-.1-.09-.21-.17-.31-.25v-.16c-.08-.05-.16-.11-.24-.16v-.16c-.06-.03-.11-.05-.16-.08v-.16c-.08-.05-.16-.11-.24-.16-.03-.11-.05-.21-.08-.32-.05-.03-.11-.05-.16-.08-.03-.11-.05-.21-.08-.32-.05-.03-.11-.05-.16-.08-.03-.11-.05-.21-.08-.32h-.08v-.16h-.08c-.05-.16-.11-.32-.16-.48H1.8v-.24h-.08c-.03-.11-.05-.21-.08-.32h-.08c-.03-.16-.05-.32-.08-.48H1.4v-.16h-.08v-.32h-.08v-.24h-.08v-.24h-.08v-.32H1c-.03-.27-.05-.53-.08-.8H.84v-.48H.76v-.88H.68v-.88h.08v-.88h.08v-.4h.08c.03-.21.05-.43.08-.64h.08v-.24h.08c.03-.13.05-.27.08-.4h.08c.02-.1.05-.2.08-.31h.08c.02-.11.05-.21.08-.32.05-.03.1-.05.16-.08v-.16c.05-.03.11-.05.16-.08v-.16h.08c.15-.18.33-.3.4-.56z"
    fill-rule="evenodd" clip-rule="evenodd"></path>
</svg>