<svg xmlns="http://www.w3.org/2000/svg" xmlns:xlink="http://www.w3.org/1999/xlink" id="link_jihen" viewBox="0 0 27 23">
  <path d="M16.77 14l.61 1.05c3.42-2.75 7.76-2 8.9-1.73-.29-.92-.67-1.79-1.14-2.61-1.02-.12-5.21-.33-8.37 3.29z"></path>
  <path d="M16.09 12.81l.51.89c1.64-2.02 4.15-3.77 7.95-3.93-.51-.74-1.08-1.42-1.73-2.03-.83.24-4.26 1.44-6.73 5.07z">
  </path>
  <path
    d="M15.29 11.22l.01.24.55.96c1.27-2.07 3.24-4.16 6.27-5.31-.65-.55-1.36-1.03-2.11-1.45-.61.43-3.03 2.31-4.72 5.56zM15.25 10.48c.84-1.76 2.11-3.67 3.97-5.22-.68-.32-1.38-.57-2.12-.77-.3.41-1.17 1.7-1.99 3.67l.14 2.32zM17.6 15.45l.59 1.03c3.6-1.59 7.83.25 8.67.65-.01-.89-.1-1.75-.28-2.59-.78-.31-5.29-1.87-8.98.91zM15.05 7.04c.38-.97.86-1.93 1.44-2.7-.53-.12-1.06-.2-1.61-.25l.17 2.95zM11.16 12.44l.57-.99.01-.17C10.05 7.99 7.6 6.1 6.99 5.66c-.75.41-1.46.9-2.11 1.44 3.04 1.16 5.01 3.26 6.28 5.34zM8.25 17.51l.29-.51c-3.59-1.34-7.62.83-8.38 1.27.09 1.21.35 2.37.74 3.46l.12-.12c4.11-4.47 7.41-3.36 7.78-3.21l-.55-.89z">
  </path>
  <path
    d="M8.84 16.49l.59-1.02c-3.69-2.8-8.22-1.24-9.02-.93-.17.84-.27 1.7-.28 2.59.85-.41 5.1-2.25 8.71-.64zM18.49 16.99l.3.52-.55.87c.56-.2 3.76-1.09 7.73 3.23l.12.12c.39-1.09.64-2.26.74-3.46-.76-.44-4.76-2.6-8.34-1.28zM11.78 10.55l.13-2.3C11.09 6.22 10.2 4.9 9.9 4.49c-.73.2-1.44.46-2.12.77 1.89 1.56 3.16 3.51 4 5.29zM12.16 4.08c-.56.05-1.11.14-1.65.25.6.8 1.09 1.78 1.48 2.79l.17-3.04zM10.42 13.73l.51-.89C8.46 9.18 5.01 7.98 4.17 7.73c-.64.62-1.22 1.3-1.72 2.03 3.82.18 6.33 1.93 7.97 3.97z">
  </path>
  <path
    d="M9.65 15.07l.6-1.05c-3.16-3.65-7.37-3.44-8.39-3.32-.47.82-.85 1.7-1.14 2.61 1.15-.25 5.51-1.01 8.93 1.76zM13.52 2.16l1.13-.89-1.13 2.43-1.12-2.43 1.12.89zM8.85 17.5l2.91-5.06-.49 8.89-2.42-3.83zm6.93 3.83l-.49-8.89 2.91 5.06-2.42 3.83zm-2.26-2l-1.77 2.01 1-18.43.77 1.75.76-1.75 1 18.43-1.76-2.01z">
  </path>
</svg>