<svg xmlns="http://www.w3.org/2000/svg" xmlns:xlink="http://www.w3.org/1999/xlink" id="link_st_line"
  viewBox="0 0 103 27">
  <path
    d="M7.72 1.57h.45c.01.02.02.03.03.05h.08l.03.06h.14l.03.06h.14c.02.03.04.06.05.08h.08l.03.06h.14l.03.06h.17V2h.11v.06h.17c.02 0 .03.02.03.04h.09l.03.06h.14c.01.02.02.03.02.05h.14l.03.06h.08c.02.02.03.04.04.05h.14l.03.06h.17l.03.06.11.03.03.06h.14l.03.06h.14l.03.06h.08l.03.06h.14l.03.06h.08l.03.06h.17v.06h.17l.03.06h.08l.03.06h.14l.03.06h.14l.03.06h.09l.03.06h.14c.02.03.04.06.06.08h.17l.03.06h.08l.03.06h.14l.03.06h.08l.03.06h.14l.03.06h.14l.03.06h.08l.03.06h.17v.06h.17l.03.06h.09l.03.06h.14l.03.06h.14c.02.03.04.06.06.08h.08l.03.06h.14c-.03-.07-.02-.05-.01-.03h.08l.03.06h.17v.06h.17l.03.06h.08l.03.06h.14l.03.06h.14l.03.06h.08l.03.06h.14l.03.06h.14l.03.06.14.03.03.06h.14l.03.06h.08l.03.06h.14l.03.06h.14l.03.06h.08l.03.06h.17v.06h.17v.06c.07 0 .1 0 .14.03v.03h.14l.03.06h.14l.03.06h.08l.03.06h.14c.02.03.04.06.06.08h.08l.03.06h.17v.06h.17l.03.06h.08l.03.06h.14l.03.06h.14l.03.06h.09l.03.06h.14l.03.06h.17v.06c.07 0 .1 0 .14.03v.03h.14l.03.06h.08c-.01-.1.01-.07.03-.04h.14l.03.06h.14l.03.06h.08l.03.06h.17v.06h.17v.06c.07 0 .1 0 .14.03v.03h.14l.03.06h.08l.03.06h.14l.03.06h.14l.03.06h.08l.03.06.11.03v.03c.05.04.07.06.14.08v.06h.06v.06h.05v.06h.06v.06h.06v.11h.06c0 .07 0 .1.03.14H22V21.81l-.06.03v.25l-.06.03v.14l-.06.03v.17h-.06v.17h-.05v.17l-.06.03v.08l-.06.03v.08c-.02.01-.04.02-.05.03-.01.04-.02.08-.03.11-.04.03-.07.06-.11.08v.08l-.06.03v.08l-.17.14v.08c-.08.07-.15.13-.22.2v.08l-.09.06-.25.28h-.08l-.25.28h-.08c-.03.04-.06.07-.09.11h-.08l-.08.11h-.08l-.11.14h-.08l-.03.06h-.08l-.03.06h-.08l-.03.06h-.08l-.03.06h-.17v.06h-.11v.06h-.17l-.03.06h-.2l-.03.06h-.2l-.03.06h-.28l-.03.06h-1.58l-.03-.06h-.25l-.03-.06h-.2l-.03-.06h-.2l-.03-.06h-.17v-.06c-.07 0-.1 0-.14-.03v-.03h-.14l-.03-.06h-.08l-.03-.06h-.08l-.03-.06h-.08l-.03-.06h-.08c-.04-.05-.08-.09-.11-.14h-.08l-.03-.06h-.08l-.03-.06c-.07-.07-.09-.1-.22-.11v-.06h-.06v-.06h-.05v-.06h-.11v-.06h-.05v-.06c-.1-.06-.13-.16-.25-.2v-.06h-.06v-.06h-.05v-.06h-.06v-.11h-.06v-.06l-.17-.14v-.08c-.04-.03-.07-.06-.11-.08v-.08c-.05-.04-.09-.08-.14-.11v-.08c-.02-.01-.04-.02-.05-.03V23l-.06-.03v-.08l-.06-.03v-.08l-.06-.03v-.08c-.02-.01-.04-.02-.05-.03v-.17h-.06v-.17h-.06v-.22l-.06-.03v-.2c-.02-.01-.04-.02-.05-.03v-.56l-.06-.03v-.34l.06-.03v-.51c.02-.01.04-.02.05-.03v-.25l.06-.03v-.2l.06-.03v-.17h.06v-.11h.05v-.17l.06-.03v-.08l.06-.03v-.08l.06-.03v-.08c.04-.03.07-.06.11-.08l.03-.11c.04-.03.08-.06.11-.08v-.08c.04-.03.07-.06.11-.08v-.09c.19-.18.37-.36.56-.53.09-.1.19-.2.28-.31h.08l.14-.17h.08c.03-.04.06-.07.08-.11h.08l.03-.06h.08c.01-.02.02-.04.03-.05h.08l.03-.06h.08l.03-.06h.06c.09-.05.04-.07.2-.08v-.06h.17l.03-.06h.08l.03-.06h.14l.03-.06h.2l.03-.06h.28v-.06h.34l.03-.06h1.32c.03.04.06.07.08.11.04.03.09-.01.11.03v.08c.02.01.04.02.05.03v.08l.06.03v.2l.06.03v.22h.06v.23c.02.01.04.02.05.03v.25l.06.03v.2l.06.03v.48h-.06v.06h-.06v.06h-.05v.06h-.06v.06h-.17l-.03.06h-1.43l-.03.06h-.2l-.03.06h-.14l-.03.06h-.08l-.03.06h-.14l-.03.06h-.03c-.02.03-.04.06-.06.08h-.08v.03c-.04.03-.07.02-.14.03v.06h-.06v.06h-.06v.06h-.06v.06h-.05v.05h-.06v.06h-.06v.06h-.06v.06h-.05v.06h-.06c-.02.11-.04.17-.14.2 0 .07 0 .1-.03.14h-.03v.08c-.02.01-.04.02-.05.03v.14l-.06.03v.2l-.06.03v.56l.06.03v.2l.06.03v.17h.05v.11h.06c.01.18.11.27.2.37.02.01.04.02.05.03v.08c.08.07.15.13.22.2v.03h.09l.03.06c.1.09.19.19.37.2v.06h.11v.06c.07 0 .1 0 .14.03v.03h.14l.03.06h.14l.03.06h.34v.06h.65v-.06h.34l.03-.06h.14l.03-.06h.14l.03-.06h.08l.03-.06h.08l.03-.06h.08c.03-.04.06-.07.09-.11.1-.07.15.01.2-.14h.06v-.06h.11c.04-.07.1-.13.17-.17v-.11h.06v-.06h.05v-.06h.06l.03-.14.06-.03v-.08l.06-.03v-.08l.06-.03v-.14c.02-.01.04-.02.05-.03v-.25l.06-.03V8.58h-.03v-.03h-.08l-.03-.06h-.14l-.03-.06h-.08l-.03-.06h-.14l-.03-.06h-.14v-.03c-.04-.02-.07-.02-.14-.03v-.06c-.08 0-.15.01-.2-.03l-.03-.06h-.14l-.05-.1h-.08l-.03-.06h-.14l-.03-.06h-.08l-.03-.06h-.14l-.03-.06h-.17V7.7h-.11v-.06h-.17l-.03-.06h-.14l-.03-.06h-.08l-.03-.06h-.14l-.03-.06h-.14l-.03-.06h-.06v-.03l-.11-.03v-.03h-.14l-.03-.06h-.14l-.03-.06h-.08l-.03-.06h-.14L16 7.01h-.14l-.03-.06h-.08c-.01.05-.02.03-.03.01h-.17V6.9h-.11v-.06h-.17l-.03-.06h-.14l-.03-.06h-.08a.555.555 0 00-.06-.08h-.14l-.03-.06h-.14l-.03-.06h-.08l-.03-.06h-.17V6.4h-.17l-.03-.06h-.08L14 6.28h-.14l-.03-.06h-.14l-.03-.06h-.08l-.03-.06h-.14l-.03-.06h-.17v-.06c-.03.04-.08.03-.13.02l-.03-.06h-.14l-.03-.06h-.08l-.03-.06h-.14l-.03-.06h-.14l-.03-.06h-.08l-.03-.06h-.17v-.06h-.17v-.06c-.07 0-.1 0-.14-.03v-.03h-.14l-.03-.06h-.14l-.03-.06h-.08l-.03-.06h-.14a.555.555 0 00-.06-.08h-.14v-.03H11v-.03h-.09l-.03-.06h-.14l-.03-.06h-.08l-.03-.06h-.14c0 .04 0 .02-.01 0h-.14l-.03-.06h-.08l-.03-.06h-.14c-.02-.01-.02-.03-.03-.04h-.17v-.06c-.07 0-.1 0-.14-.03v-.03h-.14c-.01-.02-.02-.03-.03-.05h-.06v11.91l-.06.03v.45l-.06.03v.2l-.06.03v.22h-.05v.17h-.06c0 .07 0 .1-.03.14h-.03v.14c-.02.01-.04.02-.05.03v.08l-.06.03v.08l-.06.03-.03.11c-.04.03-.08.06-.11.08v.08c-.04.03-.07.06-.11.08v.08c-.04.03-.08.06-.11.08v.08c-.11.1-.22.21-.34.31-.17.18-.34.36-.51.53h-.08c-.03.04-.06.07-.08.11h-.08c-.03.04-.06.08-.09.11h-.08l-.11.14h-.08l-.03.06h-.08c-.01.04-.02.06-.03.08H6.9l-.03.06h-.08l-.03.06h-.08l-.03.06h-.17v.06h-.17l-.03.06h-.14l-.03.06h-.2l-.03.06h-.25l-.03.06h-.39c-.02.03-.04.06-.06.08h-.93a.555.555 0 00-.06-.08h-.39l-.03-.06h-.25l-.03-.06h-.2l-.03-.06h-.17v-.06h-.17l-.03-.06h-.08l-.03-.06h-.08l-.03-.06H2.5l-.03-.06h-.09c-.03-.04-.05-.08-.08-.11h-.08a.555.555 0 00-.06-.08h-.08c-.03-.04-.06-.07-.08-.11h-.08v-.03c-.07-.05-.07-.08-.2-.09v-.05h-.05v-.06h-.06v-.06H1.5v-.06h-.05v-.06h-.06v-.06h-.06v-.06c-.09-.02-.17-.11-.2-.2h-.05v-.06h-.06v-.06c0 .02-.02.02-.04.02v-.11H.92v-.06H.87v-.06H.81v-.06H.75c-.01-.12-.03-.13-.08-.2H.64v-.09l-.06-.03v-.03a.555.555 0 01-.08-.06v-.08l-.06-.03v-.09l-.06-.03v-.08c0 .02-.02.01-.04 0v-.09l-.06-.03v-.14l-.06-.03v-.17H.16v-.17H.11v-.22l-.06-.03v-.25c-.01 0-.03-.01-.05-.02V15.6h.06v-.28l.06-.03v-.2c.02-.01.04-.02.05-.03v-.14l.06-.03v-.17h.06v-.11h.06v-.17c.02-.01.04-.02.05-.03v-.08c.04-.03.08-.06.11-.09v-.08l.06-.03.03-.11c.04-.03.07-.06.11-.08v-.09c.04-.03.08-.06.11-.08v-.08c.07-.07.15-.13.22-.2v-.08l.28-.25c.03-.04.05-.08.08-.11h.08l.22-.25h.08l.14-.17H2l.03-.06h.09c.03-.04.05-.08.08-.11h.08l.03-.06h.08c.01-.02.02-.04.03-.05h.08l.03-.06h.08v-.03h.06l.03-.06h.08l.03-.06h.14c.04-.01.05-.02.05-.04h.14l.03-.06h.14l.03-.06h.2l.03-.06h.28l.03-.06h.48l.03-.06h.98l.03.06h.14l.14.17.06.03v.14l.06.03v.2c.02.01.04.02.05.03v.22h.06v.28l.06.03v.2l.06.03v.2c.02.01.04.02.05.03v.42h-.03c-.05.07-.07.06-.08.17-.11.01-.1.05-.22.06v.06H4.37l-.03.06h-.28l-.03.06h-.14l-.03.06h-.14c-.02.03-.04.06-.06.08h-.08l-.03.06h-.08l-.03.06h-.08l-.03.06h-.08v.03c-.05.04-.06.06-.14.08v.06H3v.05h-.06v.06h-.06v.06h-.05V15h-.06v.11l-.14.11v.08c-.04.03-.07.06-.11.08v.08l-.06.03v.09l-.06.03v.14l-.06.03v.34h-.06v.28l.06.03v.31l.06.03v.17h.06c0 .07 0 .1.03.14h.03v.08c.02.01.04.02.05.03v.08l.14.11v.08c.03.02.06.04.08.06l.25.28h.08l.11.14h.08l.06.09c.05.04.16.08.25.08v.06h.17l.03.06h.14l.03.06h.2l.03.06h.98l.03-.06h.2l.03-.06h.2l.03-.06h.08v-.03c.04-.03.07-.02.14-.03v-.06h.11v-.06h.11l.11-.14h.08l.11-.14c.11-.1.22-.21.34-.31v-.08c.04-.03.07-.06.11-.08l.03-.14.06-.03v-.09l.06-.03v-.14l.06-.03v-.2l.06-.03v-1.12-2.95V2.17h.05V2c.2-.12.23-.36.54-.37-.02-.03-.02-.04-.02-.06zm79.94 8.01v.14h.28v.14h.14V10h.14v.14h.14v.14h.14v.14h.14v.14h.14c.03.25.09.35.21.49.04.02.09.05.14.07-.02.07-.05.14-.07.21h.07v.14c.05.02.09.05.14.07v.56c-.12.07-.3.33-.35.35h-1.68c-.09-.14-.12-.13-.35-.14v-.28h-.14v-.28c-.22-.13-.2-.26-.56-.28v-.14h-.42c-.02-.05-.05-.09-.07-.14h-.56v.14h-.42c-.2.28-.39.04-.42.56h-.14v.7c.12.09.23.19.35.28v.07h.21c.02.05.05.09.07.14H85c.02.05.05.09.07.14h.49c.02.05.05.09.07.14h.7v.14h.7c.02.05.05.09.07.14h.35c.02.05.05.09.07.14h.35c.02.05.05.09.07.14h.21c.14.16.28.33.42.49h.21v.07h.07c.02.07.05.14.07.21h.07v.14c.09.07.19.14.28.21v.35c.05.02.09.05.14.07v.49c.05.02.09.05.14.07v.91c-.05.02-.09.05-.14.07v.56c-.05.02-.09.05-.14.07v.35c-.05.02-.09.05-.14.07v.21c-.12.09-.23.19-.35.28v.21l-.28.28h-.21c-.07.09-.14.19-.21.28h-.21c-.02.05-.05.09-.07.14h-.21c-.05.07-.09.14-.14.21h-.21c-.02.05-.05.09-.07.14h-.7c-.02.05-.05.09-.07.14h-2.03c-.02-.05-.05-.09-.07-.14h-.56c-.02-.05-.05-.09-.07-.14h-.35c-.05-.07-.09-.14-.14-.21h-.21c-.07-.09-.14-.19-.21-.28h-.21c-.14-.16-.28-.33-.42-.49-.05-.02-.09-.05-.14-.07-.02-.09-.05-.19-.07-.28-.09-.07-.19-.14-.28-.21v-.35c-.05-.02-.09-.05-.14-.07v-.98c.18-.01.24-.01.35-.07v-.07h1.68c.02.05.05.09.07.14h.21v.07h.07V17c.05.02.09.05.14.07v.21l.28.28h.21c.02.05.05.09.07.14h.49c.02.05.05.09.07.14.23.02.47.05.7.07.21-.33.17-.06.49-.21.02-.05.05-.09.07-.14h.21c.02-.05.05-.09.07-.14.07-.05.14-.09.21-.14v-.84c-.14-.12-.28-.23-.42-.35-.02-.05-.05-.09-.07-.14h-.35c-.02-.05-.05-.09-.07-.14h-.49a.914.914 0 00-.07-.14h-.56c-.02-.05-.05-.09-.07-.14h-.63c-.02-.05-.05-.09-.07-.14h-.49c-.02-.05-.05-.09-.07-.14h-.21c-.02-.05-.05-.09-.07-.14h-.21v-.07c-.11-.06-.17-.06-.35-.07v-.14h-.14v-.14c-.14-.12-.28-.23-.42-.35-.02-.09-.05-.19-.07-.28-.09-.07-.19-.14-.28-.21v-.35c-.05-.02-.09-.05-.14-.07v-.84c0-.88.13-2.01.77-2.17v-.28h.28V10h.14v-.14h.14v-.14h.28v-.14c.18-.01.24 0 .35-.07v-.07h.21c.02-.05.05-.09.07-.14h.63c.02-.05.05-.09.07-.14h1.75c.02.05.05.09.07.14h.49c.02.05.05.09.07.14h.35v.07c.11.07.17.06.35.07zm14.31 9.05h-.14c-.12.14-.23.28-.35.42h-.21c-.07.09-.14.19-.21.28h-.21c-.09.12-.19.23-.28.35h-.35c-.02.05-.05.09-.07.14h-.35c-.02.05-.05.09-.07.14h-1.96c-.02-.05-.05-.09-.07-.14h-.49c-.02-.05-.05-.09-.07-.14h-.21c-.05-.07-.09-.14-.14-.21h-.21c-.02-.05-.05-.09-.07-.14h-.21c-.09-.12-.19-.23-.28-.35-.26-.23-.52-.47-.77-.7v-.21c-.09-.07-.19-.14-.28-.21v-.21c-.05-.02-.09-.05-.14-.07v-.35c-.05-.02-.09-.05-.14-.07v-.84c-.05-.02-.09-.05-.14-.07v-1.19-2.24c.05-.02.09-.05.14-.07v-.84h.14c.01-.18.01-.24.07-.35h.07v-.35c.09-.07.19-.14.28-.21v-.21c.21-.19.42-.37.63-.56.14-.16.28-.33.42-.49h.21c.02-.05.05-.09.07-.14h.21c.02-.05.04-.09.07-.14h.35c.02-.05.05-.09.07-.14h.42c.02-.05.05-.09.07-.14h1.89c.02.05.04.09.07.14h.49c.02.05.05.09.07.14h.21c.02.05.05.09.07.14h.21c.02.05.05.09.07.14h.21c.12.14.23.28.35.42h.21c.05.07.09.14.14.21h.07v.21c.14.12.28.23.42.35v.21c.05.02.09.05.14.07v.21c.05.02.09.05.14.07v.21c.04.02.09.05.14.07v.7c-.12.07-.3.33-.35.35h-1.89c-.12-.14-.23-.28-.35-.42-.05-.02-.09-.05-.14-.07-.07-.11.03-.21-.07-.28h-.21c-.07-.09-.14-.19-.21-.28h-.35c-.02-.05-.05-.09-.07-.14h-.7c-.02.05-.04.09-.07.14h-.35c-.16.19-.33.37-.49.56-.05.02-.09.05-.14.07v.21c-.05.02-.09.05-.14.07v3.72c.21.15.03.1.14.28.21.19.42.37.63.56v.07c.3.18.79.14 1.26.14.15-.22.09-.03.28-.14.02-.05.05-.09.07-.14h.21c.09-.12.19-.23.28-.35h.07v-.21c.09-.07.19-.14.28-.21v-.07h2.04c.07.09.14.19.21.28h.07v.7c-.22.15-.03.09-.14.28-.05.02-.09.05-.14.07v.21c-.05.02-.09.05-.14.07v.21h-.07c-.14.16-.2.17-.22.48zM27.29 9.44h2.17c.06.11.1.15.21.21-.13.75-.07 1.79-.07 2.66v4.77c.34.12.95.07 1.4.07h2.81c.07.12.33.3.35.35v1.96c-.07.04-.21.21-.21.21h-6.59c-.33-.79-.21-2.19-.21-3.3V9.71h.14v-.27zm8.2 0h2.17c.3.58.14 2.16.14 3.02v7.01c-.07.04-.21.21-.21.21h-2.03c-.04-.07-.21-.21-.21-.21v-2.24-5.26c0-.78-.14-1.98.14-2.53zm8.49 3.51h.14v.14h.14v.28h.14v.14h.14v.14h.14v.28c.14.12.28.23.42.35v.21c.14.12.28.23.42.35v.21h.07v.07c.08-.06.01.01.07-.07.14-.16.07-1.14.07-1.47v-4c.5-.26 1.59-.14 2.31-.14.3.58.14 2.16.14 3.02v7.01c-.06.04-.21.21-.21.21h-2.03c-.09-.12-.19-.23-.28-.35h-.07v-.21c-.12-.09-.23-.19-.35-.28v-.21c-.14-.12-.28-.23-.42-.35v-.21c-.14-.12-.28-.23-.42-.35v-.21c-.14-.12-.28-.23-.42-.35v-.21c-.16-.14-.33-.28-.49-.42v-.21c-.09-.07-.19-.14-.28-.21v-.07c-.05-.02-.09-.05-.14-.07v-.21c-.05-.02-.09-.05-.14-.07-.16-.18-.26-.23-.28-.56h-.14v-.14h-.14v-.28h-.14v-.14c-.24-.14-.27-.42-.49-.56v-.07h-.07v.07c-.14.16-.07 1.14-.07 1.47v4c-.07.04-.21.21-.21.21h-2.03c-.04-.07-.21-.21-.21-.21V16.6 9.59c.5-.26 1.59-.14 2.31-.14.07.09.14.19.21.28h.07v.21c.16.14.33.28.49.42v.21c.14.12.28.23.42.35v.21c.14.12.28.23.42.35v.21c.09.07.19.14.28.21v.07c.05.02.09.05.14.07v.21c.05.02.09.05.14.07.18.19.32.27.35.63zm5.68-3.51h6.73c.24.45.14 1.43.14 2.1-.12.07-.3.33-.35.35h-4.14c-.12.34-.07.95-.07 1.4.34.12.95.07 1.4.07h2.95c.04.06.21.21.21.21v1.96h-.14v.14h-.14v.14h-4.21c-.11.3-.07.85-.07 1.26.34.12.95.07 1.4.07h2.8c.07.12.33.3.35.35v1.96c-.07.04-.21.21-.21.21h-6.59c-.33-.79-.21-2.19-.21-3.3V9.7h.07c.06-.08.06-.09.08-.26zm14.02.57h.14v.28h.14v.14h.14c.01.18.01.25.07.35h.07v.21c.09.07.19.14.28.21.02.09.05.19.07.28.05.02.09.05.14.07v.21c.09.07.19.14.28.21v.21c.05.02.09.05.14.07v.21c.09.07.19.14.28.21v.21c.05.02.09.05.14.07v.21h.07c.13.17.18.19.21.49h.14c.04-.08.13-.12.14-.14v-.21c.12-.09.23-.19.35-.28v-.21c.05-.02.09-.05.14-.07v-.21c.09-.07.19-.14.28-.21v-.28h.14v-.28h.14v-.14h.14v-.28h.14c.01-.22.11-.51.21-.63.07-.05.14-.09.21-.14v-.21c.05-.02.09-.05.14-.07.02-.09.05-.19.07-.28.14-.21.22-.03.28-.42.16-.02.18-.01.28-.07v-.07h2.31c.3.58.14 2.16.14 3.02v7.01c-.07.04-.21.21-.21.21h-2.03c-.04-.07-.21-.21-.21-.21v-1.75-3.86c-.08-.06-.01.01-.07-.07-.05.02-.09.05-.14.07l-.21.63c-.05.02-.09.05-.14.07-.02.09-.05.19-.07.28-.09.07-.19.14-.28.21v.21c-.05.02-.09.05-.14.07v.21c-.09.07-.19.14-.28.21v.21c-.05.02-.09.05-.14.07v.21c-.09.07-.19.14-.28.21v.21c-.05.02-.09.05-.14.07v.21c-.12.09-.23.19-.35.28v.07h-.84v-.14h-.28v-.28h-.14v-.28h-.14v-.14h-.14c-.02-.34-.18-.58-.35-.77-.05-.02-.09-.05-.14-.07v-.21c-.05-.02-.09-.05-.14-.07v-.21c-.09-.07-.19-.14-.28-.21v-.21c-.05-.02-.09-.05-.14-.07v-.21c-.09-.07-.19-.14-.28-.21v-.21c-.04-.02-.09-.05-.14-.07-.02-.04-.04-.22-.07-.28-.08.08-.03 0-.07.14-.05.09 0 1.18 0 1.54v4.14c-.07.04-.21.21-.21.21h-2.03v-.07h-.14v-.07c-.05-.02-.09-.05-.14-.07v-2.59-7.08c.21-.14.03-.13.14-.28h.07c.13-.11.47-.07.7-.07h1.75c.13.2.26.18.28.55zm11.08-.57c.02.16.01.18.07.28h.07v.14h.07c-.02.07-.04.14-.07.21V16.38c.1.06.16.1.21.21v.14c.19.16.38.33.56.49v.07c.3.18.79.14 1.26.14.09-.14.11-.13.35-.14v-.14h.14v-.14h.14v-.14h.14v-.14h.14c.01-.18.01-.24.07-.35h.07V9.72h.14v-.28h2.17c.04.07.21.21.21.21v7.29c-.4.27 0 .22-.14.56-.05.02-.09.05-.14.07l-.21.63h-.14v.14h-.14v.14h-.14v.28c-.22.13-.2.26-.56.28v.14h-.14v.14c-.29.02-.34.07-.49.21-.03.05-.05.09-.07.14h-.35c-.02.05-.05.09-.07.14h-.35c-.02.05-.05.09-.07.14h-2.1v-.14h-.42a.914.914 0 00-.07-.14h-.35c-.09-.12-.19-.23-.28-.35h-.21c-.07-.09-.14-.19-.21-.28h-.21l-.28-.28v-.21c-.09-.07-.19-.14-.28-.21-.02-.05-.05-.09-.07-.14-.05-.02-.09-.05-.14-.07v-.21c-.05-.02-.09-.05-.14-.07v-.21c-.05-.02-.09-.05-.14-.07v-.42h-.14V9.58c.5-.25 1.58-.14 2.31-.14zm18.44.57v9.04h-.14v.28c-.07.04-.12.13-.14.14h-.21c-.02.05-.05.09-.07.14h-.14v.07h-1.12c-.12-.14-.23-.28-.35-.42-.05-.02-.09-.05-.14-.07v-.21c-.07-.05-.14-.09-.21-.14v-8.62c.1-.06.16-.1.21-.21v-.14c.12-.09.23-.19.35-.28.02-.05.05-.09.07-.14h1.26c.1.18.4.5.63.56z"
    fill-rule="evenodd" clip-rule="evenodd"></path>
</svg>