<svg xmlns="http://www.w3.org/2000/svg" xmlns:xlink="http://www.w3.org/1999/xlink" id="link_nekoyanagi"
  viewBox="0 0 27 23">
  <path
    d="M25.06 13.86c-1.44.49-2.98.39-2.98.39-3.02-.13-3.5-2.16-4.52-3.41-1.02-1.25-3.08-2.33-3.08-2.33-4.29-1.83-8.35-.81-8.35-.81s-.69.2-.63-.52c.07-.72 1.97-2.75.4-4.26 0 0-.1 1.54-1.44 1.67 0 0-1.38.56-2.03-.46-.66-1.02-1.32-1.48-1.32-1.48s.04 1.15-.03 1.78c-.06.62-.1 1.8.39 2.29s1.18 1.05 1.08 1.74c-.1.69.04 3.01 1.61 4.13C5.73 13.7 5.8 14 5.5 14.62c-.3.62-1.74 3.57-2.4 4.1 0 0-.26.56-.75.72-.49.16-.59.92 0 .92s1.38-.23 1.7-.52c.33-.3.26-.52 0-.59-.26-.06 1.12-2.13 1.7-2.75.59-.62 1.28-1.18 1.28-1.18s1.28 1.18 1.01 1.74c-.26.56-.62.49-.62.49s-.49.07-.49.33.49.46 1.34.36c.85-.1.82-.79.69-1.25-.13-.46-.56-2.33-.56-2.33-.49-.53-.23-.89-.23-.89 2.59-1.15 3.8 1.08 4.32 1.44.52.36-.98 1.51-.98 1.51s-.75.03-.85.26c-.1.23.03.43.56.46.52.03.75-.33 1.8-1.31s1.47-.1 1.6.26c.13.36-1.05 1.31-1.6 1.25-.56-.07-.92.36-1.15.39-.23.03-.56.13-.33.39.23.26 1.15.23 1.15.23s2.59-1.64 2.95-1.9c.36-.26.92-.72.53-.95-.4-.23-.46-.42-.75-.62-.3-.2-.46-.56-.13-.82.33-.26.36-.49.13-.62-.23-.13-.16-.36-.16-.36 1.28-.56 1.24-1.15 1.41-1.28.16-.13.26-.16.72.46.46.62 1.57 1.47 1.57 1.47 2.59 1.84 5.9.66 6.29.49.39-.16.89-.46.62-.75-.25-.3-.81.09-.81.09z">
  </path>
</svg>