<svg xmlns="http://www.w3.org/2000/svg" xmlns:xlink="http://www.w3.org/1999/xlink" viewBox="0 0 80 23">
  <path
    d="M72.6 2.2v.07c.17 0 .34.01.47.03v.07h.34c.02.03.04.07.07.1h.24l.03.1c.19.01.12.05.24.1h.1c.04.06.09.11.13.17h.13c.1.11.2.22.3.34.25.23.49.47.74.71v.13l.2.17v.13c.02.01.04.02.07.03.1.11.2.19.24.37h.07v.07l.1.03c.01.14.04.16.1.24.02.01.04.02.07.03v.13l.3.27v.13c.06.04.11.09.17.13v.13h.03c.04.04 0 .01.07.03.03.09.01.08.1.1v.17h.07v.03l.2.17v.13l.2.17v.13c.06.05.11.09.17.13v.13c.02.01.05.02.07.03.1.11.22.18.24.37h.07c.02.09.01.08.1.1v.13c.08.05.26.22.3.3v.1c.06.05.11.09.17.13v.13c.02.01.04.02.07.03.08.08.12.11.13.27h.07c.02.09.01.08.1.1.02.09.01.08.1.1v.17c.09.02.08.01.1.1h.07c.02.12.07.19.13.27.02.01.04.02.07.03v.13l.2.17v.13c.06.05.11.09.17.13v.2c.03.02.07.04.1.07v.13l.1.07v.4c.03.02.07.04.1.07v.94c-.03.02-.07.04-.1.07v.4c-.03.02-.07.04-.1.07v.24h-.03c-.05.07-.06.08-.07.2-.09.02-.08.01-.1.1h-.07v.13l-.2.17v.13c-.06.04-.11.09-.17.13l-.03.17c-.06.04-.11.09-.17.13v.13h-.03l-.17.2h-.07c-.01.18-.06.13-.1.27-.19.06-.03.04-.1.17-.06.04-.11.09-.17.13v.13c-.08.07-.16.13-.24.2v.03c-.02.01-.04.02-.07.03v.13c-.02.01-.04.02-.07.03a.49.49 0 00-.13.27h-.07c-.02.09-.01.08-.1.1v.13l-.27.24v.13l-.2.17v.13c-.06.04-.11.09-.17.13-.07.12.09.11-.1.17-.02.09-.01.08-.1.1-.03.13-.09.1-.1.27h-.07c-.02.04-.1.09-.1.1v.13l-.2.17v.13l-.27.24V18c-.02.01-.05.02-.07.03-.08.09-.12.11-.13.27h-.07c-.02.09-.01.08-.1.1-.02.09-.01.08-.1.1v.17h-.07c-.02.03-.04.07-.07.1h-.03l-.03.17c-.02.01-.04.02-.07.03-.04.06-.09.11-.13.17-.08.07-.16.13-.24.2-.04.06.02.13-.03.17h-.13c-.01.02-.02.04-.03.07h-.03c-.12.14-.25.27-.37.4h-.13c-.01.02-.02.05-.03.07-.08.08-.11.12-.27.13v.07c-.12.01-.13.02-.2.07v.03h-.24c-.02.03-.04.07-.07.1h-.2c-.02.03-.04.07-.07.1h-.5c-.02.03-.04.07-.07.1H1.1c-.02-.03-.04-.07-.07-.1H.79c-.02-.03-.04-.07-.07-.1H.59l-.27-.3H.29v-.07l-.1-.03c0-.09 0-.12-.03-.17H.13v-.13l-.1-.07v-.81H.1c.01-.07.03-.07.03-.07.03-.12-.06-.09 0-.2.02-.01.04-.02.07-.03v-.13c.03-.02.07-.04.1-.07v-.13h.03c.05-.07.06-.08.07-.2h.07l.03-.17c.02-.01.04-.02.07-.03v-.13c.03-.02.07-.04.1-.07v-.13c.03-.02.07-.04.1-.07v-.13H.8c.04-.04 0-.01.07-.03v-.17h.07l.03-.17c.02-.01.04-.02.07-.03v-.13c.03-.02.07-.04.1-.07v-.13h.03c.06-.08.06-.07.07-.2h.07l.03-.17c.02-.01.04-.02.07-.03v-.13l.1-.07v-.13c.03-.02.07-.04.1-.07v-.13h.03c.04-.04 0-.01.07-.03v-.17h.07l.03-.17c.02-.01.04-.02.07-.03v-.13c.03-.02.07-.04.1-.07v-.13h.03c.06-.08.06-.07.07-.2h.07c.02-.12.06-.17.1-.27h.03l-.03-.03c0-.08 0-.13.03-.17.02-.01.04-.02.07-.03v-.13h.03c.04-.04 0-.01.07-.03v-.17l.1-.03c.01-.19.05-.12.1-.24v-.1c.02-.01.04-.02.07-.03v-.13h.03c.06-.08.06-.06.07-.2l.1-.03c0-.12.02-.13.07-.2h.03v-.24c.02-.01.04-.02.07-.03v-.07h.03c0-.04-.07-.06-.03-.13.03-.02.07-.04.1-.07.06-.13-.05-.34.03-.44.04-.04 0-.01.07-.03v-.98c-.03-.02-.07-.04-.1-.07v-.44h-.07l-.03-.17c.02-.03.05.01.03-.03h-.03v-.07a.488.488 0 00-.07-.03v-.24h-.03c-.04-.04 0-.01-.07-.03-.03-.05-.05-.06-.09-.13H2.8V9.6c-.03-.02-.07-.04-.1-.07V9.4a.3.3 0 01-.08-.04l-.03-.16h-.07v-.17c-.03-.01-.06-.03-.1-.04 0-.12-.02-.13-.07-.2h-.03v-.13c-.03-.02-.07-.04-.1-.07v-.13a.161.161 0 00-.07-.04v-.2c-.03-.02-.06-.04-.1-.07v-.13c-.03-.02-.06-.05-.1-.07v-.13h-.03c-.06-.08-.06-.07-.07-.2h-.07l-.03-.2h-.07c-.01-.12-.02-.13-.07-.2h-.03v-.13c-.03-.02-.07-.04-.1-.07v-.13h-.03c-.06-.08-.06-.06-.07-.2h-.07c-.01-.14-.02-.15-.06-.22h-.03v-.13c-.03-.02-.07-.04-.1-.07v-.13h-.03c-.06-.08-.06-.07-.07-.2H.95C.93 5.87.92 5.8.91 5.73H.84c-.01-.12-.02-.13-.07-.2H.74V5.4c-.03-.02-.07-.04-.1-.07V5.2H.61C.55 5.12.55 5.14.54 5H.47C.46 4.87.45 4.86.4 4.79H.37v-.13c-.03-.03-.07-.05-.1-.07v-.13H.24c-.06-.08-.06-.06-.07-.2H.1c-.01-.05-.02-.1-.03-.14 0 0 .06-.04.03-.1-.03-.03-.07-.05-.1-.07v-.81h.03c.05-.08.06-.06.07-.2h.07l.03-.2h.07v-.07c.09-.02.08-.01.1-.1.09-.02.08-.01.1-.1.13-.03.1-.09.27-.1V2.3c.07-.01.07-.03.07-.03h.2c.01-.03.02-.05.03-.07H72.6zM13.79 16.09c-.07.06-.27.03-.4.03-.08 0-.09.01-.13.03v.03h-.71l-.07.1h-1.04c-.02.03-.04.07-.07.1H8.82c-.02-.03-.04-.07-.07-.1h-.13c-.02-.03-.04-.07-.07-.1h-.13s-.04-.05-.07-.07c-.05-.12-.03-.17-.13-.24V9.51 7.63c0-.27-.04-.66.03-.87h3.23v.07h.03c.01.06-.03.06-.03.07v5.35c0 .55-.05 1.22.03 1.72h.07c.01.17.07.16.13.27h1.24l.07-.1h.5c.02-.03.04-.07.07-.1h.4c.01-.02.02-.04.03-.07h.3c.02-.03.04-.07.07-.1h.34c.02-.03.04-.07.07-.1h.2c.02-.03.04-.07.07-.1h.24c.01-.02.02-.04.03-.07h.2c.02-.03.04-.07.07-.1h.13l.07-.1h.24v-.03c.07-.05.08-.06.2-.07v-.07l.17-.03c.01-.02.02-.04.03-.07h.13c.02-.03.04-.07.07-.1h.13c.02-.03.04-.07.07-.1h.13v-.03c.07-.05.08-.06.2-.07v-.07c.12-.01.13-.02.2-.07v-.03h.13l.17-.2h.13c.01-.02.02-.04.03-.07.07-.07.09-.09.24-.1l.03-.1h.07c.06-.19.04-.03.17-.1l.24-.27h.13l.17-.2c.14.02.14.08.24.13v2.02h-.07c-.02.07-.04.13-.07.2h-.13c-.03.09-.01.08-.1.1v.07c-.09.03-.08.01-.1.1h-.07c-.02.07 0 .03-.03.07v.03h-.13c-.04.06-.09.11-.13.17h-.13l-.07.1h-.13l-.17.2h-.13v.07l-.17.03c-.01.02-.02.04-.03.07h-.13l-.07.1h-.13c-.02.03-.04.07-.07.1h-.24v.07l-.17.03c-.01.02-.02.04-.03.07h-.24c-.02.03-.04.07-.07.1h-.2l-.07.1h-.24c-.02.03-.04.07-.07.1h-.24v.07h-.07v.03h-.3c-.01.02-.02.04-.03.07h-.3c-.02.03-.04.07-.07.1h-.34c-.02.07 0 .03-.03.07-.08.07-.39.04-.54.03-.01.07.01.03-.03.07zm9.02-7.37h-1.95v-.03l-.2-.17V6.97h.03c.03-.05.03-.08.03-.17h.03v-.03h7.27v.07h.07v.03h.47c.01.02.02.04.03.07h.34l.03.1h.17c.02.07 0 .03.03.07v.03h.24c.02.03.04.07.07.1h.13c.01.02.02.05.03.07.07.07.1.09.24.1l.03.1h.07c.06.19.04.03.17.1.01.02.02.04.03.07.02.01.04.02.07.03l.17.2c.12.11.25.22.37.34.08.08.13.18.24.24v.13c.09.03.08.01.1.1h.07c.03.12.07.19.13.27.02.01.04.02.07.03v.13c.03.02.07.04.1.07v.13h.03c.05.07.06.08.07.2h.07c.01.05.02.09.03.13 0 0-.06.04-.03.1.03.02.07.04.1.07v.24c.03.02.07.04.1.07v.4c.03.02.07.04.1.07v1.61l-.1.03v.34c-.03.02-.07.04-.1.07v.24h-.07l-.03.17h.03v.03h-.03v.07c-.02.01-.04.02-.07.03v.13h-.03c-.05.07-.06.08-.07.2l-.1.03v.17c-.07.02-.03 0-.07.03h-.03v.13c-.02.01-.04.02-.07.03v.13l-.3.27v.13c-.06.05-.11.09-.17.13-.13.15-.27.29-.4.44h-.13l-.24.27h-.13l-.17.2h-.13v.03c-.07.05-.08.06-.2.07v.07c-.19.04-.38.09-.57.13v.07h-.34l-.07.1h-7.6l-.03-.1h-.07V14.3h.07c.01-.15.02-.11.07-.2h6.66v-.03c.08-.05.06-.06.2-.07v-.07c.17-.01.14-.07.27-.1.03-.09.01-.08.1-.1.03-.09.01-.08.1-.1.02-.09.06-.1.1-.17h.07c.01-.14.01-.12.07-.2h.03v-.13c.03-.02.07-.04.1-.07v-.13c.03-.02.07-.04.1-.07v-.24h.07c.02-.11.07-.29.03-.44 0-.01-.04-.01-.03-.07h.03v-.07h.07v-1.38a.488.488 0 00-.07-.03v-.07h-.03c0-.02.07-.26.03-.34-.03-.02-.07-.04-.1-.07v-.24l-.1-.03v-.24c-.03-.02-.07-.04-.1-.07v-.13c-.06-.04-.11-.09-.17-.13v-.13l-.27-.24h-.1c-.05-.06-.09-.11-.13-.17h-.24l-.03-.1c-1.57.05-3.11.05-4.66.05zm11.37-.33V6.91h.03l.1-.13h12.11s.07.08.1.1v1.45h-.03l-.1.13h-3.67v.03l-.13.1v1.78h.03c.03.05.07.09.1.13h3.7c.03.09.01.08.1.1v1.04c0 .18.01.41-.03.54h-3.66c-.02.03-.04.07-.07.1h-.13v.03c-.04.05-.04.2-.03.3h.03v.03h-.03v.07c-.02.01-.04.02-.07.03v.4l-.1.07v.24c-.03.02-.07.04-.1.07v.24c-.07.02-.03 0-.07.03h-.03v.13c-.02.01-.04.02-.07.03v.13l-.2.17v.13c-.02.01-.04.02-.07.03-.1.11-.2.19-.24.37h-.07v.07c-.21.04-.31.18-.44.3-.02.03-.04.07-.07.1h-.13c-.04.06-.09.11-.13.17h-.13l-.07.1h-.13l-.07.1h-.2c-.02.03-.04.07-.07.1h-.24c-.01.02-.02.04-.03.07h-.2l-.07.1h-.5c-.02.03-.04.07-.07.1h-4.81c-.02-.07 0-.03-.03-.07v-1.08c0-.18-.01-.41.03-.54h3.5c.02-.03.04-.07.07-.1h.3c.02-.03.04-.07.07-.1h.24c.01-.02.02-.04.03-.07.08-.07.09-.09.24-.1l.03-.1h.07a.68.68 0 01.13-.27c.02-.01.04-.02.07-.03v-.13l.1-.07v-.24l.1-.03v-.77h-.03l-.1-.13h-4.81c-.02-.07 0-.03-.03-.07v-1.48h.03l.1-.13H38.81c.11 0 .27.02.34-.03.17-.18.1-.88.1-1.31v-.4c0-.05.03.01.03-.03h-.03c-.04-.13-.14-.16-.2-.27h-4.81c-.05-.05-.02-.01-.06-.05zM69.4 6.77c.02.03.04.07.07.1h.61v.07h.34c.02.03.04.07.07.1h.24l.03.1H71c.02.03.04.07.07.1h.13c.04.06.09.11.13.17.12.07.11-.09.17.1.13.04.16.14.27.2v.07c.09.03.08.01.1.1.09.03.08.01.1.1h.07c.01.16.06.18.13.27.02.01.05.02.07.03v.13c.03.02.07.04.1.07v.24h.07c.01.08.06.16.03.27h-.03c0 .06.1.13.1.13v1.08c-.02.01-.04.02-.07.03v.07h-.03c0 .05.08.24.03.34-.03.02-.07.04-.1.07v.24h-.03c-.05.07-.06.08-.07.2-.07.02-.03 0-.07.03h-.03v.24c-.03.02-.07.04-.1.07v.13h-.03c-.03.05-.03.08-.03.17l-.1.03v.24c-.03.02-.07.04-.1.07v.13l-.1.07v.13c-.02.01-.04.02-.07.03v.07h-.03c-.01.04.07.06.03.13l-.1.07v.13c-.03.02-.07.04-.1.07v.13l-.1.07v.24h-.07l-.03.17c-.02.01-.04.02-.07.03v.13c-.03.02-.07.04-.1.07v.13c-.03.02-.07.04-.1.07v.2c-.03.02-.07.04-.1.07v.13c-.02.01-.04.02-.07.03v.1h-.03v.07c-.02.01-.04.02-.07.03v.24c-.07.02-.03 0-.07.03h-.03v.13c-.03.02-.07.04-.1.07v.13c-.03.02-.07.04-.1.07-.03.06.03.1.03.1l-.03.13h-.07c-.01.12-.02.13-.07.2h-.03v.13h-.03c-.03.05-.07.09-.1.13h-2.46c-.32 0-.72.07-.84-.13-.05-.04 0-.04.03-.1h.03v-.2c.03-.02.07-.04.1-.07v-.13c.02-.01.04-.02.07-.03.06-.11-.03-.09 0-.2 0 0 .02 0 .03-.07h.07c.01-.14.01-.12.07-.2h.03v-.24c.03-.02.07-.04.1-.07v-.13h.03c.05-.07.06-.08.07-.2h.07v-.24c.03-.02.07-.04.1-.07v-.13c.03-.02.07-.04.1-.07v-.24c.07-.02.03 0 .07-.03h.03v-.13c.02-.01.04-.02.07-.03v-.07h.03c.01-.03-.07-.09-.03-.17h.03c.04-.07.06-.08.07-.2l.1-.03c.01-.14.01-.12.07-.2h.03v-.24h.03c.05-.07.06-.08.07-.2h.07v-.24c.03-.02.07-.04.1-.07v-.13c.03-.02.07-.04.1-.07v-.13c.03-.02.07-.04.1-.07v-.2c.02-.01.04-.02.07-.03v-.13c.03-.02.07-.04.1-.07v-.24l.1-.03v-.17c.07-.02.03 0 .07-.03h.03v-.13c.02-.01.04-.02.07-.03.03-.04.04-.09.03-.17l-.03-.03h.03v-.07c.02-.01.04-.02.07-.03v-.3c.03-.02.07-.04.1-.07v-.5c-.03-.02-.07-.04-.1-.07v-.13c-.04-.01-.06-.03-.08-.04v-.1l-.24-.27h-.13a.488.488 0 01-.03-.07h-.3c-.02-.03-.04-.07-.07-.1h-3.16v.07c-.06.01-.07.03-.07.03h-.3c-.01.02-.02.04-.03.07h-.2l-.27.3h-.13c-.06.04 0 .1-.03.17-.11.08-.2.16-.29.24v.13c-.07.02-.03 0-.07.03h-.03v.13c-.02.01-.04.02-.07.03-.07.1-.01.12 0 .2-.05.11-.09.04-.1.24l-.1.03v.24l-.1.07v.13c-.03.02-.07.04-.1.07v.24h-.07c-.01.14-.01.12-.07.2h-.03v.24l-.1.07v.24c-.07.02-.03 0-.07.03h-.03v.13c-.02.01-.04.02-.07.03-.03.04-.04.09-.03.17l.03.03h-.03c-.04.1-.08.15-.1.27h-.07v.24c-.06.03-.1.07-.13.13h-2.29c-.32 0-.79.06-1.04-.03 0-.12 0-.19.03-.27h.07v-.24l.1-.07v-.13c.02-.01.04-.02.07-.03v-.07h.03c.01-.04-.07-.06-.03-.13l.1-.07v-.13c.03-.02.07-.04.1-.07v-.24c.03-.02.07-.04.1-.07v-.2c.02-.01.04-.02.07-.03l.03-.17c.02-.01.05-.02.07-.03v-.24l.1-.03v-.24c.03-.02.07-.04.1-.07v-.13c.03-.02.07-.04.1-.07v-.24h.07c.01-.14.01-.12.07-.2h.03v-.24c.03-.02.07-.04.1-.07v-.13h.03c.05-.07.06-.08.07-.2.09-.03.08-.01.1-.1h.07c.01-.16.06-.18.13-.27.02-.01.05-.02.07-.03v-.13l.2-.17c.16-.17.31-.34.47-.5h.13l.17-.2h.13v-.07l.17-.03c.01-.02.02-.04.03-.07h.13c.02-.03.04-.07.07-.1h.13c.02-.03.04-.07.07-.1h.24v-.07h.07v-.03h.3c.01-.02.02-.04.03-.07h.57s0-.02.07-.03v-.07h5.49zM54.43 8.35c.02.03.04.07.07.1h.44v.07c.19.04.38.09.57.13v.07c.12.01.13.02.2.07v.03h.13c.04.06.09.11.13.17h.13l.24.27c.12.11.25.22.37.34v.13c.06.04.11.09.17.13v.1h.03v.07c.02.01.04.02.07.03v.2c.03.02.07.04.1.07v.13l.1.07v.34h.07c.02.1.07.29.03.44h-.03v.03h.03v.07c.02.01.04.02.07.03v1.28c-.02.01-.04.02-.07.03v.07h-.03c.01.07.09.32.03.44-.03.02-.07.04-.1.07v.24l-.1.03v.24c-.03.02-.07.04-.1.07v.13h-.03c-.05.07-.06.08-.07.2h-.07c-.01.17-.07.14-.1.27-.09.03-.08.01-.1.1-.19.06-.03.05-.1.17h-.03l-.17.2c-.12.07-.11-.09-.17.1-.09.03-.08.01-.1.1-.14.04-.09.09-.27.1v.07c-.14.01-.12.01-.2.07v.03h-.13c-.02.03-.04.07-.07.1h-.24c-.02.07 0 .03-.03.07-.08.07-.23-.02-.34.03l-.07.1c-.19.09-.58-.11-.71.07h-5.02s-.07-.08-.1-.1v-.07h-.03v-.03h.03v-.24c0-.34-.04-.8 0-1.04h4.64c.02-.07 0-.03.03-.07.08-.07.23.02.34-.03v-.03c.07-.05.08-.06.2-.07.03-.09.01-.08.1-.1v-.07c.09-.03.08-.01.1-.1h.07l.03-.13s-.06-.04-.03-.1c.03-.02.07-.04.1-.07v-.81H48.99v-.03c-.06-.04-.06-.05-.13-.07-.04-.23-.03-.98 0-1.21h5.45v-.03l.13-.1v-.81h-.07c-.06-.29-.31-.36-.44-.57h-.24v-.07h-4.71v-.03l-.13-.1v-.07h-.03v-.03h.03V9.4c0-.34-.04-.8 0-1.04 1.88-.01 3.73-.01 5.58-.01zm25 9.56v.07c.09.02.07.01.1.1.09.02.09.04.13.1h.03v.13l.2.17v.24c.03.02.07.04.1.07v.84l-.1.07v.13h-.03c-.04.04 0 .01-.07.03v.17c-.09.02-.08.01-.1.1h-.07c-.02.12-.05.19-.13.24v.03l-.17.03v.07c-.09.02-.08.01-.1.1-.12.01-.13.02-.2.07v.03h-.13c-.02.03-.04.07-.07.1H77.98c-.02-.03-.04-.07-.07-.1h-.24v-.03c-.08-.05-.06-.06-.2-.07-.02-.09-.01-.08-.1-.1v-.07c-.09-.02-.08-.01-.1-.1-.09-.02-.08-.01-.1-.1-.09-.02-.08-.01-.1-.1H77c-.02-.09-.01-.07-.1-.1-.01-.14-.01-.12-.07-.2h-.03v-.24c-.03-.02-.07-.04-.1-.07v-.44-.3c.03-.02.07-.04.1-.07v-.13c.03-.02.07-.04.1-.07v-.13c.03-.02.07-.04.1-.07v-.13l.3-.27v-.03h.13c.04-.06.09-.11.13-.17h.24c.02-.03.04-.07.07-.1h.94c.02.03.04.07.07.1h.24c.01.02.02.05.03.07.09.06.15.1.28.13zm-.84-.1v.07h.24c.02.03.04.07.07.1h.13v.03c.07.05.08.06.2.07.03.09.01.08.1.1.03.09.01.08.1.1v.07h.07l.03.17c.02.01.04.02.07.03v.07h.03c.01.03-.07.09-.03.17l.1.07v.71c-.03.02-.07.04-.1.07l.03.17-.2.17v.14h-.03l-.1.13h-.13c-.01.02-.02.04-.03.07a.49.49 0 01-.27.13v.07h-1.01v-.03c-.08-.05-.06-.06-.2-.07-.03-.1-.06-.14-.17-.17-.03-.09-.01-.08-.1-.1-.03-.09-.01-.08-.1-.1-.03-.09-.01-.08-.1-.1v-.17h-.07l-.03-.17a.488.488 0 00-.07-.03v-.71c.02-.01.04-.02.07-.03v-.07h.03c.01-.03-.07-.09-.03-.17h.03c.05-.08.06-.06.07-.2l.1-.03c.03-.09.01-.08.1-.1.02-.07 0-.03.03-.07.1-.16.08-.04.2-.1.02-.03.04-.07.07-.1h.13c.02-.03.04-.07.07-.1h.24v-.07c.14-.02.3-.02.46-.02zm-.84.37h.91c.02.03.04.07.07.1h.13c.01.02.02.04.03.07h.13v.03h.03v.13c.03.02.07.04.1.07v.3l-.1.03v.17c-.09.02-.08.01-.1.1-.09.02-.08.01-.1.1h-.17v.1h.07c0 .12.02.13.07.2h.03v.13l.1.07v.13h.03c.05.06.04.08.13.1v.1h-.34a.57.57 0 00-.13-.27.488.488 0 00-.07-.03v-.13h-.03c-.05-.07-.06-.08-.07-.2h-.07l-.03-.2h-.34l-.1.13h-.03v.57h.03l-.03.13h-.24c-.05-.15-.03-.41-.03-.61v-1.24c.11-.01.09.01.12-.08zm.9.27v.03l.2.17v.27c-.08.02-.08.03-.13.07v.03h-.77c-.04-.18-.04-.39 0-.57h.7z"
    fill-rule="evenodd" clip-rule="evenodd"></path>
</svg>