<svg xmlns="http://www.w3.org/2000/svg" xmlns:xlink="http://www.w3.org/1999/xlink" id="link_ringo" viewBox="0 0 27 23">
  <path
    d="M8.25 13.64c-.01-.72.57-1.32 1.29-1.33.72-.01 1.32.57 1.33 1.29.01.72-.57 1.32-1.29 1.33-.72.01-1.32-.57-1.33-1.29zM13.26 6.9c.2 0 .32-.02.33-.02.03 0 .05-.02.07-.04a.09.09 0 00.03-.07c.01-.08.21-1.85-.94-3.15-.77-.87-1.95-1.3-3.51-1.3-.03 0-.06.02-.09.04-.01.03-.02.06-.02.09 0 1.48.4 2.61 1.18 3.38 1 .99 2.4 1.07 2.95 1.07z">
  </path>
  <path
    d="M20.81 8.71c-.96-1.33-2.35-1.79-3.32-1.77-.22 0-.43.03-.62.08-2.06.52-3.42.54-3.44.54-.01 0-1.38.02-3.45-.44-.2-.04-.41-.06-.63-.06-.97.01-2.34.51-3.26 1.87-.8 1.18-1.48 3.34-.12 6.92.05.13.52 1.28 1.66 2.45 1.09 1.11 3.01 2.42 5.99 2.37 2.98-.04 4.86-1.41 5.91-2.55 1.09-1.18 1.54-2.36 1.59-2.5 1.27-3.61.53-5.75-.31-6.91zm-3.33 6.1c-.72.01-1.32-.57-1.33-1.29-.01-.72.57-1.32 1.29-1.33.72-.01 1.32.57 1.33 1.29.01.73-.57 1.32-1.29 1.33zm-.08-5.34c-2.22.04-4 1.87-3.97 4.09a3.86 3.86 0 01-6.3 3.04l-.03-.03c-.02-.01-.04-.03-.05-.04l-.04.05.03-.06c-.44-.39-.74-1.08-.91-1.59-.94-2.97-.33-4.77.34-5.75.81-1.22 2.03-1.67 2.89-1.68.18 0 .36.01.53.05 2.12.47 3.49.45 3.55.45.06 0 1.43-.03 3.54-.55.16-.04.34-.06.52-.07.86-.01 2.09.4 2.95 1.59.46.63.96 1.72.9 3.39-.51-1.73-2.11-2.91-3.95-2.89z">
  </path>
</svg>