<svg xmlns="http://www.w3.org/2000/svg" xmlns:xlink="http://www.w3.org/1999/xlink" id="link_st_spotify"
  viewBox="0 0 86.71 27">
  <path
    d="M11.5.44h2.97v.11c.16 0 .39.04.52.08.18.02.37.04.55.05v.03h.14v.03h.14v.03h.11V.8h.08v.03h.08v.03l.44.06c.15.06.29.13.44.19.12.02.24.04.36.05v.03c.05.02.11.04.16.06v.03h.05v.03h.06v.03c.1.02.2.04.3.05v.03l.11.03c.01.02.02.04.03.05h.06v.03h.05v.03l.25.06v.03l.11.03c.01.02.02.04.03.05h.05c.01.02.02.04.03.05h.05v.03c.05.01.11.02.17.03v.03l.11.03v.03h.06c.02.03.04.05.05.08h.05v.03h.08v.03h.08v.03l.11.03v.03h.06c.02.03.04.05.05.08h.05c.01.02.02.04.03.05.06.02.13.04.19.05l.03.06h.06c.02.03.04.05.05.08h.06c.01.02.02.04.03.05l.11.03.03.06h.06l.08.11c.05.02.11.04.16.05.01.02.02.04.03.05h.05c.02.03.04.05.06.08h.05v.03c.03.01.06.02.08.03.01.02.02.04.03.05h.05l.11.14h.05c.01.02.02.04.03.05h.05l.11.14h.05c.03.04.06.07.08.11h.05c.06.06.11.13.17.19h.05c.07.08.15.16.22.25h.05c.09.04.15.1.2.17h.05c.02.03.04.05.06.08h.05c.02.03.04.05.06.08h.03v.05c.03.02.05.04.08.06v.03h.05l.05.06v.05l.06.03c.01.03.02.05.03.08h.03v.05l.39.36v.05c.02.01.04.02.05.03v.06l.22.19v.06c.05.05.11.09.17.14l.03.11c.02.01.04.02.05.03v.06l.11.08v.06c.02.01.04.02.05.03.01.03.02.05.03.08h.03c.01.02.02.06.03.1l.11.08v.06l.06.03c.02.05.04.11.05.16.02.01.04.02.05.03.01.03.02.06.03.08.03.02.06.04.08.06.02.05.04.11.05.16.02.01.04.02.05.03v.06c.03.02.06.04.08.05.04.1.07.2.11.3h.03c.01.03.02.06.03.08.03.02.05.04.08.05v.08h.03v.08h.03v.06h.03v.08c.02.01.04.02.05.03v.05c.02.01.04.02.05.03v.06l.06.03c.02.08.04.17.05.25h.03v.05c.02.01.04.02.05.03v.05l.06.03v.06h.03v.08h.03v.08h.03v.08h.03v.08h.03v.05h.03c.02.05.04.11.05.16h.03c.03.12.06.24.08.36h.03v.08h.03l.03.11h.03v.08h.03v.05h.03l.03.28h.03v.11h.03v.08h.03v.08h.03v.08h.03v.08h.03v.08h.03c.03.21.05.42.08.63.16.5.22 1.11.22 1.79 0 .41.1.73 0 1.07l-.03 1.4h-.03v.19c-.07.24-.12.56-.19.8l-.03.33c-.06.18-.13.37-.19.55-.03.15-.05.29-.08.44h-.03l-.03.11h-.03v.06h-.03l-.03.16h-.03l-.06.33h-.03v.05c-.02.01-.04.02-.05.03v.06h-.03v.05h-.03v.06h-.03v.11h-.03v.08H25v.08h-.03c-.02.05-.04.11-.06.16-.02.01-.04.02-.05.03v.05h-.03c-.02.08-.04.17-.05.25l-.06.03v.05c-.02.01-.04.02-.05.03v.06c-.02.01-.04.02-.05.03-.03.09-.05.18-.08.27-.02.01-.04.02-.05.03v.06c-.03.02-.05.04-.08.06-.04.1-.07.2-.11.3-.04.03-.07.06-.11.08v.05l-.05.05v.06h-.03v.05c-.02.01-.04.02-.05.03v.06c-.03.02-.06.04-.08.05v.05c-.02.01-.04.02-.05.03-.02.05-.04.11-.05.16l-.14.11c-.02.05-.04.11-.05.17l-.06.03v.05c-.04.03-.07.06-.11.08v.05h-.03c-.01.03-.02.05-.03.08-.02.01-.04.02-.05.03v.06c-.02.01-.04.02-.05.03-.03.04-.06.07-.08.11h-.03v.05h-.03c-.03.04-.04.05-.05.11h-.06c-.03.1-.18.26-.25.33l-.06.03v.06c-.17.17-.35.33-.52.5-.19.2-.39.4-.58.61h-.05c-.02.03-.04.05-.06.08h-.05l-.19.22h-.05l-.03.06h-.05c-.05.06-.11.13-.17.19l-.11.03c-.03.04-.06.07-.08.11-.03.01-.05.02-.08.03-.01.02-.02.04-.03.05l-.11.03-.08.11c-.03.01-.05.02-.08.03-.01.02-.02.04-.03.05-.05.02-.11.04-.17.05l-.11.14h-.05l-.05.05h-.05v.03h-.06l-.03.06h-.05c-.02.03-.04.06-.06.08h-.05l-.05.05h-.06v.03h-.05v.03h-.05c-.01.02-.02.04-.03.05h-.06c-.01.02-.02.04-.03.05h-.05v.03h-.06v.03c-.09.03-.18.05-.27.08-.02.03-.04.05-.06.08h-.05c-.01.02-.02.04-.03.05-.09.03-.18.05-.28.08v.03h-.05v.03h-.05l-.03.06h-.06v.03h-.05v.03h-.08v.03h-.11v.03c-.05.02-.11.04-.17.05v.03h-.05v.03h-.06v.03h-.05v.03l-.3.06v.03c-.05.02-.11.04-.17.06v.03h-.05v.03c-.15.03-.29.05-.44.08v.03h-.05v.03c-.05.02-.11.04-.16.05v.03c-.18.03-.37.05-.55.08l-.63.19-.71.06v.03h-.22c-.07.02-.12.05-.22.05v.11h-2.64v-.11l-.16-.03v-.03h-.22v-.03h-.19v-.03l-.55-.03c-.19-.06-.38-.13-.58-.19h-.19v-.03l-.28-.03v-.03h-.08v-.03h-.05v-.03l-.11-.03v-.03h-.08v-.03c-.13-.02-.26-.04-.38-.05v-.03a.983.983 0 00-.16-.05v-.03h-.06v-.03h-.06v-.03h-.05v-.03l-.3-.06v-.03h-.05v-.03h-.05v-.03a.983.983 0 00-.16-.05v-.03l-.19-.03v-.03l-.11-.03v-.03h-.05c-.01-.02-.02-.04-.03-.05-.08-.03-.16-.06-.25-.08v-.03l-.11-.03v-.03h-.06c-.01-.02-.02-.04-.03-.05H7.1v-.03c-.15.05-.19.04-.22.03v-.03l-.14-.03v-.03h-.05c-.01-.02-.02-.04-.03-.05h-.05a.922.922 0 01-.05-.08H6.5v-.03h-.06v-.03h-.05l-.05-.05h-.05a.922.922 0 01-.05-.08h-.06l-.03-.06c-.06-.02-.11-.04-.17-.05-.01-.02-.02-.04-.03-.05H5.9c-.02-.03-.04-.05-.05-.08h-.06c-.01-.02-.02-.04-.03-.05-.06-.02-.11-.04-.16-.06l-.11-.14-.11-.03a.21.21 0 01-.04-.06h-.05l-.11-.14h-.06l-.03-.06-.11-.03c-.02-.03-.04-.05-.05-.08l-.11-.08-.03-.06h-.06l-.11-.14h-.05c-.09-.1-.18-.2-.28-.3h-.05c-.01-.02-.02-.04-.03-.05h-.05c-.12-.13-.24-.26-.36-.38-.1-.09-.2-.18-.3-.28-.01-.03-.02-.05-.03-.08-.06-.05-.13-.11-.19-.17v-.06h-.03c-.03-.02-.06-.06-.09-.09l-.11-.08v-.05h-.03c-.02-.05-.03-.06-.05-.12-.15-.04-.12-.12-.19-.22l-.11-.08v-.06c-.03-.02-.05-.04-.08-.05v-.05l-.06-.03v-.05c-.03-.02-.05-.04-.08-.06-.01-.03-.02-.05-.03-.08-.02-.01-.04-.02-.05-.03l-.03-.12c-.02-.01-.04-.02-.05-.03v-.05c-.04-.03-.07-.06-.11-.08v-.05h-.03v-.06c-.02-.01-.04-.02-.05-.03l-.03-.11c-.04-.03-.07-.06-.11-.08v-.05h-.03v-.06H1.9v-.08h-.03v-.05c-.02-.01-.04-.02-.05-.03v-.06c-.03-.02-.05-.04-.08-.05V20c-.02-.01-.04-.02-.05-.03-.03-.08-.06-.16-.08-.25a.555.555 0 01-.08-.06v-.05H1.5l-.03-.11h-.03c-.03-.08-.05-.17-.08-.25h-.03c-.01-.03-.02-.05-.03-.08l-.06-.03v-.08h-.03v-.08h-.03v-.08h-.03v-.08h-.03v-.05c-.02-.01-.04-.02-.05-.03-.02-.06-.04-.11-.05-.17H.99c-.02-.09-.04-.18-.05-.27H.91v-.06H.88v-.05l-.06-.03-.03-.11H.76c-.02-.11-.04-.22-.05-.33H.68v-.08H.65v-.05c-.02-.01-.04-.02-.05-.03-.01-.04-.02-.09-.03-.14H.54l-.06-.44H.45l-.03-.17H.39v-.05H.36c-.01-.05-.02-.11-.03-.17H.3a9.14 9.14 0 01-.05-.52H.22v-.16H.19v-.11H.16v-.08H.13v-.11H.1c-.03-.23-.05-.46-.08-.69v-.47c-.04-.28-.02-.71-.02-1.06 0-.3-.01-.6.05-.82v-.61h.03v-.19h.03v-.28h.03v-.11h.03v-.11H.2v-.08h.03l.03-.27h.03l.03-.41c.06-.18.13-.37.19-.55.01-.13.02-.25.04-.36h.03v-.06h.03v-.08c.02-.01.04-.02.05-.03v-.05h.03V9.3h.03c.02-.12.04-.24.05-.36H.8c.01-.04.02-.08.03-.11.02-.01.03-.02.05-.03v-.05h.03V8.7h.03c.03-.12.05-.24.08-.36.02-.02.04-.03.06-.04.01-.03.01-.07.02-.11.02-.01.04-.02.05-.03.02-.05.03-.1.03-.16h.03v-.05h.03v-.08c.02-.02.04-.03.06-.03 0-.03.01-.06.02-.09h.03V7.7h.03c.01-.04.02-.08.03-.11h.03v-.08h.03v-.08h.03v-.05c.03-.02.05-.04.08-.05v-.05l.04-.08v-.06h.03v-.06h.03V7c.02 0 .04-.01.06-.02v-.05c.03-.02.05-.04.08-.05v-.05c.02-.02.03-.03.05-.04.01-.04.02-.09.03-.14h.03V6.6c.02-.01.04-.02.05-.03v-.06c.03-.01.06-.03.09-.05V6.4c.01 0 .03-.01.05-.02.02-.05.04-.11.05-.16.04-.03.07-.06.11-.08v-.05a.21.21 0 01.06-.04l.03-.11c.02-.01.03-.02.05-.03v-.03c.02-.01.04-.02.05-.03v-.06c.03-.01.06-.03.09-.04V5.7c.02-.02.04-.03.06-.04v-.05c.04-.04.09-.07.13-.11v-.06c.02-.01.04-.02.05-.03.01-.03.02-.05.03-.08l.11-.08V5.2l.11-.08c.22-.3.48-.54.74-.8.19-.2.38-.4.58-.6h.06l.03-.06h.05l.25-.28c.03-.01.06-.02.08-.03.03-.03.06-.07.08-.11h.05c.02-.01.03-.03.04-.05l.11-.03.11-.14h.05v-.03c.03-.01.05-.02.08-.03.01-.02.02-.04.03-.05h.05c.04-.03.06-.07.09-.11h.05c.01-.01.02-.03.03-.05l.11-.03c.01-.02.02-.04.03-.05h.05c.03-.04.06-.07.08-.11h.05L6 2.5h.05v-.03h.06c.01-.02.02-.04.03-.05h.06c.02-.03.04-.05.05-.08h.05l.03-.06h.08v-.03h.06v-.03h.05c.02-.02.04-.05.06-.08h.05c.01-.02.02-.04.03-.05.1-.04.2-.07.3-.11.02-.03.04-.06.05-.08h.05v-.03l.11-.03v-.03c.07-.01.12-.01.17-.02.01-.02.02-.04.03-.05h.05c.01-.02.02-.04.03-.05h.05v-.03h.05v-.03c.08-.02.14-.03.21-.04v-.03l.11-.03V1.5c.03 0 .07-.01.11-.02.01-.01.02-.03.02-.05h.05V1.4c.1-.02.2-.04.3-.05.13-.06.26-.13.38-.19.13-.02.24-.04.35-.06v-.03h.05v-.03h.08v-.03c.04 0 .08-.01.12-.02V.96h.08V.93c.15-.01.31-.03.46-.05V.85h.11V.82h.08V.79h.08V.76h.05V.73h.11V.7h.16V.67h.16V.64l.55-.03c.1-.03.17-.07.3-.08.03-.02.03-.05.03-.09zm55.07 8.52c-.02-.06-.02-.07-.05-.11h-.03v-.06h-.03c-.02-.03-.04-.05-.05-.08l-.06-.03-.03-.11h-.03l-.03-.22h-.03v-.08h-.03v-.08h-.03v-.08h-.03c-.05-.15.05-.54.08-.63h.03l.03-.22h.03l.03-.11c.04-.03.07-.06.11-.08v-.05c.03-.02.05-.03.07-.04v-.05l.11-.08.03-.06h.05l.08-.11.11-.03v-.03h.05v-.03h.06v-.03c.05-.02.11-.04.17-.06v-.03l.19-.03v-.03h.5v.03h.14v.03h.08v.03h.06v.03h.08v.03l.11.03v.03h.08c.01.02.02.04.03.05h.05c.06.06.11.13.17.19.04.02.07.04.11.05v.05c.02.01.04.02.05.03v.05h.03c.01.03.02.06.03.08.03.02.05.04.08.06.11.17.16.75.08 1.02v.19h-.03v.08h-.03v.08c-.03.02-.05.04-.08.06v.05c-.02.01-.04.02-.05.03v.05l-.3.33h-.06c-.01.02-.02.04-.03.05h-.05v.03l-.14.03c-.01.02-.02.04-.03.05h-.05l-.03.06-.19.03v.03c-.1.03-.73 0-.8-.03v-.03l-.11-.03v-.03h-.05c-.02.02-.02 0-.03-.02-.06-.02-.11-.04-.17-.06-.01-.02-.02-.04-.03-.05h-.06c-.06-.05-.04-.1-.16-.14zm10.89 11c.03-.09.08-.13.14-.19h.03v-.06c.03-.02.05-.04.08-.06v-.05h.03v-.05h.03v-.08h.03c.05-.15-.07-.47-.11-.55h-.03v-.05c-.02-.01-.04-.02-.05-.03v-.05h-.03v-.05h-.03v-.08h-.03v-.08h-.03v-.08h-.03v-.08h-.03v-.05c-.02-.01-.04-.02-.05-.03l-.03-.14h-.03v-.05h-.03c-.02-.09-.04-.18-.05-.28l-.06-.03v-.05c-.02-.01-.04-.02-.05-.03l-.03-.11h-.03v-.14h-.03c-.03-.07-.02-.16-.06-.22-.02-.01-.04-.02-.05-.03v-.06c-.02-.01-.04-.02-.05-.03v-.05h-.03c-.03-.13-.06-.26-.08-.38-.02-.01-.04-.02-.05-.03-.01-.03-.02-.05-.03-.08h-.03c-.04-.11-.07-.22-.11-.33v-.08h-.03v-.05l-.06-.03v-.05c-.02-.01-.04-.02-.05-.03v-.08h-.03v-.08h-.03v-.08h-.03v-.08h-.03a.983.983 0 01-.05-.16h-.03v-.06h-.03v-.08h-.03v-.05h-.03l-.03-.19h-.03v-.06h-.03v-.05c-.02-.01-.04-.02-.05-.03a.983.983 0 01-.05-.16h-.03l-.03-.22h-.03c-.02-.05-.04-.11-.06-.16-.02-.01-.04-.02-.05-.03v-.06h-.03c-.03-.12-.06-.24-.08-.36h-.03l-.03-.11c-.02-.01-.04-.02-.05-.03v-.05h-.03v-.06h-.03c-.03-.12-.05-.24-.08-.36-.02-.01-.04-.02-.05-.03v-.05l-.06-.03c-.01-.04-.02-.09-.03-.14h-.03v-.08h-.03v-.08c-.02-.05-.19-.4-.22-.41h-.06c-.07-.08-.29-.05-.44-.05-.41 0-.9-.04-1.26.03-.01.03-.02.05-.03.08-.06.07-.03.34-.03.47v4.54c0 .59.04 1.31-.06 1.82-.07.04-.15.07-.22.11H70.98v-.03l-.11-.03c-.16-.35-.08-1.13-.08-1.62v-3.57-1.24c0-.22.03-.41-.11-.5-.09-.09-.73-.05-.91-.08-.03-.06-.06-.06-.08-.14-.08-.08-.05-.31-.05-.47v-1.24h.03v-.11l.06-.03c.05-.07-.03-.05.08-.08.2-.19.75.13.94-.16.08-.08.05-.28.05-.44 0-.26 0-.51.05-.71V9h.03l.03-.16h.03v-.05h.03v-.08H71v-.06h.03v-.08h.03v-.08h.03v-.08h.03v-.05h.03V8.3c.03-.02.05-.04.08-.05v-.06l.06-.03.03-.11c.02-.01.04-.02.05-.03v-.05l.22-.19c.04-.04.07-.09.11-.14h.05l.11-.14h.05c.01-.02.02-.04.03-.05.1-.04.2-.07.3-.11v-.03h.05v-.03c.06-.02.11-.04.16-.06v-.03h.08v-.03c.3-.04.61-.07.91-.11.25-.07.61-.01.83.05h.22v.03h.25v.03h.25v.03c.09.02.18.04.27.05l.03.06c.07.05.05-.03.08.08.09.09.05.4.05.58v.88c0 .12.02.31-.03.38h-.03c-.06.08-.1.08-.25.08v-.03l-.17-.03v-.03h-.14v-.03h-.14v-.03h-.17v-.03h-.19v-.03c-.16-.05-.47 0-.6.05v.03c-.08.02-.17.04-.25.05l-.08.11h-.03v.06l-.06.03v.05c-.02.01-.04.02-.05.03v.05c-.02.01-.04.02-.05.03v.06h-.03v.11c-.06.19-.07.51-.03.71.03.01.05.02.08.03.05.04.16.03.25.03h2.4c.28 0 .63-.04.8.08.03.02.12.21.14.25v.11h.03v.11h.03v.06h.03v.05h.03c.02.05.04.11.05.17h.03v.11h.03v.08h.03v.11h.03c.02.06.04.11.05.17.02.01.04.02.05.03v.05h.03c.03.13.05.26.08.38h.03v.05h.03v.06h.03c.02.05.04.11.05.16h.03v.08h.03v.14h.03v.08h.03v.08c.02.01.04.02.05.03v.05h.03l.03.11h.03c.03.13.06.26.08.39.02.01.04.02.05.03l.03.11h.03l.03.11h.03l.03.25H78c.02.05.04.11.05.16h.03v.06h.03v.05h.03c.03.13.05.26.08.38h.03v.05h.03v.05c.02.01.04.02.05.03l.03.11h.03v.11h.03v.08h.03v.08h.03v.08h.03v.08h.03v.05h.03c.02.05.04.11.05.17h.03l.06.3h.03v.05c.02.01.04.02.05.03v.08h.03v.05h.03v.11h.03c.06.15-.01.21.19.22.03-.06.09-.13.11-.19l.03-.19h.03v-.05h.03c.02-.06.04-.11.06-.17h.03c.02-.11.04-.22.05-.33h.03v-.05h.03l.03-.14h.03v-.06h.03v-.08h.03c.02-.11.04-.22.05-.33h.03v-.06h.03v-.05h.03c.02-.05.04-.11.05-.16h.03l.06-.33c.06-.14.13-.28.19-.41.02-.1.04-.2.05-.3h.03l.03-.11h.03v-.05l.06-.03v-.08h.03v-.11h.03v-.14h.03v-.14h.03l.03-.11h.03v-.06c.02-.01.04-.02.05-.03.01-.04.02-.09.03-.14h.03l.06-.33h.03v-.06h.03c.02-.05.04-.11.05-.17h.03v-.08h.03l.06-.36h.03v-.05c.02-.01.04-.02.05-.03.02-.06.04-.11.06-.17h.03v-.14c.05-.16.11-.31.17-.47.06-.06.13-.11.19-.16h1.54c.17 0 .49-.05.6.03v.03c.08.07.08.1.08.25-.04.13-.07.26-.11.38h-.03v.05c-.02.01-.04.02-.05.03v.08h-.03v.05h-.03v.08h-.03l-.03.22h-.03c-.02.06-.04.11-.05.17l-.06.03v.05h-.03c-.03.13-.05.26-.08.38H83v.06c-.02.01-.04.02-.05.03l-.03.11h-.03c-.03.13-.06.26-.08.38h-.03v.05c-.02.01-.04.02-.05.03-.02.05-.04.11-.05.17h-.03c-.02.1-.04.2-.05.3h-.03v.06h-.03v.05h-.03c-.02.05-.04.11-.05.16h-.03c-.02.09-.04.18-.05.28h-.03v.05h-.03v.06h-.03c-.02.05-.04.11-.05.16h-.03c-.03.13-.05.26-.08.38h-.03l-.03.11-.06.03v.05h-.03v.08h-.03v.11h-.03v.08h-.03v.08h-.03v.08h-.03v.05h-.03c-.02.05-.04.11-.05.16h-.03c-.02.1-.04.2-.05.3h-.03v.06h-.03v.06c-.02.01-.04.02-.05.03l-.03.11h-.03c-.03.13-.06.26-.08.38h-.03v.05c-.02.01-.04.02-.05.03-.02.06-.04.11-.06.17h-.03c-.02.1-.04.2-.05.3h-.03c-.02.05-.04.11-.05.16h-.03v.06h-.03c-.03.12-.05.24-.08.36h-.03l-.03.11h-.03v.05c-.02.01-.04.02-.05.03v.08h-.03v.11h-.03v.08h-.03v.08h-.03v.08h-.03v.05h-.03v.06h-.03c-.02.05-.04.11-.05.17h-.03c-.02.1-.04.2-.05.3h-.03c-.02.05-.04.11-.05.16h-.03v.06h-.03v.06h-.03c-.03.12-.05.24-.08.36h-.03v.05h-.03c-.02.05-.04.11-.05.16h-.03c-.02.09-.04.18-.05.27h-.03l-.03.11h-.03v.05c-.02.01-.04.02-.05.03l-.03.11h-.03v.11h-.03c-.02.06-.04.11-.05.17h-.03v.05c-.03.02-.05.04-.08.05-.04.1-.07.2-.11.3l-.11.08v.05c-.02.01-.04.02-.05.03l-.03.11-.06.03c-.01.03-.02.05-.03.08-.03.01-.05.02-.08.03v.05c-.02.01-.04.02-.05.03v.06c-.03.02-.06.04-.08.06v.03h-.03c-.01.02-.02.04-.03.05h-.05c-.04.04-.07.09-.11.14l-.11.03-.03.06h-.06l-.08.11c-.22.09-.44.18-.66.28l-.52.03v.03c-.13.04-.65 0-.74-.03h-.41v-.03l-.33-.06v-.03h-.06v-.03l-.14-.03v-.03c-.14-.03-.27-.05-.41-.08v-.03h-.05c-.01-.02-.02-.04-.03-.05h-.05l-.03-.06h-.05v-.03l-.14-.03c-.01-.02-.02-.04-.03-.05-.08-.07-.1-.09-.11-.25h.03l.03-.17c.02-.01.04-.02.05-.03v-.05c.02-.01.04-.02.05-.03v-.05H75l.03-.11h.03l.03-.19h.03v-.05l.06-.03v-.06h.03l.03-.11h.03v-.08h.03v-.08h.03l.03-.11h.03v-.05c.02-.01.04-.02.05-.03.08-.12.03-.23.19-.28v-.03l.28.03v.03l.11.03v.03h.05c.01.02.02.04.03.05.05.01.11.02.17.03v.03h.14v.03h.19v.03h.25v.03c.16-.03.31-.05.47-.08l.03-.06h.05v-.03c-.02.02-.01-.01.06-.03zM11.3 7.37v.03h.11v.03h1.37v.03h.08v.03h.11v.03h.58v.03h.47v.03h.25v.03h.22c.19.05.42.08.6.14h.25v.03h.14s0 .02.06.03h.25v.03h.17v.03h.14v.03h.08v.03h.08v.03h.08v.03h.11v.03c.19.02.38.04.58.05v.03l.17.03v.03h.08v.03h.08v.03h.08v.03l.44.06v.03l.17.03v.03h.06v.03h.08v.03h.08v.03h.08v.03l.33.06v.03h.08v.03l.11.03v.03h.05v.03c.05.01.11.02.17.03v.03l.25.03v.03c.05.02.11.04.17.05v.03h.05v.03h.05v.03c.1.02.2.04.3.05v.03l.11.03c.01.02.02.04.03.05h.05v.03h.06v.03h.05v.03h.11v.03h.08v.03h.05v.03h.05c.01.02.02.04.03.05h.05v.03l.11.03v.03h.11v.03h.08v.03l.11.03v.03h.06c.02.03.04.05.05.08.1.04.2.07.3.11.02.03.04.05.05.08h.05c.01.02.02.04.03.05l.14.03v.03h.08V10h.05l.03.06h.05c.07-.1.09-.06.12-.02h.05c.01.02.02.04.03.05h.06l.08.11h.03v.05l.05.06v.06h.03v.05h.03v.05h.03v.05c.02.01.04.02.05.03v.05h.03c.07.15.07.56 0 .72h-.03v.05h-.03v.06l-.06.03c-.02.05-.04.11-.05.17l-.11.08v.06l-.05.05h-.06l-.08.11h-.06l-.03.06c-.15.1-.29.14-.55.14H21v-.03h-.08v-.03h-.05v-.03h-.06c-.01-.02-.02-.04-.03-.05h-.05l-.03-.06h-.08v-.03h-.05v-.03h-.08c-.01-.02-.02-.04-.03-.05h-.05l-.08-.11h-.08v-.03h-.05v-.03h-.08v-.03l-.11-.03v-.03h-.05c-.01-.02-.02-.04-.03-.05h-.05c-.01-.02-.02-.04-.03-.05h-.08v-.03h-.08v-.03h-.08v-.03h-.08v-.03h-.05c-.01-.02-.02-.04-.03-.05h-.05v-.03l-.11-.03v-.03h-.11v-.03h-.08v-.03a.983.983 0 00-.16-.05v-.03h-.05v-.03h-.06V11h-.08v-.03h-.08v-.03h-.14v-.03h-.11v-.03c-.05-.02-.11-.04-.16-.06v-.03h-.05v-.03h-.05v-.03c-.12-.02-.24-.04-.36-.05v-.03c-.08-.02-.16-.04-.25-.06v-.03h-.05v-.03h-.08v-.03c-.14-.02-.27-.04-.41-.05-.18-.06-.37-.13-.55-.19l-.36-.03c-.24-.07-.51-.12-.74-.19l-.5-.03c-.32-.09-.75-.1-1.07-.19h-.38v-.03h-.74c-.29-.08-.71-.05-1.07-.05h-1.24c-.29.06-.51.07-.73.08v.03l-1.04.03c-.32.09-.72.1-1.05.19l-.47.03v.03h-.11v.03l-.19.03v.03h-.08v.03l-.25.03v.03h-.16v.03h-.14v.03h-.11v.03h-.11v.03h-.08v.03h-.06v.03H5.7v.03h-.08v.03h-.14v.03h-.39v-.03l-.25-.03c-.01-.02-.02-.04-.03-.05a.689.689 0 01-.08-.03v-.03l-.11-.03-.03-.06h-.05v-.03h-.05v-.03c-.02-.01-.04-.02-.05-.03v-.05l-.19-.16v-.06h-.03V9.9h-.03v-.08h-.03v-.11c-.04-.11-.14-.31-.08-.5h.03v-.08h.03v-.08h.03v-.11h.03v-.08h.03v-.05h.03v-.05l.22-.19.08-.11h.05c.01-.08.04-.12.07-.16h.06v-.03h.06v-.03h.08v-.03h.14v-.03h.08v-.03h.08v-.03h.08v-.03h.05v-.03c.11-.02.22-.04.33-.05v-.03l.3-.03v-.03h.11v-.03h.08v-.03c.07.02.13.01.2 0v-.03c.17-.01.34-.03.52-.05v-.03h.14v-.03h.16v-.03l.36-.03v-.03h.08V7.6h.16v-.03h.28v-.03h.22v-.03h.44v-.03h.58v-.03h.17c.21-.07.48-.06.77-.06.21 0 .57.05.69-.05.13.03.27.03.4.03zm26.51 3.33c-.08.02-.16.09-.28.05v-.03h-.08l-.11-.14h-.05c-.01-.02-.02-.04-.03-.05l-.11-.03c-.01-.02-.02-.04-.03-.05h-.05c-.02-.03-.04-.05-.05-.08h-.05l-.06-.06c-.05-.02-.11-.04-.16-.06-.01-.02-.02-.04-.03-.05h-.05c-.02-.03-.04-.05-.05-.08-.11-.04-.22-.07-.33-.11v-.03h-.06v-.03h-.05l-.03-.06-1.07-.3h-.47v-.03h-.14v.03l-.6.03c-.2.09-.4.18-.61.27l-.16.19c-.06.04-.11.09-.17.14v.06c-.02.01-.04.02-.05.03v.06h-.03v.11c-.03.1-.1.31-.05.47h.03l.03.33h.03v.06c.02.01.04.02.05.03v.06l.14.11c.01.03.02.05.03.08h.05c.02.03.04.06.05.08h.05v.03c.03.01.06.02.08.03.02.03.04.05.05.08h.05v.03l.11.03v.03h.11v.03h.08v.03l.11.03v.03h.05c.01.02.02.04.03.05.14.03.28.06.41.08v.03c.05.01.11.02.17.03v.03l.11.03v.03h.08v.03c.18.03.37.06.55.08v.03h.11v.03h.08v.03h.08v.03h.08v.03h.08v.03l.3.03v.03l.17.03v.03l.11.03v.03h.08v.03h.08v.03h.08v.03c.1.02.2.04.3.05v.03h.05c.01.02.02.04.03.05l.11.03v.03l.25.06v.03l.11.03v.03h.05c.01.02.02.04.03.05h.05v.03h.05v.03h.06v.03h.05l.05.05h.06l.08.11h.05l.03.06.11.03c.05.05.09.11.14.16h.05c.03.04.06.07.08.11h.05l.08.11h.03v.05l.11.08v.06l.14.11v.05c.02.01.04.02.05.03l.03.11c.02.01.04.02.05.03v.05c.03.02.05.04.08.06.03.09.06.18.08.27v.11h.03c.02.05.04.11.05.16h.03v.08h.03v.14c.07.23.06.55.06.85v.44h-.03l-.03.33h-.03v.08h-.03v.05h-.03v.08h-.03v.06h-.03l-.06.36h-.03v.05c-.03.02-.05.04-.08.06v.05c-.02.01-.04.02-.05.03v.05h-.03v.05h-.03v.06l-.05.05v.06l-.11.08-.03.11c-.05.05-.11.09-.17.14v.06l-.17.14c-.01.02-.02.04-.03.05h-.05l-.14.17h-.05c-.03.04-.06.07-.08.11h-.05c-.01.02-.02.04-.03.05h-.06l-.03.06-.11.03-.03.06h-.06c-.02.03-.04.05-.05.08h-.06v.03h-.05v.03h-.08v.03h-.08v.03h-.08v.03H37l-.03.06h-.05v.03h-.06v.03h-.08v.03c-.15.03-.29.05-.44.08-.45.19-1.03.16-1.68.16-.31 0-.65.01-.88-.05h-.28c-.17-.06-.33-.11-.49-.16l-.3-.03c-.14-.06-.28-.13-.41-.19l-.22-.03c-.12-.07-.24-.15-.36-.22-.05-.01-.11-.02-.17-.03-.01-.02-.02-.04-.03-.05-.03-.01-.05-.02-.08-.03v-.03h-.06v-.03l-.11-.03v-.03h-.08v-.03h-.05v-.03h-.06l-.03-.06H31a.922.922 0 01-.05-.08c-.06-.02-.11-.04-.17-.05-.01-.02-.02-.04-.03-.05h-.06l-.08-.11h-.06c-.01-.02-.02-.04-.03-.05l-.11-.03-.03-.06h-.05c-.04-.04-.07-.09-.11-.14h-.06c-.01-.02-.02-.04-.03-.05h-.05c-.08-.09-.17-.18-.25-.28v-.16c.06-.05.09-.15.14-.22.06-.06.13-.11.19-.16v-.06l.11-.08v-.05c.03-.02.05-.04.08-.05.03-.04.06-.07.08-.11h.03v-.06l.11-.08c.01-.03.02-.05.03-.08.03-.02.05-.04.08-.06.06-.07.02-.1.14-.14.04-.16.26-.38.47-.38.05.05.06.02.11.05.03.04.06.07.08.11h.05l.03.06h.05c.05.05.09.11.14.16l.11.03c.01.02.02.04.03.05h.06l.11.14c.05.02.11.04.17.05.01.02.02.04.03.05h.06c.02.03.04.05.05.08h.05c.01.02.02.04.03.05h.06l.05.06h.05v.03h.06v.03h.05c.01.02.02.04.03.05h.05v.03l.11.03v.03l.22.03v.03c.06.02.11.04.17.05.01.02.02.04.03.05h.06v.03h.11v.03h.14v.03h.19c.27.08.63.11.91.19h.19v-.03h.27v-.03h.11v-.03h.11v-.03c.19-.04.39-.07.58-.11v-.03h.05c.02-.03.04-.06.05-.08h.06c.01-.02.02-.04.03-.05h.05l.03-.06h.05v-.03h.06v-.03c.02-.01.04-.02.05-.03v-.05l.17-.14v-.06h.03l.03-.11h.03c.01-.05.02-.11.03-.17.03-.09.1-.31.05-.47-.05-.15-.09-.29-.14-.44-.03-.02-.05-.04-.08-.05l-.22-.25h-.05l-.05-.05h-.05v-.03h-.06l-.03-.06c-.03-.01-.05-.02-.08-.03v-.03c-.08-.03-.17-.06-.25-.08h-.08v-.03h-.06v-.03h-.05c-.01-.02-.02-.04-.03-.05l-.11-.03v-.03l-.3-.03v-.03h-.11v-.03h-.05v-.03h-.08v-.03h-.08v-.03h-.08v-.03h-.08v-.03c-.16-.02-.31-.04-.47-.05v-.03h-.08v-.03l-.19-.03v-.03h-.05v-.03l-.19-.03v-.03c-.17-.03-.33-.06-.5-.08v-.03h-.05v-.03a.845.845 0 00-.17-.05v-.03c-.13-.03-.26-.06-.38-.08-.01-.02-.02-.04-.03-.05a.689.689 0 01-.08-.03v-.03c-.14-.05-.27-.09-.41-.14v-.03c-.03-.01-.05-.02-.08-.03l-.03-.06h-.05v-.03h-.05l-.06-.05h-.05c-.01-.02-.02-.04-.03-.05h-.05c-.03-.04-.06-.07-.08-.11l-.11-.03-.11-.14c-.03-.02-.05-.04-.08-.05v-.03h-.05c-.01-.03-.02-.05-.03-.08l-.25-.22v-.05c-.05-.05-.11-.09-.16-.14-.03-.08-.05-.17-.08-.25l-.06-.03v-.06c-.02-.01-.04-.02-.05-.03v-.06h-.03c-.02-.12-.04-.24-.05-.36h-.03v-.11h-.03v-.08h-.03v-.11h-.03l-.03-.27h-.03v-.5-.41h.03v-.08h.03v-.08h.03v-.14h.03v-.14h.03v-.11h.03c.02-.11.04-.22.05-.33h.03V9.6c.02-.01.04-.02.05-.03v-.06h.03v-.05h.03v-.05h.03v-.05h.03v-.08h.03v-.05h.03v-.06l.11-.08v-.05c.02-.01.04-.02.05-.03v-.06l.14-.11v-.05l.11-.08v-.05l.14-.11.03-.06h.05c.02-.03.04-.05.06-.08h.05l.11-.14h.05l.03-.06h.05c.03-.04.06-.07.08-.11h.05c.01-.02.02-.04.03-.05.06-.02.13-.04.19-.05v-.03h.06v-.03h.05l.03-.06h.06v-.03l.11-.03v-.03c.05-.01.11-.02.17-.03v-.03h.08V7.7l.11-.03v-.03h.08v-.03h.08v-.03h.11v-.03h.14v-.03h.22v-.03h.19v-.03h.08v-.03h.08V7.4h1.15l.41.03v.03h.22v.03h.19v.03l.36.03v.03h.11v.03h.08v.03h.08v.03h.08v.03h.08v.03h.08v.03c.11.02.22.04.33.05v.03l.11.03.03.06h.05v.03h.06v.03l.19.03v.03l.11.03v.03h.06l.03.06h.05v.03h.05v.03h.06l.05.06h.05c.01.02.02.04.03.05h.06c.02.03.04.05.05.08h.06c.01.02.02.04.03.05h.05v.03h.05l.06.06h.05l.08.11h.06c.01.02.02.04.03.05h.05c.1.09.2.18.3.28v.16c-.05.05-.02.05-.05.11h-.03v.05c-.02.01-.04.02-.05.03v.05c-.03.02-.05.04-.08.05v.05c-.03.02-.05.04-.08.05-.02.06-.04.11-.05.17l-.14.11v.05h-.03c-.01.03-.02.06-.03.08l-.06.03v.05l-.11.08v.05h-.03c-.01.03-.02.05-.03.08l-.06.03v.06l-.11.08v.05c-.02.01-.04.02-.05.03v.05h-.03v.05h-.03c.05.04.04.07.03.1zm23.73 8.36V19c-.04-.03-.07-.06-.11-.08v-.05l-.17-.14v-.06h-.03v-.06h-.03v-.08h-.03v-.05l-.06-.03v-.05c-.02-.01-.04-.02-.05-.03l-.03-.19H61l-.03-.25h-.03v-.08h-.03v-.11h-.03v-.25h-.03v-.11h-.03v-.14h-.03v-1.13-2.25c0-.4.04-.88-.03-1.24-.05-.03-.04-.04-.11-.05-.05-.04-.16-.03-.25-.03-.19 0-.4 0-.55-.03-.04-.07-.11-.14-.14-.22v-.49c0-.4-.04-.88.03-1.24l.11-.08v-.03l.11-.03v-.03h.14c.24 0 .52.1.63-.08.1-.1.05-.42.05-.6 0-.52-.03-1.13.06-1.57.11-.04.16-.11.24-.14h1.35c.24 0 .52-.01.69.05.16.37.08 1.19.08 1.7 0 .26-.05.55.17.61.11.11.33.03.5.03h1.02c.14 0 .29 0 .38.03h.11v.03c.12.05.12.03.19.14h.03v.11c.06.07.03.32.03.44 0 .44.01.93-.05 1.29-.05.03-.11.09-.17.11H63.4v.03c-.05.02-.07.01-.11.03-.15.27-.08.91-.08 1.32v2.64h.03v.14h.03v.11h.03v.22c.02.07.07.14.08.22l.11.08v.03h.05c.01.02.02.04.03.05l.14.03v.03l.11.03v.03l.17.03v.03c.17.05.61-.04.72-.08v-.03h.08v-.03l.25-.03c.06-.02.28-.15.38-.11.07.03.11.12.17.17v1.18c0 .12.03.37-.03.44-.04.15-.14.15-.25.22-.02.03-.04.06-.05.08l-.11.03v.03c-.1.02-.2.04-.3.05v.03h-.08v.03h-.08v.03h-.08v.03l-.22.03v.03h-.19c-.2.06-.96.06-1.16 0h-.25v-.03h-.11v-.03a.845.845 0 00-.17-.05v-.03h-.08v-.03c-.1-.02-.2-.04-.3-.05v-.03l-.11-.03-.08-.11h-.06c-.01-.02-.02-.04-.03-.05l-.11-.03v-.03c-.09-.07-.12-.11-.2-.13zm-19.19-.33c-.03.68 0 1.56 0 2.34 0 .34.05.82-.05 1.07-.23.1-.47.08-.8.08-.49 0-1.05.02-1.46-.06a.689.689 0 00-.03-.08c-.07-.08-.03-.53-.03-.74v-2.06-5.88-1.79-.69l-.03-.22h.03v-.11c.01-.02.04 0 .05-.08.03-.01.05-.02.08-.03v-.03h.05v-.03h.11v-.03h1.29c.35 0 .52-.02.69.16.02.01.04.02.05.03.04.06.06.33.03.44h-.03l.03.28c.04.02.07.02.14.03.05-.06.13-.06.19-.11.05-.06.09-.13.14-.19l.11-.03v-.03c.03-.01.05-.02.08-.03l.03-.06h.05l.08-.11c.06-.02.11-.04.17-.05l.03-.06h.05c.02-.03.04-.06.05-.08l.11-.03v-.03c.11-.02.22-.04.33-.05v-.03h.05v-.03c.1-.04.2-.07.3-.11h.22v-.03l.96-.03v.03h.36v.03h.14v.03h.14v.03h.11v.03h.11v.03h.08v.03h.05v.03l.17.03v.03l.19.03v.03l.11.03.03.06h.05l.06.06c.05.02.11.04.17.05.01.02.02.04.03.05h.05c.02.03.04.05.05.08h.06c.01.02.02.04.03.05l.11.03.03.06h.05l.08.11h.06c.01.02.02.04.03.05h.05c.02.03.04.05.05.08h.03c.03.05.05.09.08.14h.05c.01.02.02.04.03.05h.03c.04.05.07.11.11.16h.06v.03c.03.02.05.04.08.06l.03.11h.03c.01.03.02.05.03.08.02.01.04.02.05.03v.06l.11.08v.06l.06.05v.05h.03v.05c.03.02.05.04.08.06v.06l.06.03v.08h.03v.05h.03c.01.05.02.11.03.17h.03l.03.11H49v.05c.02.01.04.02.05.03v.08h.03v.08h.03v.14h.03c.01.05.02.11.03.17h.03v.06h.03v.08h.03v.11h.03v.14h.03v.17h.03v.41h.03v.19h.03l-.03.6c0 .05.03.05.03.05l-.03.39h-.03v.38h-.03v.19h-.03v.11h-.03v.11h-.03c-.01.05-.02.11-.03.17h-.03v.06h-.03c-.03.13-.05.26-.08.38h-.03l-.03.11-.06.03v.06h-.03v.08h-.03v.08h-.03v.08h-.03v.05h-.03v.06l-.11.08v.06l-.05.05v.05h-.03v.05c-.02.01-.04.02-.05.03v.06l-.11.08-.03.11c-.02.01-.04.02-.05.03v.05c-.1.09-.2.18-.3.28-.08.09-.17.18-.25.28h-.05c-.02.03-.04.05-.06.08h-.05c-.02.03-.04.05-.05.08h-.05l-.03.06-.11.03-.03.06h-.05c-.02.03-.04.05-.05.08h-.05l-.06.05h-.05v.03h-.05v.03h-.06v.03l-.11.03c-.01.02-.02.04-.03.05l-.11.03v.03l-.22.03v.03l-.17.03v.03h-.05v.03l-.17.03v.03h-.14v.03h-.14v.03h-.36c-.25.07-.55.07-.8 0h-.38v-.03h-.14v-.03h-.11v-.03c-.06-.02-.11-.04-.17-.05v-.03c-.12-.03-.24-.05-.36-.08v-.03h-.06l-.03-.06h-.05l-.03-.06h-.05v-.03h-.06v-.03h-.05v-.03h-.06l-.05-.05h-.05c-.03-.04-.06-.07-.08-.11l-.11-.03-.03-.06h-.05c-.02-.03-.04-.05-.05-.08l-.19-.16c-.07-.02-.14-.02-.2-.02zm12.04-8.48c.37 0 .86-.03 1.15.06h.25v.03h.14v.03l.16.03v.03h.06v.03c.05.01.11.02.17.03v.03c.11.02.22.04.33.05v.03l.11.03v.03h.05l.03.06.11.03v.03h.11v.03l.11.03v.03h.05c.02.03.04.05.05.08.08.03.17.05.25.08l.03.06h.05l.08.11h.05v.03c.03.01.06.02.08.03.01.02.02.04.03.05h.06l.36.39c.13.12.26.24.38.36v.05l.06.03c.01.03.02.06.03.08h.03v.05l.14.11c.04.1.07.2.11.3.03.02.05.04.08.06v.06h.03l.03.11h.03v.08h.03l.03.14c.02.01.04.02.05.03v.05c.02.01.04.02.05.03v.05h.03c.03.15.06.29.08.44h.03v.08h.03v.06h.03v.08h.03v.11h.03v.22c.1.34.1 1.17 0 1.51v.19h-.03v.11h-.03v.08h-.03v.08h-.03v.06h-.03c-.03.15-.06.29-.08.44h-.03l-.03.11c-.02.01-.04.02-.05.03v.05h-.03V17h-.03l-.03.16h-.03l-.03.11c-.03.02-.06.04-.08.05-.03.08-.05.17-.08.25-.02.01-.04.02-.05.03v.05c-.04.03-.07.06-.11.08v.05h-.03c-.01.03-.02.05-.03.08l-.06.03v.06l-.22.19v.05l-.25.22c-.03.04-.06.07-.08.11h-.05l-.19.22h-.06c-.01.02-.02.04-.03.05-.03.01-.06.02-.08.03v.03h-.06l-.08.11h-.06l-.03.06c-.04.01-.09.02-.14.03l-.03.06h-.05c-.02.03-.04.05-.05.08-.11.04-.22.07-.33.11v.03h-.05l-.03.06c-.05.02-.11.04-.16.06v.03l-.22.03v.03h-.08v.03h-.08v.03h-.08v.03h-.08v.03c-.12.02-.24.04-.36.05v.03l-.55.03c-.26.07-.81.04-1.04-.03h-.3v-.03h-.19v-.03h-.11v-.03h-.08v-.03l-.11-.03v-.03l-.17-.03v-.03l-.25-.03v-.03c-.05-.02-.11-.04-.16-.06l-.03-.06h-.05v-.03h-.05v-.03l-.17-.03v-.03l-.11-.03c-.02-.03-.04-.05-.05-.08h-.05l-.03-.06-.14-.03-.03-.06h-.06l-.08-.11h-.05c-.01-.02-.02-.04-.03-.05l-.11-.03-.19-.22h-.05l-.16-.19h-.05l-.06-.06v-.06c-.02-.01-.04-.02-.05-.03v-.05l-.22-.19-.03-.11a.922.922 0 00-.08-.05c-.01-.03-.02-.05-.03-.08-.02-.01-.04-.02-.05-.03-.02-.06-.04-.11-.06-.17-.02-.01-.04-.02-.05-.03v-.05l-.11-.08v-.06h-.03v-.05h-.03v-.08h-.03v-.08c-.02-.01-.04-.02-.05-.03V17h-.03l-.03-.11h-.03c-.01-.06-.02-.11-.03-.16h-.03l-.03-.25h-.03v-.05h-.03v-.05h-.03v-.05h-.03v-.08h-.03v-.08h-.03l-.03-.44c-.09-.32-.09-1.03 0-1.35v-.27h.03v-.16h.03v-.11h.03v-.08h.03c.02-.05.04-.11.06-.16h.03v-.11h.03v-.14h.03v-.08h.03v-.08h.03v-.06l.06-.03c.02-.06.04-.11.05-.16h.03v-.08h.03v-.08h.03v-.06l.11-.08v-.05c.02-.01.04-.02.05-.03.02-.06.04-.11.06-.16.02-.01.04-.02.05-.03v-.05l.11-.08v-.05h.03c.01-.03.02-.06.03-.08.02-.01.04-.02.05-.03v-.06c.05-.05.11-.09.17-.14v-.05c.03-.02.06-.04.08-.06.01-.02.02-.04.03-.05h.05c.05-.06.09-.13.14-.19h.05c.01-.02.02-.04.03-.05h.06l.11-.14h.05c.02-.03.04-.05.06-.08h.05c.02-.03.04-.05.06-.08h.05c.02-.03.04-.05.06-.08h.05l.06-.06h.05v-.03h.06v-.03h.05c.02-.03.04-.06.05-.08h.06v-.03l.11-.03v-.03h.08v-.03h.08v-.03h.06l.03-.06h.05l.03-.06h.05v-.03c.11-.02.22-.04.33-.05v-.03h.08v-.03h.08v-.03h.08v-.03h.08v-.03h.11v-.03h.14v-.03H54v-.03c.11-.06.31.02.39-.06zm14.36.23l.03.11h.03v8.39c0 .24.06.5-.14.55-.09.09-.35.05-.52.05h-1.16c-.23 0-.42.01-.47-.16-.1-.1-.05-.42-.05-.61v-1.62-4.23c0-.79-.04-1.65.03-2.39l.14-.11c.09-.09.37-.05.55-.05h1.35c.06 0 .13.05.21.07zm17.95.79v1.18h-.14c-.01.03-.02.06-.03.08h-.03v.05h-.03l-.03.14-.22.19-.08.11c-.05.03-.17.03-.22.06l-.11.14-.11.03v.03l-.58.03v-.03l-.44-.03c-.01-.02-.02-.04-.03-.05h-.06c-.02-.03-.04-.05-.05-.08h-.06v-.03h-.05l-.06-.06h-.05c-.01-.02-.02-.04-.03-.05l-.17-.14v-.05l-.14-.11v-.05c-.02-.01-.04-.02-.05-.03v-.08c-.07-.19-.11-.4-.11-.66h.03v-.03h.03c.01.22.14.29.22.44.03.09.05.18.08.28.03.02.06.04.08.05v.05c.03.02.05.04.08.06v.03h.06l.11.14h.06c.02.03.04.05.05.08h.05c.01.02.02.04.03.05h.11c.15.05.5.11.66.06v-.03c.13-.04.26.01.36-.05.05-.06.11-.13.17-.19h.05v-.03c.03-.02.06-.04.08-.06v-.06c.02-.01.04-.02.05-.03v-.05l.11-.08v-.05c.03-.02.05-.04.08-.06.01-.06.02-.11.03-.16h.03l-.03-.85c-.06-.05-.13-.11-.19-.17v-.05c-.02-.01-.04-.02-.05-.03v-.05c-.06-.06-.13-.11-.19-.17-.02-.03-.04-.05-.06-.08h-.05v-.03h-.05v-.03h-.08v-.03l-.11-.03v-.03h-.08v-.03c-.07-.03-.42-.06-.52-.03v.03h-.08v.03h-.06v.03c-.08.02-.17.04-.25.05l-.41.38c-.05.14-.09.28-.14.41l-.14.11v.05h-.03c-.01.03-.02.06-.03.08h-.03v-.03h-.03v-.17c.06-.07.02-.17.05-.27h.03v-.14h.03v-.05h.03v-.05l.17-.14v-.06c.02-.01.04-.02.05-.03.03-.04.06-.07.08-.11h.05c.01-.02.02-.04.03-.05h.06l.11-.14h.06v-.03h.08v-.03h.16v-.03H85v-.03c.11-.02.22-.04.33-.05v.03h.11v.03h.05v.03h.08v.03l.33.03c.01.02.02.04.03.05h.05l.08.11h.05c.07.08.15.16.22.25.03.02.05.04.08.05v.08h.03v.05h.03v.08h.03c.1.1.08.08.2.08zm-.79 1.27c-.04.01-.09.02-.14.03v.03l-.17-.03c-.05-.05-.09-.11-.14-.16h-.03v-.05c-.02-.01-.04-.02-.05-.03v-.05h-.03l-.11-.14h-.19c-.02.03-.05.04-.06.05v.05h-.03v.25l-.06.03c-.01.02-.02.04-.03.05h-.19c-.01-.03-.08-.08-.08-.08v-1.24h.03v-.11c.04-.02.11-.08.14-.11h.69c.25.08.49.28.5.61h-.03l-.03.14c-.03.02-.05.04-.08.05v.05c-.02.01-.04.02-.05.03-.04.05-.05.1-.06.19h.03l.03.14c.03.02.05.04.08.05.03.06.05.11.08.17h-.03c.01.02.01.05.01.08zm-.5-1.16c.03.05.06.06.11.08.02.05 0 .02.03.05-.01.12-.04.14-.08.22-.12.03-.16.07-.28.03-.07-.03-.03.03-.08-.03-.07-.02-.06-.03-.11-.06 0-.19.02-.17.08-.27h.08v-.03c.09.01.17.01.25.01zm-73.72.53l1.13.03v.03h.14V12c.16.02.31.04.47.05v.03h.25v.03h.17v.03l.52.03v.03h.11v.03h.08v.03h.08v.03h.11v.03h.14v.03c.22.03.44.06.66.08v.03l.16.03v.03h.05v.03l.16.03v.03c.14.02.28.04.41.05v.03h.08v.03h.05v.03h.08v.03h.08v.03h.08v.03h.08v.03h.14v.03H17v.03h.08v.03h.08v.03l.11.03v.03h.08v.03h.08v.03h.08v.03h.08v.03h.08v.03h.06v.03h.05v.03c.05.02.11.04.16.05v.03c.09.02.18.04.27.05v.03l.11.03.03.06h.06v.03h.05v.03c.08.02.16.04.25.05v.03c.06.02.11.04.17.05.01.02.02.04.03.05h.06v.03c.09.03.18.05.27.08l.03.06h.06c.02.03.04.05.05.08h.06v.03h.05v.03h.08v.03h.06v.03h.05l.03.06h.05c.01.02.02.04.03.05h.05v.03h.05v.03h.05l.06.05h.05c.03.04.06.07.08.11h.05c.01.02.02.04.03.05h.05c.03.04.06.07.08.11.02.01.04.02.05.03v.05c.02.01.04.02.05.03.01.03.02.05.03.08h.03c.03.04.04.05.05.11.07.08.08.54.03.66h-.03v.06c-.02.01-.04.02-.05.03v.05h-.03c-.01.03-.02.05-.03.08-.02.01-.04.02-.05.03v.05c-.1.14-.59.45-.91.36v-.03h-.11v-.03h-.08v-.03h-.06v-.03h-.08v-.03h-.05v-.03h-.06l-.08-.11c-.14-.06-.28-.11-.41-.16-.02-.03-.04-.05-.06-.08h-.05l-.05-.05h-.06v-.03h-.05v-.03h-.05v-.03h-.06c-.01-.02-.02-.04-.03-.05h-.05v-.03h-.05v-.03c-.08-.02-.17-.04-.25-.05v-.03l-.11-.03v-.03h-.05c-.01-.02-.02-.04-.03-.05-.13-.04-.26-.07-.38-.11v-.03l-.11-.03c-.01-.02-.02-.04-.03-.05h-.05v-.03l-.3-.06v-.03l-.14-.03v-.03l-.11-.03v-.03h-.08v-.03h-.08v-.03h-.08v-.03l-.25-.03v-.03h-.11v-.03l-.11-.03v-.03l-.16-.03v-.03h-.11v-.03h-.14v-.03h-.19v-.03l-.22-.03v-.03h-.05v-.03h-.08v-.03h-.11v-.03h-.14v-.03h-.14v-.03l-.6-.06v-.03h-.11v-.03h-.08v-.03h-.11v-.03h-.22v-.03h-.19v-.03h-.41v-.03h-.22v-.03h-.63v-.03h-.14v-.03h-.14v-.03h-.52c-.48 0-1.01-.02-1.37.08h-.58c-.05.01-.19.05-.25.05h-.39v.03h-.16V14h-.25v.03h-.11v.03h-.08v.03h-.11v.03h-.14v.03l-.41.03v.03h-.14v.03l-.16.03v.03h-.08v.03h-.08v.03h-.08v.03h-.14v.03h-.11v.03h-.14v.03h-.11v.03h-.11v.03c-.09.03-.36 0-.41-.03v-.03H5.6v-.03h-.08c-.15-.07-.23-.17-.33-.28-.03-.02-.05-.04-.08-.05v-.06h-.03a.845.845 0 00-.05-.17H5v-.08h-.03c-.02-.06-.06-.32-.03-.41h.03v-.08H5v-.05h.03v-.08h.03c.02-.07.04-.13.06-.19h.03v-.05l.11-.08c.01-.02.02-.04.03-.05h.05c.03-.04.06-.07.08-.11h.06l.03-.06c.09-.02.18-.04.27-.05v-.03h.14v-.03h.11v-.03c.05-.01.11-.02.17-.03v-.03l.11-.03v-.03c.14-.02.28-.04.41-.05v-.03h.14v-.03l.25-.03v-.03h.08v-.03l.25-.03v-.03h.19v-.03h.22v-.03h.3v-.03h.14v-.03h.08v-.03h.3v-.03l.3-.06c.12 0 .34.03.41-.03.77.05 1.54.05 2.31.05zm33.49.46v.03c.05.01.11.02.17.03v.03c.05.02.11.04.16.06v.03h.05v.03h.08v.03l.14.03c.01.02.02.04.03.05h.06c.02.03.04.06.05.08.03.01.05.02.08.03.07.08.15.16.22.25h.05l.06.06v.06c.04.04.09.07.14.11v.05l.06.03v.05l.05.06v.06h.03v.05h.03v.05l.06.03v.05c.02.01.04.02.05.03v.06h.03c.03.14.06.27.08.41h.03v.05h.03l.03.16h.03v.14c.09.29.03.9-.05 1.13-.06.21-.11.42-.17.63-.02.01-.04.02-.05.03-.01.03-.02.05-.03.08h-.03v.05h-.03v.05l-.05.06v.06c-.05.05-.11.09-.17.14v.05c-.05.05-.11.09-.17.14l-.19.22h-.06c-.02.03-.04.06-.05.08h-.05c-.01.02-.02.04-.03.05h-.05l-.03.06-.16.03v.03h-.05v.03l-.14.03c-.01.02-.02.04-.03.05h-.08v.03h-.08v.03h-.17v.03h-.33c-.22 0-.39-.01-.55-.05l-.22-.03v-.03h-.06c-.01-.02-.02-.04-.03-.05h-.08v-.03h-.05v-.03h-.08v-.03h-.05v-.03h-.05l-.03-.06h-.05c-.02-.03-.04-.05-.06-.08h-.05l-.03-.06h-.05c-.07-.08-.15-.16-.22-.25l-.14-.11v-.05l-.17-.14c-.04-.1-.07-.2-.11-.3-.02-.01-.04-.02-.05-.03v-.06c-.02-.01-.04-.02-.05-.03v-.05h-.03c-.03-.15-.05-.29-.08-.44h-.03l-.03-.19h-.03c-.06-.17-.05-.38-.05-.6v-.22h.03v-.11h.03v-.11h.03v-.11h.03v-.08h.03c.03-.15.05-.29.08-.44h.03v-.06c.03-.02.05-.04.08-.06v-.05l.05-.05v-.05h.03v-.05h.03v-.08c.02-.01.04-.02.05-.03v-.05c.05-.05.11-.09.17-.14v-.05c.03-.02.05-.04.08-.06l.03-.06h.05l.05-.05v-.05h.03c.02-.03.04-.05.06-.08h.05c.01-.02.02-.04.03-.05.03-.01.06-.02.08-.03v-.03h.06c.02-.03.04-.06.05-.08.08-.03.17-.05.25-.08v-.03h.05v-.03c.05-.02.11-.04.17-.06v-.03h.11v-.03c.1-.03.21 0 .27-.05.24-.03.52-.02.79-.01zm10.15.06h.11v.03l.11.03v.03h.08v.03h.08v.03h.08v.03h.08v.03h.06c.01.02.02.04.03.05h.05c.02.03.04.06.05.08l.11.03c.01.02.02.04.03.05h.06v.03h.05c.02.03.04.05.05.08l.22.19v.05l.17.14v.05c.03.02.05.04.08.06.03.08.05.17.08.25l.06.03v.06c.02.01.04.02.05.03v.06c.02.01.04.02.05.03.04.16.07.33.11.49.08.24.18.64.08.96v.16h-.03l-.03.17h-.03v.08h-.03v.08h-.03c-.02.11-.04.22-.05.33h-.03l-.03.11c-.03.02-.05.04-.08.05-.01.04-.02.09-.03.14h-.03v.05h-.03v.06l-.06.03v.05l-.22.19-.27.3h-.05l-.03.06h-.05c-.02.03-.04.05-.05.08h-.06l-.03.06h-.05v.03h-.05v.03h-.08v.03h-.08v.03h-.06c-.01.02-.02.04-.03.05h-.05v.03h-.08v.03h-.08v.03h-.17v.03h-.33c-.28 0-.57.01-.77-.05h-.11v-.03a.845.845 0 00-.17-.05v-.03h-.05v-.03h-.06v-.03c-.05-.01-.11-.02-.17-.03v-.03h-.05l-.03-.06h-.05c-.02-.03-.04-.05-.06-.08h-.05v-.03c-.03-.01-.05-.02-.08-.03-.01-.02-.02-.04-.03-.05h-.05c-.02-.03-.04-.05-.05-.08-.06-.05-.13-.11-.19-.17v-.06a1.07 1.07 0 01-.16-.14v-.05c-.02-.01-.04-.02-.05-.03-.02-.06-.04-.11-.06-.17l-.11-.08v-.05h-.03v-.08h-.03v-.11h-.03v-.08h-.03v-.08h-.03v-.08h-.03l-.03-.11h-.03l-.03-.3c-.09-.31-.06-.76.03-1.04v-.14h.03v-.08h.03l.03-.14h.03V14h.03v-.08h.03l.03-.19c.03-.02.06-.04.08-.05.01-.03.02-.05.03-.08h.03v-.05l.06-.03v-.06l.05-.06v-.05l.14-.11v-.05c.04-.03.07-.06.11-.08l.03-.06h.06c.05-.05.09-.11.14-.16h.06v-.03h.05c.01-.02.02-.04.03-.05h.06l.03-.06h.05c.02-.03.04-.06.05-.08h.06v-.03h.08v-.03h.08v-.03h.08v-.03h.08v-.03l.11-.03v-.03h.08v-.03c.1-.04.34.01.41-.05.29-.04.51-.02.72.05zm-43.78 3.71c.31 0 .65-.01.88.05h.33v.03l.88.06v.03h.16v.03h.05v.03h.08v.03h.11v.03h.14v.03h.16v.03c.17.02.33.04.5.05v.03c.06.01.11.02.16.03v.03h.05v.03c.05.01.11.02.17.03v.03c.14.02.27.04.41.05v.03c.04.01.09.02.14.03l.03.06h.06v.03c.17.04.33.07.5.11v.03h.05c.01.02.02.04.03.05h.05v.03h.08v.03h.08v.03h.08v.03h.08v.03h.08v.03h.06c.01.02.02.04.03.05l.11.03v.03l.11.03v.03l.17.03v.03c.05.02.11.04.16.05v.03h.06v.03h.05v.03c.08.03.17.05.25.08.02.03.04.05.05.08h.05c.01.02.02.04.03.05.1.04.2.07.3.11.02.03.04.05.05.08h.06l.05.06h.05v.03h.06v.03h.05c.01.02.02.04.03.05.03.01.05.02.08.03v.05c.06.06.13.11.19.17v.05l.06.03c.08.15.03.35.03.52-.03 0 .01.01-.03.06l-.06.03v.03c-.02.01-.04.02-.05.03v.05c-.03.02-.05.04-.08.06v.05c-.03.04-.3.17-.36.19-.17.06-.63-.11-.72-.16l-.08-.11h-.05v-.03l-.11-.03v-.03h-.08v-.03h-.06v-.03h-.05c-.01-.02-.02-.04-.03-.05l-.11-.03-.03-.06h-.08v-.03h-.08v-.03l-.11-.03v-.03h-.05v-.03c-.03-.01-.05-.02-.08-.03-.01-.02-.02-.04-.03-.05h-.08v-.03h-.08v-.03h-.08v-.03h-.08v-.03h-.06l-.03-.06a3.25 3.25 0 00-.17-.06v-.03c-.1-.02-.2-.04-.3-.05v-.03h-.08v-.03l-.11-.03v-.03h-.06v-.03h-.08v-.03h-.08v-.03h-.14v-.03h-.11v-.03c-.04-.01-.09-.02-.14-.03v-.03l-.11-.03v-.03h-.08v-.03h-.11v-.03h-.19v-.03h-.17v-.03h-.14v-.03h-.11v-.03h-.06v-.03h-.08v-.03h-.17v-.03l-.3-.03v-.03l-.55-.03c-.66-.19-1.59-.14-2.42-.14l-.44-.03v.03h-.25v.03h-.16v.03H9.3v.03h-.11v.03H9v.03c-.37.03-.73.05-1.1.08v.03h-.08v.03h-.08v.03H7.6v.03l-.3.03v.03c-.17.02-.35.04-.52.05v.03h-.11v.03h-.08v.03h-.08v.03h-.08v.03c-.11.04-.33-.02-.38-.05v-.03a.983.983 0 00-.16-.05c-.02-.03-.04-.05-.06-.08-.06-.06-.13-.11-.19-.17-.03-.05-.13-.4-.11-.49h.03v-.16h.03v-.08h.03v-.05h.03v-.05c.03-.02.05-.04.08-.05v-.03h.06l.11-.14h.05c.01-.02.02-.04.03-.05h.08v-.03c.13-.02.26-.04.38-.05v-.03h.11v-.03h.08v-.03h.08v-.03l.28-.03v-.03l.44-.03v-.03h.14v-.03l.33-.03v-.03h.14v-.03h.11v-.03l.41-.03v-.03h.39c.05.05.19.02.29.01.13 0 .37 0 .44-.05h1.87z"
    fill-rule="evenodd" clip-rule="evenodd"></path>
</svg>