<svg xmlns="http://www.w3.org/2000/svg" xmlns:xlink="http://www.w3.org/1999/xlink" id="link_snstwringo"
  viewBox="0 0 27 23">
  <path
    d="M21.37 1.14H5.63c-1.37 0-2.49 1.12-2.49 2.49v15.73c0 1.37 1.12 2.49 2.49 2.49h15.73c1.37 0 2.49-1.12 2.49-2.49V3.63a2.482 2.482 0 00-2.48-2.49zM19.1 8.8c.08.82-.53 6.38-4.99 7.9-4.46 1.51-7.53-.65-7.53-.65 2.62.16 4.09-1.15 4.09-1.15-2.21-.33-2.62-2.01-2.62-2.01.49.08 1.11-.12 1.11-.12C6.87 11.74 7.07 9.9 7.07 9.9c.45.45 1.19.37 1.19.37-2.13-1.68-.86-3.93-.86-3.93C9.74 9 12.25 9.36 13.27 9.38a2.949 2.949 0 012.89-3.53c.88 0 1.67.38 2.2.99.67-.15 1.68-.71 1.68-.71-.1.55-.92 1.27-1.18 1.49.01.03.02.06.04.08.47.01 1.56-.47 1.56-.47C20 8.14 19.1 8.8 19.1 8.8z">
  </path>
</svg>