<svg xmlns="http://www.w3.org/2000/svg" xmlns:xlink="http://www.w3.org/1999/xlink" id="link_universal"
  viewBox="0 0 27 23">
  <path
    d="M1.48 17.49v.79c0 .39-.21.54-.7.54-.48 0-.69-.15-.69-.54v-.79l-.09-.1h.58l-.09.1v.77c0 .18.12.25.29.25.17 0 .29-.07.29-.25v-.77l-.09-.1h.59l-.09.1zM3.6 17.49v1.29h-.32l-.76-.82v.72l.09.1h-.49l.09-.1v-1.19l-.09-.1h.44l.71.81v-.71l-.09-.1h.5l-.08.1zM4.3 18.78l.09-.1v-1.19l-.09-.1h.6l-.09.1v1.19l.09.1h-.6zM6.26 18.78h-.29l-.65-1.4h.59l-.09.1.34.77.35-.77-.09-.1h.5l-.66 1.4zM7.34 18.78l.09-.1v-1.19l-.09-.1h1.31v.38l-.1-.08h-.72v.27h.45l.1-.09v.46l-.1-.09h-.45v.27h.72l.1-.09v.38H7.34zM10.24 17.84c0 .1-.1.18-.23.18h-.27v-.34h.32c.1 0 .18.04.18.16zm.48.94l-.38-.55c.19-.07.32-.22.32-.42 0-.23-.15-.42-.54-.42h-.87l.09.1v1.19l-.09.1h.58l-.09-.1v-.4h.18l.27.4-.09.1h.62zM11.96 18.82c-.2 0-.44-.08-.55-.11l-.11.12v-.52c.23.15.49.2.64.2.06 0 .18-.01.18-.11 0-.12-.19-.12-.39-.19-.26-.09-.44-.21-.44-.46 0-.19.15-.4.62-.4.14 0 .35.05.46.1l.11-.11v.47c-.2-.1-.45-.15-.6-.15-.11 0-.18.03-.18.09 0 .11.24.15.41.2.26.08.43.21.43.42.01.26-.17.45-.58.45zM14.04 18.28h-.46l.23-.5.23.5zm.68.5l-.69-1.4h-.47l.05.1-.63 1.29h.52l-.09-.1.07-.15h.66l.07.15-.09.1h.6zM15.17 18.78l.08-.1v-1.19l-.08-.1h.58l-.09.1v1h.67l.1-.09v.38h-1.26zM19.43 18.78l.09-.1v-.67l-.37.78h-.19l-.42-.79v.69l.09.1h-.48l.09-.1V17.5l-.09-.1h.49l.46.85.41-.85H20l-.09.1v1.19l.09.1h-.57zM22.03 17.49v.79c0 .39-.22.54-.7.54s-.7-.15-.7-.54v-.79l-.08-.1h.59l-.08.1v.77c0 .18.12.25.28.25.18 0 .29-.07.29-.25v-.77l-.09-.1h.59l-.1.1zM23.31 18.82c-.2 0-.44-.08-.55-.11l-.11.12v-.52c.24.15.5.2.65.2.06 0 .18-.01.18-.11 0-.12-.18-.12-.39-.19-.27-.09-.45-.21-.45-.46 0-.19.16-.4.63-.4.14 0 .34.05.46.1l.12-.11v.47c-.2-.1-.45-.15-.59-.15-.11 0-.18.03-.18.09 0 .11.24.15.41.2.26.08.44.21.44.42-.02.26-.21.45-.62.45zM24.51 18.78l.09-.1v-1.19l-.09-.1h.59l-.09.1v1.19l.09.1h-.59zM26.45 18.81c-.42 0-.8-.21-.8-.73 0-.4.29-.72.82-.72.16 0 .34.04.43.07l.1-.09v.46a.876.876 0 00-.51-.15c-.29 0-.41.2-.41.43 0 .25.17.42.42.42.26 0 .41-.1.5-.15v.33c-.1.06-.35.13-.55.13z">
  </path>
  <g>
    <path
      d="M23.78 10.14h.99l.11-.11v.55h-1.77l.1-.12V8.7l-.1-.11h.77l-.1.11v1.44zM20.79 10.19c-.1.22-.12.3-.12.3l.07.09h-.67l.91-1.89-.1-.11h.64l.97 2h-.74l.07-.09s-.11-.29-.12-.29h-.91zm.09-.35h.7l-.36-.74-.34.74zM15.53 10.46l.09.12h-.7l.1-.12V8.69l-.1-.11h1.24c.5 0 .71.25.71.63.01.3-.22.51-.5.59l.51.78h-.7l.07-.12s-.36-.56-.4-.63h-.33v.63zm0-1.04h.57c.15 0 .2-.1.2-.21 0-.11-.06-.21-.2-.21h-.57v.42zM13.65 9.84l-.15-.09h-.6v.38h1.07l.1-.14v.57h-1.85l.1-.11V8.69l-.1-.11h1.85v.55L13.98 9h-1.07v.35h.6l.14-.09v.58zM10.34 10.57l-.87-1.99h.72l-.07.09s.06.12.49 1.15c.42-1 .48-1.15.48-1.15l-.06-.09h.6l-.86 1.98-.43.01zM8.09 10.58l.11-.12V8.69l-.11-.11h.78l-.11.11v1.76l.11.12h-.78zM5.15 8.69l-.1-.11h.62l.99 1.15V8.69l-.08-.11h.65l-.1.11v1.86h-.41s-.17-.12-1.1-1.24v1.14l.1.12h-.67l.1-.12V8.69zM3.65 8.69l-.1-.11h.73l-.1.11v1.04c0 .68-.3.91-.99.9-.66 0-.98-.22-.98-.9V8.69l-.1-.11h.74l-.1.11v1.04c0 .3.18.47.46.47.29 0 .45-.17.45-.47V8.69zM14 7.59c.04.06.12.02.18.03.08.07.16.14.3.13-.01.03-.04.08-.12.07V7.8c-.19.06-.16-.15-.36-.13-.08-.03-.13-.17-.26-.11v-.04c.08.02.26-.04.26.07zM14.85 7.85c-.01.03.01.06.05.05h.05v.05c-.17-.08-.27.15-.36-.02 0-.05-.02-.11.03-.13.11-.03.13.06.23.05zM15.17 8.04l-.01-.08.06.04zM17.33 11.09c.16.27-.2.25-.14.49-.12.15-.19.38-.49.31-.08.07-.23.12-.22.28-.09 0-.08.13-.16.14 0 .13-.17.11-.17.25-.02 0-.07-.01-.08.01-.03.2-.32.14-.38.31-.09.02-.02.19-.16.15-.24-.04-.29.19-.52.18a.99.99 0 01-.25.32c-.04.01-.07 0-.08.03.1.1-.04.12-.1.17-.03 0-.08 0-.08.05 0 .02-.01.05.02.07h.01v.03l-.15-.02c-.07-.07-.07-.2-.04-.31.04-.07.03-.18.11-.23-.02-.05-.1-.06-.07-.15.08-.16.24-.26.28-.46.06-.1.01-.25.07-.35.2-.11-.01-.51.18-.65a.418.418 0 00-.3-.38c-.04-.09-.13-.15-.22-.19l-.01-.06h2.95z">
    </path>
    <path
      d="M8.64 11.81c1.83 4.53 8.02 4.43 9.9-.01-2.15 4-7.69 4.03-9.9.01zM13.37 4.95c.09-.1.21-.13.33-.21.13-.02.15-.17.32-.14l.04-.03c1.78.14 3.49 1.14 4.48 2.98-1.87-4.44-8.07-4.54-9.9-.01.77-1.39 1.93-2.29 3.22-2.72v.01c-.01.16-.16.27-.26.37-.06.19-.16.29-.16.51-.09.03-.06.16-.18.16-.02.13-.14.19-.15.33-.04.02.01.1-.05.1-.08.17.07.27.06.42-.04.33.14.51.16.78h.05c.07-.29-.13-.46-.08-.72.05-.04.04.05.09.05.01.26.1.45.23.63-.02.11.08.14.09.22 0 .02.01.07-.03.06v.05h.02c.02.03 0 .08.01.11h.05c.01.01.02.02.02.04.09.01.18.09.24.16h1.08c0-.04.08-.04.06-.09-.01-.02.01-.04.02-.03-.04-.13.08-.17.08-.27-.09.04-.12-.04-.18-.06h-.04c0 .09-.07.09-.07.17-.06.02-.02.13-.11.1-.05.12-.24.04-.38.06-.06-.04-.06-.11-.1-.18-.22-.2-.01-.51.07-.71.02-.05.08-.07.15-.06.08-.12.3-.05.45-.07.04-.03.06-.1.13-.08.03 0 .08 0 .07.04l.19.01c.35-.22.2.33.42.39.19-.12.01-.29-.01-.39-.16-.34.28-.33.38-.52.07-.09.06-.24.16-.28v-.04c-.01-.04.01-.07.05-.05V6c.02-.03.04-.01.06-.02.07-.04.11-.09.11-.19.12.03.15-.06.27-.05.05-.12-.12-.11-.16-.17-.05-.29.32-.05.49-.14.02-.1-.09-.08-.12-.15h-.05c-.06-.03-.08-.1-.15-.12-.09.02-.08-.09-.15-.1a.218.218 0 00-.22.04c-.06-.07-.17-.09-.23-.18-.06 0-.13.02-.18-.01V4.9h-.08c-.06.15.11.14.1.26-.14.01-.07.16-.12.25-.15 0-.16-.18-.29-.21-.01.01-.04-.01-.03-.03l-.23-.01v-.02c-.09.02-.13-.03-.18-.07.05-.05.06-.11.14-.12zM17.74 9.94s.41.28.74.28c.28 0 .45-.03.44-.2-.01-.25-1.21-.25-1.2-.87.01-.38.33-.61.79-.61.44 0 .68.11.76.11l.12-.11.01.61c-.09-.05-.49-.21-.79-.21-.28 0-.34.07-.34.15 0 .34 1.24.19 1.23.94 0 .29-.24.57-.89.58-.54 0-.65-.15-.73-.15l-.15.11v-.63zM24.77 8.69c.04.04.07.1.07.17s-.02.13-.07.18c-.05.05-.11.07-.18.07-.07 0-.13-.02-.18-.07a.25.25 0 01-.08-.18c0-.07.03-.13.08-.17.05-.05.1-.08.18-.08.07 0 .13.03.18.08zm-.08.23c-.01.02-.02.03-.03.05-.01.01-.03.02-.05.02a.09.09 0 01-.08-.04c-.02-.02-.03-.05-.03-.09 0-.02 0-.05.01-.07.02-.03.05-.06.08-.06s.05.01.06.03c.02.01.02.03.03.05h.05c-.01-.05-.03-.08-.07-.1-.02-.01-.05-.01-.07-.01-.05 0-.08.01-.11.05-.03.03-.04.06-.04.12 0 .05.01.09.04.13.03.03.07.04.11.04.03 0 .06 0 .09-.03.02-.02.04-.05.05-.07h-.04zm.11-.27a.27.27 0 00-.2-.08c-.08 0-.15.02-.21.08a.288.288 0 000 .42c.06.05.13.08.21.08a.288.288 0 00.2-.5z">
    </path>
  </g>
</svg>